<svg width="224" height="40" viewBox="0 0 224 40" fill="none" xmlns="http://www.w3.org/2000/svg">
<g clip-path="url(#clip0_40002001_585)">
<path fill-rule="evenodd" clip-rule="evenodd" d="M17.8177 4C18.3865 4 19.0773 4.17296 20.5603 4.99454L21.3729 4.49727C21.9011 4.17296 22.5106 4 23.1607 4C23.6889 4 24.3593 4.1081 24.664 4.23782C24.989 4.34593 25.5376 4.77833 25.9235 5.14588C26.2892 5.53505 26.7362 6.16204 26.8784 6.52959C27.0409 6.91875 27.1628 7.63223 27.1628 8.10787C27.1628 8.58352 27.0206 9.34024 26.8377 9.79426C26.6549 10.2699 25.3547 11.8482 20.5603 16.9722L17.5536 13.794C15.8877 12.0212 14.4453 10.3996 14.3234 10.1618C14.2016 9.92399 14.0187 9.38348 13.9375 8.97269C13.8359 8.54028 13.8562 7.78357 13.9781 7.24306C14.1 6.70255 14.4047 5.94583 14.6485 5.53505C14.9329 5.12426 15.5221 4.64861 16.0096 4.41079C16.4972 4.19458 17.3098 4 17.8177 4ZM27.6707 16.7776C27.9145 16.7776 28.6255 17.3398 29.4991 18.2695C30.7993 19.6748 31.1243 19.891 36 22.0746V32.193L29.4991 34.7226L27.5894 34.4415C26.5533 34.2902 25.6595 34.0956 25.6188 34.0091C25.5782 33.901 25.6391 33.6632 25.761 33.4686C25.9236 33.1875 26.2486 33.0794 27.0003 33.0794C27.8738 33.0794 28.077 32.9929 28.6052 32.3876C29.0724 31.8254 29.1943 31.4795 29.1943 30.7012C29.1943 29.9661 29.3162 29.5769 29.7022 29.1445C30.0476 28.7553 30.2304 28.3013 30.2101 27.8473C30.2101 27.4581 30.0882 26.8744 29.9257 26.5501C29.7429 26.1609 28.9912 25.5771 27.7926 24.8637C26.7768 24.2799 25.9439 23.6529 25.9439 23.5232C25.9439 23.3719 26.2892 23.1557 26.6955 23.0476C27.1222 22.9178 27.7316 22.7665 28.077 22.7016C28.4223 22.6152 28.9912 22.4638 29.3365 22.3557C29.8038 22.226 30.007 22.0314 30.007 21.7287C30.007 21.4909 29.8851 21.2531 29.7428 21.1882C29.621 21.1233 28.5646 21.3179 27.4066 21.6206C26.2689 21.9233 25.0703 22.1611 24.7249 22.1611C24.3796 22.1611 24.0748 22.053 24.0139 21.9449C23.953 21.8368 23.9936 21.6855 24.1155 21.6206C24.2171 21.5558 24.3186 21.3179 24.3186 21.0801C24.3186 20.8423 24.1967 20.6045 24.0545 20.5612C23.9326 20.518 22.3277 21.2963 20.4993 22.2908C18.5287 23.3935 16.9645 24.107 16.5988 24.107C16.1925 24.107 15.9216 23.9628 15.7862 23.6746C15.6643 23.4367 15.583 23.0692 15.583 22.8746C15.5627 22.6368 16.5785 21.5558 20.5603 17.9668L23.9123 17.383C25.761 17.0587 27.4472 16.7993 27.6707 16.7776ZM7.8022 17.1884C7.82251 17.1884 8.98049 17.7938 12.8404 19.8477L14.6688 19.6099C15.6643 19.5018 16.5785 19.4586 16.6597 19.5234C16.7613 19.6099 16.355 20.1072 15.7862 20.6477C15.1564 21.2531 14.6688 21.9017 14.5266 22.3773C14.3438 23.0043 14.3844 23.2854 14.6891 23.9772C14.9126 24.4313 15.3189 24.9502 15.6236 25.1015C15.9487 25.2745 16.4159 25.4042 16.7004 25.4042C16.9848 25.4042 18.3053 24.8204 22.0839 22.8097L25.5579 24.9285C27.5488 26.1393 29.0521 27.1771 29.1131 27.3933C29.1537 27.6095 29.0928 27.977 28.9912 28.2148C28.8693 28.4527 28.6052 28.6905 28.3817 28.7553C28.1176 28.8202 26.9393 28.2581 25.0297 27.1338C23.4044 26.1825 21.9824 25.4474 21.8808 25.5123C21.7589 25.5771 21.6776 25.815 21.6776 26.0528C21.6776 26.3771 22.409 26.9176 24.8265 28.3662C26.8581 29.5985 28.016 30.4201 28.0973 30.7012C28.1582 30.9606 28.0567 31.2849 27.8332 31.5228C27.63 31.739 27.2441 31.8903 26.9596 31.8903C26.6752 31.8903 24.989 31.0039 23.2013 29.9228C21.4135 28.8634 19.8086 28.0203 19.6461 28.0419C19.4836 28.0851 19.3414 28.3013 19.3414 28.5391C19.3414 28.8418 20.0524 29.3823 22.0839 30.6363C23.5873 31.5444 24.8468 32.4092 24.8671 32.5173C24.9078 32.647 24.7453 32.9497 24.5218 33.1875C24.2983 33.4253 23.8514 33.6199 23.506 33.6199C23.1403 33.6199 22.023 33.101 20.7025 32.3227C19.5039 31.6092 18.3662 31.0255 18.1631 31.0255C17.9802 31.0255 17.5333 30.7444 17.2082 30.3769C16.8629 30.0093 16.4159 29.7283 16.1925 29.7283C15.969 29.7283 15.5017 29.4472 15.1767 29.0796C14.7704 28.6472 14.3641 28.431 13.9578 28.431C13.5108 28.431 13.328 28.3013 13.2467 27.9986C13.1858 27.7608 12.8404 27.4149 12.4747 27.2203C11.9059 26.896 11.7434 26.896 11.1339 27.1554C10.687 27.35 10.2807 27.7824 9.97595 28.3662C9.71185 28.8851 9.3868 29.2959 9.28522 29.2959C9.16333 29.2959 7.96472 28.6472 6.58327 27.8473C5.22214 27.0473 4.06416 26.3771 4.00322 26.3339C3.94227 26.3122 4.75489 24.2367 5.81129 21.7287C6.86769 19.2424 7.76157 17.1884 7.8022 17.1884ZM20.0524 33.4037C20.1133 33.4037 20.6009 33.6632 21.1494 33.9875C21.6979 34.3118 22.1855 34.7442 22.2465 34.9172C22.3074 35.0901 22.1449 35.4144 21.8605 35.6306C21.5964 35.8468 21.1291 36.0198 20.8041 35.9982C20.4993 35.9982 20.0118 35.8252 19.6867 35.6306C19.382 35.436 19.1179 35.2415 19.0773 35.1982C19.0569 35.155 19.2398 34.7442 19.4836 34.2685C19.7273 33.7929 19.9915 33.4037 20.0524 33.4037ZM11.8043 28.2581C12.0481 28.3013 12.2513 28.5175 12.2919 28.7553C12.3325 28.9932 12.1091 29.6418 11.784 30.2039C11.4793 30.7877 11.0933 31.2849 10.9511 31.3498C10.8292 31.4146 10.5651 31.4146 10.4026 31.3498C10.24 31.2849 10.0775 31.0471 10.0572 30.8093C10.0369 30.5715 10.3213 29.8796 10.7073 29.2959C11.2152 28.4527 11.4793 28.2148 11.8043 28.2581ZM13.8968 29.5553C14.0797 29.5985 14.3031 29.7715 14.425 29.9445C14.5672 30.1823 14.4047 30.6796 13.7749 31.8471C13.0842 33.1227 12.8607 33.4037 12.4341 33.4037C12.1497 33.4037 11.8856 33.2524 11.8247 33.0794C11.7637 32.9065 11.8247 32.5389 11.9465 32.2795C12.0888 31.9984 12.4951 31.2633 12.8811 30.6363C13.328 29.9012 13.6937 29.5121 13.8968 29.5553ZM16.0706 31.0687C16.294 31.112 16.5175 31.3065 16.5378 31.5228C16.5785 31.7173 16.1722 32.6686 15.6236 33.6199C15.0954 34.5712 14.5266 35.3496 14.3641 35.3496C14.2016 35.3712 13.9375 35.2198 13.7952 35.0253C13.5921 34.7658 13.6734 34.4847 14.2016 33.4686C14.5469 32.7767 15.0142 31.9335 15.2376 31.6092C15.495 31.2057 15.7726 31.0255 16.0706 31.0687ZM18.1631 32.3227C18.4272 32.3227 18.6709 32.4741 18.7319 32.647C18.7928 32.82 18.5084 33.5983 18.1224 34.3766C17.5333 35.5225 17.3301 35.782 16.9035 35.782C16.6191 35.782 16.355 35.6306 16.294 35.4577C16.2331 35.2847 16.5378 34.5064 16.9441 33.728C17.513 32.6254 17.7771 32.3227 18.1631 32.3227Z" fill="#5FC2D1"/>
</g>
<defs>
<clipPath id="clip0_40002001_585">
<rect width="216" height="32" fill="white" transform="translate(4 4)"/>
</clipPath>
</defs>
</svg>
