<svg width="502" height="292" viewBox="0 0 502 292" fill="none" xmlns="http://www.w3.org/2000/svg">
<path d="M460.5 239.84C460.5 239.926 366.696 240 251.009 240C135.323 240 41.5 239.926 41.5 239.84C41.5 239.754 135.286 239.68 251.009 239.68C366.732 239.68 460.5 239.754 460.5 239.84Z" fill="#263238"/>
<path d="M74.2061 169.469C74.3722 168.952 93.5466 106.295 93.5466 106.295L93.0666 98.5134L98.0818 90.2583L104.309 92.319L103.46 101.546L99.0294 108.276L79.7442 171.271L74.2061 169.469Z" fill="#E0E0E0"/>
<path d="M74.2061 169.469L74.5753 169.573L75.6398 169.906L79.7442 171.191L79.6765 171.228C82.7964 161.011 90.0083 137.365 98.894 108.251L103.318 101.528V101.595C103.589 98.6487 103.878 95.5177 104.168 92.3682L104.278 92.5343L103.761 92.3682L98.051 90.4797L98.2356 90.4121L93.2205 98.6671V98.5749C93.3805 101.228 93.5384 103.822 93.6943 106.356V106.412C88.0884 124.613 83.2333 140.379 79.7812 151.599C78.0459 157.215 76.6552 161.687 75.7014 164.769C75.2275 166.307 74.8522 167.494 74.5999 168.306L74.3107 169.223L74.2061 169.537C74.2269 169.435 74.2536 169.334 74.286 169.235C74.3476 169.02 74.4337 168.718 74.5507 168.331C74.7968 167.519 75.166 166.338 75.6091 164.812C76.5382 161.737 77.892 157.259 79.5904 151.649C83.0241 140.392 87.8361 124.583 93.3989 106.319V106.375C93.2389 103.84 93.0769 101.247 92.9128 98.5933V98.5441V98.5011L97.9279 90.246L97.9894 90.1353L98.1125 90.1783L103.829 92.0606L104.34 92.2328L104.463 92.2698V92.3989C104.174 95.5669 103.885 98.6979 103.608 101.626V101.669V101.7L99.1832 108.429V108.386C90.2052 137.439 82.9318 161.054 79.7812 171.271V171.327H79.7258L75.6152 169.967L74.5753 169.617L74.2061 169.469Z" fill="#263238"/>
<path d="M69.5849 172.502L60.97 184.14L48.9275 227.814C48.9275 227.814 47.1984 236.721 57.0378 239.25C68.1142 242.092 70.6371 233.627 70.6371 233.627L82.3289 190.98L82.2058 176.192L85.0918 172.938C85.2223 172.787 85.3138 172.605 85.3585 172.41C85.4031 172.215 85.3995 172.013 85.348 171.819C85.2965 171.626 85.1986 171.448 85.0628 171.301C84.927 171.154 84.7574 171.043 84.5687 170.976L70.7356 166.412C70.5433 166.352 70.3393 166.34 70.1413 166.377C69.9433 166.414 69.7575 166.499 69.6002 166.625C69.4428 166.751 69.3188 166.913 69.2388 167.098C69.1589 167.283 69.1256 167.484 69.1418 167.685L69.5849 172.502Z" fill="#C53F3F"/>
<path d="M82.2795 176.703C82.2487 176.789 79.3504 175.946 75.806 174.821C72.2615 173.695 69.4001 172.711 69.4309 172.625C69.4617 172.539 72.3538 173.387 75.9044 174.513C79.455 175.639 82.3041 176.617 82.2795 176.703Z" fill="#263238"/>
<path d="M82.3537 190.986C82.0621 190.968 81.7733 190.918 81.4922 190.839C80.9384 190.722 80.1507 190.531 79.1723 190.285C77.2155 189.799 74.5326 189.055 71.6096 188.12C68.6867 187.185 66.0715 186.238 64.1823 185.506C63.247 185.136 62.4901 184.829 61.9732 184.607C61.6988 184.509 61.435 184.383 61.1855 184.232C61.4723 184.291 61.7526 184.377 62.0224 184.491L64.2623 185.29C66.1576 185.967 68.779 186.883 71.7019 187.812C74.6249 188.741 77.2955 189.522 79.2277 190.07L81.523 190.716C81.8076 190.78 82.0856 190.871 82.3537 190.986Z" fill="#263238"/>
<g opacity="0.3">
<path d="M66.1569 188.77L65.8556 188.682C64.779 188.368 63.6518 188.986 63.3379 190.063L52.6778 226.611C52.3639 227.688 52.9822 228.815 54.0588 229.129L54.36 229.217C55.4367 229.531 56.5639 228.913 56.8778 227.836L67.5379 191.288C67.8518 190.211 67.2335 189.084 66.1569 188.77Z" fill="black"/>
</g>
<g opacity="0.3">
<path d="M72.3298 190.771L72.0285 190.684C70.9519 190.37 69.8246 190.987 69.5107 192.064L58.8506 228.613C58.5367 229.689 59.155 230.816 60.2316 231.13L60.5329 231.218C61.6095 231.532 62.7368 230.914 63.0507 229.838L73.7107 193.289C74.0247 192.212 73.4064 191.085 72.3298 190.771Z" fill="black"/>
</g>
<g opacity="0.3">
<path d="M77.8994 192.613L77.5985 192.524C76.5231 192.205 75.3934 192.819 75.0752 193.894L64.2686 230.4C63.9504 231.475 64.5641 232.604 65.6395 232.922L65.9404 233.011C67.0157 233.33 68.1454 232.716 68.4637 231.641L79.2702 195.136C79.5885 194.061 78.9747 192.931 77.8994 192.613Z" fill="black"/>
</g>
<path d="M98.9856 108.282C98.0446 108.125 97.1241 107.863 96.2411 107.501C95.3243 107.243 94.4405 106.88 93.6074 106.418C94.5455 106.58 95.4636 106.842 96.3457 107.199C97.2642 107.458 98.15 107.822 98.9856 108.282Z" fill="#263238"/>
<path d="M104.321 92.3192C104.275 92.6121 104.203 92.9003 104.106 93.1804C103.927 93.7955 103.694 94.5706 103.404 95.5302L100.943 103.527L100.894 103.681L100.74 103.631L97.903 102.641L94.9863 101.62L94.8447 101.571L94.8878 101.429C95.7739 98.2675 96.5554 95.4933 97.1338 93.4326C97.4169 92.4791 97.6446 91.6918 97.823 91.1012C97.8953 90.8154 97.99 90.5357 98.1061 90.2646C98.0724 90.5585 98.0127 90.8487 97.9276 91.132L97.3123 93.4879C96.7646 95.5363 96.0262 98.3167 95.177 101.485L95.0786 101.294L98.0015 102.315L100.832 103.305L100.629 103.41L103.214 95.4687C103.534 94.5152 103.829 93.7402 104.001 93.1496C104.084 92.8643 104.191 92.5865 104.321 92.3192Z" fill="#263238"/>
<path d="M417.168 68.212C421.334 63.1925 425.5 58.1238 428.749 52.4646C431.998 46.8054 434.287 40.4818 434.453 33.9614C434.453 32.971 434.053 26.1123 433.099 25.8355C432.423 25.6387 431.955 31.6977 431.401 32.1345C426.084 36.2928 422.632 42.4625 420.645 48.9091C418.774 55.1948 417.608 61.6688 417.168 68.212Z" fill="#263238"/>
<path d="M362.899 106.363C364.561 102.057 372.745 80.5269 372.702 80.5269C372.659 80.5269 358.604 73.1946 363.472 58.2591C365.81 51.0436 371.834 36.5819 377.434 23.5533C380.341 16.8033 385.683 11.3943 392.397 8.40232C399.112 5.41036 406.707 5.05471 413.672 7.40611L415.106 7.89206C430.281 14.0434 433.567 30.326 427.001 45.3167L396.849 115.134L370.425 106.972L362.899 106.363Z" fill="#FFBF9D"/>
<path d="M372.708 80.5391C372.708 80.5391 381.895 84.2299 394.005 81.351C394.005 81.351 385.624 90.8179 371.237 84.4698L372.708 80.5391Z" fill="#FF9A6C"/>
<path d="M377.41 37.9288C377.218 38.4807 377.249 39.0855 377.496 39.615C377.743 40.1445 378.186 40.5569 378.733 40.7646C378.996 40.8769 379.279 40.9355 379.565 40.9371C379.851 40.9387 380.134 40.8831 380.398 40.7737C380.663 40.6642 380.902 40.5031 381.103 40.2998C381.305 40.0965 381.463 39.855 381.569 39.5897C381.763 39.0379 381.733 38.4323 381.486 37.9024C381.238 37.3725 380.794 36.9603 380.246 36.7539C379.984 36.6407 379.701 36.5814 379.414 36.5794C379.128 36.5774 378.844 36.6328 378.58 36.7424C378.315 36.8519 378.076 37.0133 377.875 37.2171C377.674 37.4209 377.515 37.6629 377.41 37.9288Z" fill="#263238"/>
<path d="M378.505 30.8121C378.677 31.1812 380.689 30.5291 382.972 31.3104C385.255 32.0916 386.548 33.7709 386.886 33.5987C387.052 33.5187 386.954 32.9282 386.4 32.1469C385.644 31.1281 384.591 30.3692 383.385 29.9755C382.191 29.5634 380.897 29.5462 379.693 29.9263C378.806 30.2277 378.419 30.646 378.505 30.8121Z" fill="#263238"/>
<path d="M397.464 45.9936C397.27 46.5445 397.301 47.1492 397.548 47.6781C397.795 48.207 398.24 48.6181 398.787 48.8232C399.05 48.9364 399.333 48.9957 399.619 48.9977C399.905 48.9997 400.189 48.9443 400.453 48.8347C400.718 48.7252 400.958 48.5638 401.159 48.36C401.36 48.1562 401.518 47.9142 401.624 47.6483C401.815 47.0965 401.785 46.4916 401.538 45.9621C401.291 45.4326 400.847 45.0202 400.301 44.8125C400.037 44.7004 399.754 44.642 399.468 44.6409C399.181 44.6397 398.898 44.6958 398.633 44.8059C398.369 44.9159 398.129 45.0777 397.929 45.2817C397.728 45.4856 397.57 45.7277 397.464 45.9936Z" fill="#263238"/>
<path d="M400.589 39.2945C400.756 39.6636 402.774 39.0177 405.057 39.7928C407.34 40.5679 408.626 42.2533 408.971 42.0872C409.131 42.0011 409.038 41.4106 408.484 40.6355C407.727 39.6151 406.671 38.8544 405.463 38.458C404.27 38.0446 402.975 38.0273 401.771 38.4087C400.909 38.7102 400.503 39.1285 400.589 39.2945Z" fill="#263238"/>
<path d="M386.455 54.0884C386.511 53.9654 385.169 53.2396 382.966 52.1692C382.406 51.9109 381.889 51.6094 381.926 51.1727C381.963 50.736 382.388 50.1577 382.899 49.5795L386.129 45.7165C390.664 40.1803 394.16 35.5852 393.932 35.4007C393.704 35.2162 389.852 39.5467 385.317 45.0644C384.215 46.43 383.157 47.728 382.154 48.9767C381.711 49.5918 381.077 50.207 381.077 51.1666C381.093 51.4002 381.162 51.6272 381.278 51.8307C381.394 52.0341 381.555 52.2087 381.748 52.3415C382.043 52.5371 382.362 52.6962 382.696 52.8151C384.96 53.7194 386.4 54.2176 386.455 54.0884Z" fill="#263238"/>
<path d="M392.652 57.9392C392.283 57.7977 391.421 60.2767 388.726 61.3162C386.031 62.3558 383.452 61.1994 383.317 61.5377C383.231 61.6792 383.748 62.2143 384.849 62.6265C386.297 63.1346 387.878 63.1194 389.317 62.5834C390.695 62.0632 391.817 61.029 392.449 59.6984C392.892 58.7019 392.824 57.9822 392.652 57.9392Z" fill="#263238"/>
<path d="M403.845 30.0676C403.845 30.7627 406.245 31.2425 408.817 32.4666C411.389 33.6907 413.315 35.1609 413.857 34.7241C414.103 34.5088 413.924 33.7953 413.241 32.8787C412.325 31.7457 411.161 30.8369 409.84 30.2218C408.519 29.6067 407.074 29.3014 405.617 29.3294C404.509 29.4155 403.851 29.7415 403.845 30.0676Z" fill="#263238"/>
<path d="M382.018 23.5348C382.246 24.193 383.999 24.1499 385.901 24.7651C387.802 25.3802 389.285 26.2968 389.833 25.8785C390.085 25.6693 390.011 25.0665 389.476 24.3345C388.733 23.4283 387.737 22.7629 386.616 22.4224C385.494 22.0819 384.297 22.0815 383.175 22.4214C382.326 22.7597 381.926 23.2211 382.018 23.5348Z" fill="#263238"/>
<path d="M422.041 55.9338C422.337 55.9338 433.284 56.3583 429.53 66.3911C425.776 76.4239 416.442 70.6048 416.534 70.3095C416.626 70.0142 422.041 55.9338 422.041 55.9338Z" fill="#FFBF9D"/>
<path d="M421.032 67.6707C421.087 67.6707 421.161 67.8614 421.407 68.1075C421.755 68.4431 422.222 68.6287 422.705 68.6242C423.936 68.6242 425.438 67.277 426.164 65.4808C426.514 64.6278 426.667 63.707 426.613 62.7866C426.639 62.4354 426.578 62.0833 426.435 61.7614C426.292 61.4395 426.072 61.1578 425.794 60.9412C425.612 60.8071 425.388 60.7426 425.162 60.7596C424.936 60.7765 424.724 60.8736 424.564 61.0334C424.324 61.2672 424.311 61.4886 424.256 61.4886C424.201 61.4886 424.102 61.2364 424.336 60.8735C424.483 60.6488 424.699 60.4781 424.951 60.3876C425.306 60.2825 425.688 60.32 426.016 60.4921C426.395 60.7312 426.707 61.0628 426.922 61.4555C427.137 61.8483 427.249 62.2895 427.247 62.7374C427.346 63.7692 427.194 64.8097 426.804 65.77C425.979 67.7691 424.238 69.2824 422.625 69.1593C422.326 69.1354 422.035 69.0452 421.774 68.8952C421.513 68.7452 421.289 68.5392 421.118 68.292C420.958 67.9291 420.989 67.6769 421.032 67.6707Z" fill="#FF9A6C"/>
<path d="M390.277 9.4484C388.997 7.93517 395.883 4.52734 400.566 4.26898C407.642 3.85069 417.494 5.69609 422.441 9.40534C428.41 13.8651 432.687 19.3274 433.709 26.7029C434.73 34.0783 433.272 41.6568 430.41 48.5339C429.536 50.6315 428.466 52.7537 426.644 54.1132C424.398 55.7925 421.174 56.1554 420.115 59.2619C419.94 59.8292 419.654 60.3562 419.274 60.8123C418.894 61.2685 418.427 61.6447 417.9 61.9192C415.316 63.1495 413.777 60.4737 413.451 58.2284C412.756 53.455 414.306 48.6754 415.839 44.0804C416.928 40.8325 418.054 37.5169 420.146 34.7919C421.278 33.3094 422.669 32.0361 423.721 30.4859C424.774 28.9358 425.457 26.9981 424.952 25.2081C424.824 24.8134 424.657 24.4322 424.454 24.0701C423.524 22.3148 422.143 20.8383 420.454 19.792C418.765 18.7456 416.828 18.1671 414.842 18.1156C408.424 17.9495 397.612 17.2298 395.858 14.351C393.292 10.205 393.114 8.07665 393.114 8.07665L390.277 9.4484Z" fill="#263238"/>
<path d="M423.727 3.26621C424.373 3.59223 439.493 12.9299 439.394 26.549C439.296 40.168 436.804 43.502 436.804 43.502C437.311 44.1263 437.725 44.8204 438.034 45.5627C438.44 46.5962 436.12 50.1024 434.133 48.9337C420.558 36.3419 401.851 29.1079 380.511 22.483L364.413 16.7192C359.7 15.6919 358.524 13.9388 360.826 13.4651C362.592 13.096 377.213 12.3579 377.213 12.3579L380.369 11.386L390.215 4.42881C390.215 4.42881 389.834 2.85407 391.834 2.34351C393.833 1.83295 411.014 -3.19269 423.727 3.26621Z" fill="#C53F3F"/>
<path d="M380.357 11.4106C380.357 11.4106 380.573 11.4968 380.973 11.6321L382.819 12.2103C384.406 12.684 386.665 13.4836 389.446 14.5048C396.643 17.2735 403.584 20.6655 410.19 24.6421C416.792 28.6354 423.161 33.0017 429.266 37.7199C431.629 39.5099 433.505 40.9985 434.804 42.0258L436.311 43.2007C436.656 43.4652 436.847 43.5944 436.847 43.5944C436.847 43.5944 436.681 43.4345 436.342 43.1515L434.872 41.9212C433.585 40.8755 431.721 39.3623 429.376 37.5538C423.293 32.7801 416.922 28.3839 410.3 24.3899C403.674 20.3986 396.696 17.0237 389.452 14.3079C386.471 13.1906 383.436 12.2236 380.357 11.4106Z" fill="#263238"/>
<g opacity="0.3">
<path d="M436.244 15.6426C436.244 15.6426 419.555 6.71088 410.337 7.79352L411.42 7.64589L402.805 8.35944C401.347 8.48247 399.679 8.52552 398.683 7.46134C398.683 7.46134 403.907 5.24687 412.159 5.28993C420.411 5.33299 432.521 8.26102 436.244 15.6426Z" fill="black"/>
</g>
<path d="M436.465 15.7901C436.095 15.2332 435.683 14.7048 435.234 14.2092C434.032 12.8371 432.673 11.6108 431.185 10.5553C428.982 8.97775 426.558 7.73407 423.992 6.86449C420.864 5.713 417.525 5.24931 414.202 5.50505C412.496 5.67692 410.802 5.95633 409.131 6.34163C407.519 6.70456 405.95 6.95676 404.467 7.38736C403.107 7.83828 401.711 8.17167 400.295 8.38387C399.055 8.50636 397.804 8.34003 396.64 7.89792C392.277 6.46466 389.92 4.65002 390.215 4.44702C390.231 4.62375 390.312 4.78824 390.443 4.90837C390.797 5.25459 391.194 5.55431 391.624 5.80031C393.191 6.73741 394.853 7.50257 396.584 8.08245C397.774 8.54246 399.054 8.72344 400.325 8.61147C401.758 8.41135 403.17 8.08824 404.547 7.64571C405.999 7.24587 407.587 6.97522 409.199 6.61229C410.859 6.24271 412.54 5.97158 414.232 5.80031C417.516 5.55328 420.815 6.00401 423.912 7.12285C426.459 7.97474 428.871 9.18653 431.075 10.7214C432.561 11.7555 433.929 12.9499 435.154 14.283C435.591 14.7566 435.918 15.138 436.127 15.4025C436.336 15.667 436.465 15.7901 436.465 15.7901Z" fill="#263238"/>
<g opacity="0.3">
<path d="M439.198 32.1774C436.035 31.064 433.918 29.4216 431.007 27.6501C427.93 25.7678 424.786 24.0454 421.777 22.0154C419.494 20.4776 416.731 18.8537 415.716 16.4792C415.379 17.0553 415.197 17.7086 415.187 18.3758C415.177 19.043 415.34 19.7013 415.66 20.2869C416.306 21.5172 419.045 23.7132 420.214 24.5067C426.866 29.028 431.487 32.1159 438.921 35.2593C439.079 34.2412 439.169 33.2137 439.191 32.1836" fill="black"/>
</g>
<path d="M439.357 25.0421C441.068 26.5984 442.096 27.6072 441.566 29.348C441.129 30.7874 440.243 32.4237 438.754 32.1961C438.314 32.0938 437.896 31.9102 437.523 31.6548L417.143 19.7274C416.405 19.4043 415.807 18.8283 415.457 18.1034C415.051 16.947 416.072 15.6798 417.248 15.3599C418.423 15.04 419.678 15.3599 420.847 15.7659C427.481 17.9127 433.53 21.2098 439.357 25.0359" fill="#C53F3F"/>
<path d="M415.678 18.5462C415.49 18.1906 415.401 17.7914 415.419 17.3897C415.465 16.8477 415.662 16.3295 415.989 15.8944C416.315 15.4593 416.757 15.1248 417.265 14.9292C418.57 14.4863 420.299 14.7816 421.997 15.4705C423.696 16.1595 425.609 16.9407 427.535 17.8326C430.881 19.3159 434.087 21.0945 437.117 23.1474C438.273 23.9409 439.166 24.6422 439.787 25.1281L440.489 25.7002C440.568 25.7707 440.655 25.8326 440.747 25.8847C440.747 25.8847 440.679 25.7986 440.526 25.6571L439.855 25.042C439.239 24.5314 438.384 23.8117 437.233 22.9813C434.224 20.8705 431.015 19.0595 427.652 17.5743C425.696 16.6762 423.806 15.9011 422.071 15.2183C420.336 14.5355 418.557 14.2403 417.148 14.7385C416.614 14.9515 416.153 15.3135 415.819 15.7814C415.485 16.2493 415.293 16.8034 415.265 17.3774C415.257 17.6857 415.323 17.9914 415.456 18.2694C415.513 18.3739 415.588 18.4675 415.678 18.5462Z" fill="#263238"/>
<path d="M387.126 6.63721L400.977 11.0723L398.485 14.5478L383.637 9.09774L387.126 6.63721Z" fill="white"/>
<path d="M403.741 25.983C403.772 25.9092 397.944 22.9073 390.714 19.3273C383.484 15.7472 377.576 12.8499 377.576 12.9237C377.576 12.9976 383.373 15.9994 390.603 19.5795C397.834 23.1596 403.704 26.0507 403.741 25.983Z" fill="#263238"/>
<path d="M407.229 100.611L407.414 91.5194L376.289 103.078C376.289 103.078 370.536 84.3962 370.536 83.5165L363.638 87.8225L352.174 82.9014L340.71 77.2422L317.523 117.841L293.198 189.529L350.5 227.741L392.996 182.221L418.841 142.852L433.043 117.927L407.229 100.611Z" fill="#C53F3F"/>
<path d="M373.521 102.942C373.484 102.64 373.47 102.336 373.478 102.032C373.478 101.417 373.478 100.543 373.441 99.4852L373.582 99.5714C370.162 101.241 367.005 103.403 364.211 105.987L363.964 106.221V105.883C363.964 105.477 363.915 105.046 363.891 104.609C363.638 100.15 363.429 96.1143 363.275 93.1863C363.214 91.7592 363.165 90.5904 363.128 89.7231C363.128 89.3458 363.128 89.0321 363.128 88.7819C363.087 88.7743 363.051 88.7517 363.026 88.7187C363.001 88.6856 362.989 88.6445 362.993 88.6033C362.997 88.5621 363.016 88.5238 363.046 88.4959C363.077 88.4681 363.117 88.4526 363.158 88.4526C363.2 88.4526 363.24 88.4681 363.27 88.4959C363.301 88.5238 363.32 88.5621 363.324 88.6033C363.328 88.6445 363.316 88.6856 363.291 88.7187C363.266 88.7517 363.23 88.7743 363.189 88.7819C363.189 89.028 363.238 89.3417 363.275 89.7169C363.337 90.5843 363.417 91.753 363.515 93.174C363.712 96.0959 363.952 100.131 364.204 104.591C364.204 105.028 364.254 105.458 364.272 105.864L364.008 105.753C366.823 103.151 370.029 101.005 373.509 99.393L373.656 99.3315V99.4852C373.656 100.543 373.613 101.398 373.601 102.032C373.597 102.337 373.57 102.641 373.521 102.942Z" fill="#263238"/>
<path d="M404.362 101.048C404.251 101.125 404.131 101.189 404.005 101.239L402.965 101.737L399.113 103.502L386.338 109.211L380.271 111.893L380.013 112.003L380.062 111.727C380.563 108.843 380.797 105.919 380.763 102.992L380.905 103.078L378.031 104.474L377.262 104.831C377.09 104.911 376.997 104.948 376.991 104.935C377.067 104.874 377.149 104.822 377.237 104.782L377.982 104.376L380.819 102.899L380.954 102.826V102.992C381.041 105.943 380.835 108.896 380.339 111.807L380.13 111.64L386.191 108.946L399.002 103.318L402.904 101.645L403.968 101.208C404.093 101.139 404.225 101.085 404.362 101.048Z" fill="#263238"/>
<path d="M349.946 55.5527H115.558C110.607 55.5527 106.593 59.5654 106.593 64.5152V226.75C106.593 231.7 110.607 235.713 115.558 235.713H349.946C354.898 235.713 358.912 231.7 358.912 226.75V64.5152C358.912 59.5654 354.898 55.5527 349.946 55.5527Z" fill="#455A64"/>
<path d="M96.7285 224.074H370.099V228.891C370.099 231.795 368.945 234.58 366.891 236.633C364.837 238.687 362.051 239.84 359.146 239.84H107.682C104.777 239.84 101.991 238.687 99.9367 236.633C97.8825 234.58 96.7285 231.795 96.7285 228.891V224.074Z" fill="#455A64"/>
<path d="M351.436 62.7126H113.368V214.853H351.436V62.7126Z" fill="#263238"/>
<path d="M207.88 222.389L211.27 228.214H259.003L262.154 222.389H207.88Z" fill="#263238"/>
<path d="M345.005 67.8616H120.278C119.167 67.8616 118.266 68.7621 118.266 69.8731V212.35C118.266 213.461 119.167 214.362 120.278 214.362H345.005C346.116 214.362 347.017 213.461 347.017 212.35V69.8731C347.017 68.7621 346.116 67.8616 345.005 67.8616Z" fill="#EBEBEB"/>
<path d="M346.778 214.577H118.026L118.266 78.8105H346.778V214.577Z" fill="#FAFAFA"/>
<path d="M137.489 73.5205C137.471 73.8883 137.346 74.2427 137.128 74.5399C136.91 74.8371 136.61 75.0639 136.265 75.1923C135.92 75.3208 135.545 75.3451 135.186 75.2624C134.827 75.1797 134.5 74.9935 134.246 74.727C133.991 74.4604 133.821 74.1252 133.756 73.7628C133.69 73.4004 133.732 73.0268 133.877 72.6882C134.022 72.3496 134.263 72.0609 134.57 71.8578C134.878 71.6548 135.238 71.5463 135.606 71.5459C136.118 71.5588 136.603 71.7739 136.956 72.1441C137.309 72.5142 137.501 73.0092 137.489 73.5205Z" fill="#263238"/>
<path d="M126.068 73.5205C126.05 73.8883 125.925 74.2427 125.707 74.5399C125.49 74.8371 125.19 75.0639 124.844 75.1923C124.499 75.3208 124.124 75.3451 123.765 75.2624C123.406 75.1797 123.079 74.9935 122.825 74.727C122.571 74.4604 122.4 74.1252 122.335 73.7628C122.269 73.4004 122.311 73.0268 122.456 72.6882C122.601 72.3496 122.842 72.0609 123.15 71.8578C123.457 71.6548 123.817 71.5463 124.185 71.5459C124.697 71.5588 125.182 71.7739 125.535 72.1441C125.888 72.5142 126.08 73.0092 126.068 73.5205Z" fill="#263238"/>
<path d="M131.939 73.5205C131.92 73.8883 131.795 74.2427 131.577 74.5399C131.36 74.8371 131.06 75.0639 130.714 75.1923C130.369 75.3208 129.994 75.3451 129.635 75.2624C129.276 75.1797 128.949 74.9935 128.695 74.727C128.441 74.4604 128.27 74.1252 128.205 73.7628C128.139 73.4004 128.182 73.0268 128.326 72.6882C128.471 72.3496 128.712 72.0609 129.02 71.8578C129.327 71.6548 129.687 71.5463 130.056 71.5459C130.567 71.5588 131.052 71.7739 131.405 72.1441C131.758 72.5142 131.95 73.0092 131.939 73.5205Z" fill="#263238"/>
<path d="M356.746 222.389C356.746 222.487 300.749 222.561 231.676 222.561C162.602 222.561 106.593 222.487 106.593 222.389C106.593 222.29 162.59 222.21 231.676 222.21C300.761 222.21 356.746 222.29 356.746 222.389Z" fill="#263238"/>
<path d="M208.071 104.837C211.79 102.593 215.792 100.855 219.971 99.67L222.433 87.8902L242.333 87.5396L245.201 99.2271C249.418 100.268 253.478 101.865 257.274 103.976L267.335 97.3878L281.654 111.21L275.427 121.501C277.673 125.221 279.412 129.224 280.596 133.404L292.374 135.864L292.725 155.758L281.033 158.624C279.989 162.828 278.39 166.875 276.276 170.656L282.873 180.714L269.046 195.028L258.763 188.797C255.042 191.042 251.038 192.78 246.856 193.964L244.395 205.743L224.488 206.088L221.627 194.4C217.42 193.37 213.371 191.784 209.584 189.682L199.523 196.277L185.204 182.455L191.438 172.176C189.189 168.456 187.449 164.453 186.262 160.273L174.485 157.812L174.134 137.919L185.826 135.052C186.866 130.836 188.463 126.778 190.576 122.984L183.986 112.926L197.813 98.6119L208.071 104.837ZM218.679 131.343C215.746 134.38 213.78 138.219 213.029 142.373C212.278 146.527 212.776 150.811 214.461 154.682C216.145 158.553 218.94 161.838 222.492 164.121C226.044 166.405 230.193 167.584 234.416 167.51C238.638 167.436 242.744 166.112 246.213 163.706C249.683 161.299 252.361 157.919 253.909 153.991C255.456 150.063 255.804 145.765 254.908 141.639C254.012 137.514 251.912 133.747 248.875 130.814C246.856 128.868 244.474 127.338 241.864 126.312C239.254 125.287 236.467 124.785 233.663 124.836C230.859 124.886 228.093 125.489 225.522 126.609C222.951 127.728 220.626 129.343 218.679 131.362V131.343Z" fill="#E0E0E0"/>
<path d="M287.58 112.446C287.853 110.975 288.318 109.546 288.965 108.196L286.503 104.874L290.958 99.6576L294.65 101.589C295.882 100.741 297.221 100.06 298.632 99.5653L299.247 95.4624L306.084 94.9272L307.314 98.8826C308.787 99.1545 310.217 99.622 311.567 100.273L314.889 97.8122L320.108 102.272L318.175 105.963C319.027 107.195 319.71 108.535 320.206 109.949L324.304 110.564L324.84 117.404L320.883 118.634C320.613 120.107 320.145 121.537 319.492 122.885L321.954 126.213L317.499 131.423L313.806 129.492C312.574 130.343 311.233 131.026 309.819 131.521L309.204 135.624L302.367 136.16L301.136 132.198C299.664 131.928 298.233 131.463 296.884 130.814L293.555 133.275L288.349 128.766L290.281 125.075C289.431 123.842 288.748 122.502 288.251 121.089L284.153 120.474L283.617 113.633L287.574 112.403L287.58 112.446ZM296.853 114.519C296.707 116.058 297.048 117.603 297.827 118.938C298.606 120.272 299.785 121.329 301.197 121.958C302.608 122.587 304.182 122.758 305.696 122.446C307.21 122.134 308.588 121.355 309.635 120.218C310.683 119.082 311.347 117.646 311.534 116.112C311.722 114.578 311.423 113.024 310.68 111.669C309.937 110.314 308.787 109.226 307.393 108.559C305.999 107.891 304.43 107.678 302.909 107.95C301.32 108.233 299.868 109.028 298.774 110.215C297.68 111.401 297.006 112.913 296.853 114.519Z" fill="#E0E0E0"/>
<path d="M137.723 181.113C137.773 179.346 138.061 177.593 138.579 175.903L135.09 172.501L139.36 165.624L143.988 167.223C145.28 166.011 146.729 164.977 148.295 164.148L148.258 159.258L156.147 157.412L158.282 161.81C160.05 161.86 161.803 162.147 163.494 162.665L166.934 159.178L173.814 163.447L172.214 168.072C173.427 169.364 174.461 170.812 175.291 172.378L180.183 172.341L182.029 180.221L177.623 182.343C177.568 184.111 177.278 185.863 176.761 187.554L180.25 190.986L175.98 197.869L171.352 196.27C170.061 197.484 168.612 198.518 167.045 199.346L167.082 204.236L159.199 206.081L157.058 201.683C155.295 201.622 153.548 201.324 151.864 200.797L148.43 204.285L141.545 200.016L143.144 195.39C141.932 194.098 140.897 192.65 140.068 191.084L135.145 191.121L133.299 183.242L137.699 181.101L137.723 181.113ZM149.126 183.328C149.521 184.998 150.403 186.515 151.66 187.685C152.916 188.855 154.492 189.626 156.187 189.902C157.882 190.177 159.621 189.944 161.184 189.232C162.747 188.521 164.063 187.362 164.968 185.902C165.872 184.443 166.324 182.748 166.265 181.032C166.206 179.316 165.64 177.656 164.639 176.262C163.637 174.867 162.244 173.801 160.636 173.197C159.028 172.594 157.278 172.48 155.605 172.87C154.49 173.13 153.438 173.608 152.508 174.275C151.578 174.943 150.789 175.788 150.187 176.762C149.585 177.735 149.181 178.818 148.999 179.948C148.817 181.078 148.86 182.233 149.126 183.346V183.328Z" fill="#E0E0E0"/>
<path d="M151.882 115.405C152.083 114.294 152.435 113.216 152.928 112.2L151.082 109.69L154.442 105.76L157.211 107.217C158.14 106.577 159.15 106.062 160.214 105.686L160.669 102.61L165.826 102.204L166.749 105.187C167.859 105.394 168.937 105.746 169.955 106.233L172.466 104.388L176.392 107.746L174.939 110.515C175.581 111.442 176.094 112.452 176.465 113.516L179.542 113.965L179.948 119.12L176.97 120.018C176.766 121.128 176.417 122.205 175.93 123.223L177.776 125.727L174.416 129.657L171.647 128.2C170.72 128.843 169.71 129.358 168.644 129.731L168.195 132.807L163.038 133.207L162.109 130.223C160.998 130.022 159.92 129.67 158.903 129.178L156.399 131.023L152.467 127.664L153.919 124.896C153.277 123.969 152.764 122.959 152.393 121.895L149.316 121.439L148.916 116.284L151.9 115.362L151.882 115.405ZM158.866 117.908C158.953 118.999 159.362 120.039 160.04 120.898C160.718 121.757 161.635 122.396 162.676 122.734C163.717 123.072 164.835 123.094 165.888 122.797C166.942 122.5 167.884 121.898 168.595 121.067C169.307 120.236 169.756 119.212 169.886 118.126C170.016 117.04 169.821 115.939 169.326 114.964C168.831 113.988 168.058 113.181 167.104 112.644C166.15 112.107 165.059 111.865 163.968 111.948C163.241 112.003 162.532 112.201 161.881 112.531C161.231 112.861 160.653 113.315 160.179 113.869C159.705 114.423 159.345 115.065 159.12 115.758C158.894 116.451 158.808 117.182 158.866 117.908Z" fill="#EBEBEB"/>
<path d="M287.839 170.92C288.017 169.967 288.319 169.04 288.737 168.165L287.131 166.012L290.017 162.635L292.399 163.865C293.196 163.313 294.063 162.87 294.977 162.548L295.365 159.891L299.795 159.547L300.589 162.112C301.544 162.287 302.471 162.589 303.346 163.01L305.5 161.404L308.878 164.289L307.647 166.664C308.2 167.462 308.642 168.331 308.964 169.247L311.622 169.635L311.967 174.064L309.401 174.857C309.226 175.812 308.924 176.739 308.503 177.613L310.109 179.766L307.223 183.137L304.847 181.907C304.047 182.456 303.178 182.899 302.263 183.223L301.875 185.874L297.445 186.219L296.651 183.66C295.697 183.482 294.77 183.18 293.894 182.762L291.74 184.367L288.35 181.482L289.581 179.108C289.028 178.311 288.585 177.445 288.264 176.53L285.611 176.143L285.261 171.714L287.827 170.92H287.839ZM293.839 173.067C293.912 174.009 294.262 174.907 294.847 175.649C295.431 176.391 296.222 176.943 297.121 177.234C298.019 177.526 298.984 177.544 299.893 177.287C300.801 177.03 301.613 176.509 302.226 175.79C302.838 175.07 303.222 174.186 303.331 173.248C303.44 172.31 303.267 171.361 302.835 170.521C302.404 169.681 301.732 168.989 300.906 168.531C300.08 168.073 299.137 167.871 298.195 167.949C296.94 168.053 295.776 168.65 294.96 169.609C294.143 170.568 293.74 171.812 293.839 173.067Z" fill="#EBEBEB"/>
<path d="M233.417 177.595H202.815C201.017 177.59 199.251 177.114 197.694 176.213C196.137 175.313 194.844 174.019 193.944 172.463C193.044 170.906 192.568 169.14 192.564 167.342C192.561 165.544 193.03 163.777 193.924 162.216L209.234 135.71L224.537 109.204C225.44 107.645 226.737 106.35 228.298 105.45C229.859 104.55 231.63 104.076 233.432 104.076C235.235 104.076 237.005 104.55 238.566 105.45C240.128 106.35 241.425 107.645 242.327 109.204L257.637 135.71L272.947 162.216C273.841 163.777 274.31 165.545 274.306 167.344C274.302 169.142 273.826 170.908 272.925 172.465C272.025 174.022 270.731 175.315 269.173 176.216C267.615 177.116 265.848 177.591 264.049 177.595H233.417Z" fill="#C53F3F"/>
<path d="M266.375 165.256C266.375 165.256 266.454 165.409 266.608 165.729C266.871 166.37 266.971 167.066 266.9 167.755C266.83 168.444 266.59 169.104 266.202 169.678C265.898 170.132 265.507 170.52 265.051 170.822C264.522 171.159 263.917 171.358 263.292 171.401C258.073 171.456 250.541 171.444 241.225 171.468L208.501 171.505H203.824C202.99 171.496 202.179 171.229 201.503 170.74C200.828 170.25 200.32 169.564 200.052 168.774C199.767 167.985 199.713 167.132 199.898 166.314C199.947 166.111 200.015 165.908 200.083 165.698C200.15 165.489 200.261 165.311 200.353 165.126L200.969 164.05C201.756 162.604 202.556 161.153 203.356 159.682L213.276 141.481L223.257 123.291C224.861 120.351 226.44 117.466 227.995 114.636C228.389 113.935 228.752 113.228 229.17 112.533C229.586 111.822 230.18 111.233 230.893 110.822C231.592 110.422 232.377 110.194 233.182 110.158C233.986 110.122 234.788 110.278 235.521 110.613C236.247 110.942 236.881 111.445 237.367 112.077C237.787 112.715 238.167 113.379 238.505 114.064C239.225 115.381 239.939 116.679 240.634 117.958C242.037 120.517 243.393 123 244.702 125.407C247.329 130.211 249.772 134.69 252 138.774C256.455 146.949 260.055 153.568 262.547 158.151L265.402 163.422C265.722 164.038 265.968 164.48 266.135 164.8C266.301 165.12 266.381 165.274 266.381 165.274C266.381 165.274 266.282 165.12 266.11 164.813L265.347 163.453L262.436 158.206C259.926 153.636 256.283 147.041 251.803 138.885L244.474 125.53L240.388 118.093C239.687 116.814 238.979 115.516 238.253 114.2C237.914 113.535 237.538 112.89 237.127 112.268C236.673 111.677 236.081 111.207 235.404 110.896C234.714 110.58 233.959 110.433 233.202 110.467C232.444 110.501 231.705 110.716 231.047 111.093C230.38 111.483 229.825 112.038 229.435 112.705C229.029 113.375 228.66 114.095 228.272 114.796L223.534 123.451C220.321 129.332 216.986 135.415 213.577 141.653L203.615 159.842C202.809 161.313 202.015 162.77 201.221 164.21C200.788 164.888 200.447 165.62 200.206 166.387C200.03 167.154 200.079 167.955 200.347 168.694C200.59 169.427 201.057 170.065 201.682 170.518C202.307 170.972 203.058 171.218 203.83 171.222H208.507L241.231 171.253L263.292 171.284C263.896 171.249 264.482 171.062 264.996 170.743C265.444 170.452 265.831 170.075 266.135 169.635C266.608 168.939 266.861 168.116 266.861 167.273C266.853 166.573 266.687 165.883 266.375 165.256Z" fill="#263238"/>
<path d="M228.457 159.584C228.457 156.871 230.623 154.847 233.706 154.847C236.789 154.847 238.906 156.871 238.906 159.584C238.906 162.297 236.789 164.413 233.706 164.413C230.623 164.413 228.457 162.26 228.457 159.584ZM228.506 131.798H238.906L237.158 152.27H230.211L228.506 131.798Z" fill="white"/>
<path d="M234.882 106.141C234.252 105.928 233.599 105.792 232.937 105.735C231.328 105.7 229.757 106.227 228.494 107.224C227.261 108.252 226.268 109.536 225.584 110.988C225.024 112.096 224.759 112.834 224.71 112.803C224.727 112.621 224.77 112.443 224.839 112.274C224.993 111.803 225.174 111.34 225.381 110.89C226.031 109.366 227.038 108.02 228.316 106.965C229.633 105.921 231.291 105.403 232.968 105.514C233.471 105.551 233.963 105.672 234.426 105.87C234.728 106.012 234.894 106.123 234.882 106.141Z" fill="white"/>
<path d="M222.082 117.387C222.208 116.856 222.436 116.354 222.753 115.91C223.202 115.153 223.627 114.574 223.707 114.617C223.577 115.141 223.347 115.634 223.03 116.07C222.802 116.566 222.48 117.013 222.082 117.387Z" fill="white"/>
<g opacity="0.3">
<path d="M248.776 120.375L201.093 149.742L194.902 160.47L252.142 126.201L248.776 120.375Z" fill="white"/>
</g>
<g opacity="0.3">
<path d="M256.283 133.392L193.08 170.656C193.334 171.633 193.802 172.541 194.452 173.314L257.397 135.323L256.283 133.392Z" fill="white"/>
</g>
<path d="M412.478 202.889C410.076 200.242 406.961 198.343 403.508 197.418C400.054 196.493 396.407 196.581 393.002 197.673L387.113 191.214L386.295 190.297L339.694 139.186C341.004 136.152 341.482 132.824 341.079 129.545C340.677 126.265 339.407 123.152 337.402 120.525C335.397 117.898 332.729 115.852 329.671 114.598C326.613 113.343 323.276 112.925 320.003 113.387L317.726 114.291L325.646 119.6L325.221 128.243L318.815 134.056L310.17 133.631L304.521 127.406L302.189 128.323C301.518 133.533 305.013 140.102 308.822 144.316C311.221 146.959 314.329 148.857 317.777 149.783C321.225 150.709 324.866 150.624 328.267 149.538L375.649 201.505L377.102 203.123L381.594 208.044C380.189 211.318 379.754 214.926 380.342 218.44C380.93 221.954 382.516 225.225 384.91 227.863C388.701 232.046 393.735 234.839 398.971 234.697L401.31 233.787L395.655 227.556L396.079 218.944L402.485 213.131L411.1 213.549L414.411 220.691L416.749 219.774C417.47 216.825 417.458 213.744 416.713 210.801C415.969 207.858 414.515 205.141 412.478 202.889Z" fill="#E0E0E0"/>
<g opacity="0.3">
<path d="M412.478 202.889C410.076 200.242 406.961 198.343 403.508 197.418C400.054 196.493 396.407 196.581 393.002 197.673L387.113 191.214L386.295 190.297L339.694 139.186C341.004 136.152 341.482 132.824 341.079 129.545C340.677 126.265 339.407 123.152 337.402 120.525C335.397 117.898 332.729 115.852 329.671 114.598C326.613 113.343 323.276 112.925 320.003 113.387L317.726 114.291L325.646 119.6L325.221 128.243L318.815 134.056L310.17 133.631L304.521 127.406L302.189 128.323C301.518 133.533 305.013 140.102 308.822 144.316C311.221 146.959 314.329 148.857 317.777 149.783C321.225 150.709 324.866 150.624 328.267 149.538L375.649 201.505L377.102 203.123L381.594 208.044C380.189 211.318 379.754 214.926 380.342 218.44C380.93 221.954 382.516 225.225 384.91 227.863C388.701 232.046 393.735 234.839 398.971 234.697L401.31 233.787L395.655 227.556L396.079 218.944L402.485 213.131L411.1 213.549L414.411 220.691L416.749 219.774C417.47 216.825 417.458 213.744 416.713 210.801C415.969 207.858 414.515 205.141 412.478 202.889Z" fill="black"/>
</g>
<path d="M410.14 203.8C407.739 201.153 404.626 199.254 401.173 198.33C397.72 197.406 394.074 197.496 390.671 198.589L384.776 192.124L383.957 191.208L337.357 140.096C338.667 137.063 339.145 133.736 338.743 130.456C338.34 127.176 337.071 124.063 335.066 121.437C333.06 118.81 330.391 116.765 327.333 115.511C324.275 114.258 320.938 113.841 317.665 114.304L323.314 120.529L322.896 129.141L316.478 134.979L307.863 134.56L302.214 128.335C301.433 131.544 301.521 134.904 302.469 138.068C303.417 141.232 305.191 144.086 307.609 146.337C310.026 148.589 313 150.156 316.224 150.877C319.449 151.599 322.807 151.449 325.954 150.443L373.336 202.409L374.795 204.027L379.287 208.948C377.982 211.981 377.509 215.305 377.914 218.581C378.32 221.857 379.59 224.966 381.594 227.589C383.599 230.212 386.265 232.254 389.32 233.507C392.375 234.759 395.708 235.177 398.978 234.716L393.323 228.479L393.741 219.867L400.153 214.054L408.768 214.478L414.417 220.703C415.143 217.751 415.132 214.666 414.387 211.719C413.641 208.771 412.183 206.052 410.14 203.8Z" fill="#E0E0E0"/>
<path d="M410.14 203.8C410.14 203.8 410.411 204.095 410.921 204.692C411.649 205.6 412.293 206.572 412.847 207.595C414.986 211.614 415.577 216.278 414.509 220.703V220.826L414.423 220.734L408.768 214.515L408.817 214.546L400.202 214.134H400.263L393.864 219.953V219.885C393.741 222.567 393.599 225.489 393.451 228.528V228.448L399.057 234.63L399.205 234.79L398.99 234.821C395.869 235.274 392.685 234.93 389.734 233.821C386.782 232.712 384.16 230.874 382.11 228.479C379.881 225.89 378.411 222.735 377.865 219.362C377.284 215.827 377.724 212.2 379.132 208.905V209.053L325.787 150.56L325.953 150.603C322.582 151.668 318.98 151.77 315.554 150.898C310.781 149.664 306.686 146.603 304.153 142.375C301.62 138.147 300.852 133.093 302.016 128.304L302.09 128.009L302.293 128.231L307.942 134.456L307.831 134.406L316.477 134.825L316.36 134.868L322.809 129.049L322.754 129.159C322.895 126.244 323.037 123.371 323.178 120.517L323.215 120.627L317.566 114.402L317.375 114.187L317.658 114.15C321.061 113.669 324.531 114.132 327.689 115.488C330.847 116.844 333.571 119.041 335.565 121.839C337.473 124.509 338.642 127.634 338.956 130.9C339.246 134.048 338.749 137.219 337.51 140.127V139.98L390.768 198.516H390.695C393.229 197.706 395.908 197.449 398.551 197.759C401.194 198.07 403.739 198.943 406.017 200.318C407.174 201.024 408.255 201.849 409.241 202.778C409.857 203.437 410.189 203.775 410.189 203.775L409.217 202.803C408.222 201.878 407.137 201.054 405.98 200.343C403.708 198.988 401.174 198.133 398.546 197.834C395.918 197.535 393.256 197.799 390.738 198.608H390.695V198.571L337.337 140.133L337.276 140.066L337.313 139.986C338.533 137.111 339.019 133.978 338.728 130.869C338.42 127.653 337.265 124.575 335.381 121.95C333.418 119.197 330.736 117.036 327.628 115.703C324.52 114.37 321.105 113.915 317.757 114.39L317.849 114.138L323.424 120.424L323.467 120.468V120.535C323.332 123.381 323.192 126.252 323.049 129.147V129.215L323 129.258L316.594 135.071L316.545 135.114H316.477L307.862 134.689H307.794L307.751 134.64L302.096 128.415L302.373 128.347C301.6 131.528 301.688 134.856 302.626 137.992C303.564 141.127 305.32 143.957 307.713 146.19C310.106 148.424 313.05 149.981 316.243 150.703C319.437 151.424 322.765 151.283 325.886 150.295H325.978L326.052 150.369C345.423 171.64 363.588 191.552 379.36 208.887L379.421 208.954L379.384 209.041C378 212.281 377.563 215.847 378.123 219.326C378.663 222.565 380.052 225.603 382.149 228.13C384.246 230.658 386.976 232.584 390.061 233.713C392.907 234.743 395.962 235.059 398.959 234.636L398.885 234.827L393.242 228.602L393.211 228.565V228.479C393.359 225.446 393.501 222.524 393.636 219.867V219.824V219.793L400.054 213.992H400.091L408.706 214.423C410.774 216.711 412.675 218.809 414.343 220.66H414.232C415.308 216.263 414.742 211.623 412.638 207.613C412.092 206.59 411.46 205.614 410.749 204.698C410.392 204.113 410.14 203.8 410.14 203.8Z" fill="#263238"/>
<path d="M335.233 143.08C335.189 143.243 335.121 143.399 335.03 143.541C334.814 143.941 334.574 144.328 334.31 144.698C332.565 147.179 330.105 149.069 327.258 150.117C326.832 150.277 326.396 150.409 325.953 150.511C325.795 150.564 325.628 150.591 325.461 150.591C325.461 150.535 326.132 150.351 327.178 149.908C329.923 148.766 332.32 146.925 334.131 144.568C334.827 143.664 335.184 143.055 335.233 143.08Z" fill="#263238"/>
<path d="M387.274 165.28L369.576 157.037L353.756 155.063L359.565 159.984C359.565 159.984 339.11 167.113 338.753 168.719C338.396 170.324 340.366 174.642 343.972 173.843C343.972 173.843 341.947 176.303 342.79 179.016C343.633 181.729 345.498 182.239 348.944 181.606C348.944 181.606 346.605 185.106 348.439 186.89C350.273 188.674 353.128 188.225 353.128 188.225C353.128 188.225 353.165 192.487 355.417 192.857C357.669 193.226 363.946 192.789 366.29 192.069L378.197 188.378L385.914 186.65L387.274 165.28Z" fill="#FFBF9D"/>
<path d="M354.697 170.693C354.764 170.927 352.407 171.812 349.441 172.68C346.475 173.547 344.002 174.052 343.934 173.818C343.866 173.584 346.223 172.692 349.189 171.831C352.155 170.97 354.629 170.459 354.697 170.693Z" fill="#FF9A6C"/>
<path d="M357.706 179.102C357.773 179.336 355.909 180.105 353.534 180.825C351.158 181.545 349.171 181.926 349.097 181.693C349.023 181.459 350.9 180.69 353.275 179.976C355.65 179.262 357.638 178.874 357.706 179.102Z" fill="#FF9A6C"/>
<path d="M360.407 186.096C360.45 186.36 358.752 186.711 356.758 187.216C354.764 187.72 353.208 188.446 353.066 188.194C352.925 187.942 354.389 186.927 356.512 186.348C358.635 185.77 360.376 185.88 360.407 186.096Z" fill="#FF9A6C"/>
<path d="M362.641 159.276C362.709 159.516 360.389 160.359 357.515 161.349C354.641 162.34 352.297 163.096 352.198 162.869C352.1 162.641 354.328 161.509 357.232 160.513C360.137 159.516 362.579 159.043 362.641 159.276Z" fill="#FF9A6C"/>
<path d="M383.939 163.73L422.269 177.607L420.029 203.904L377.828 186.896L383.939 163.73Z" fill="#FFBF9D"/>
<path d="M433.117 117.712C433.117 117.712 438.114 122.873 441.024 132.155C443.935 141.437 457.639 180.787 457.307 193.305C456.944 206.254 448.224 215.493 429.062 210.375C417.629 207.3 404.005 202.379 404.005 202.379L413.691 170.552L421.266 172.502L409.032 149.545L433.117 117.712Z" fill="#C53F3F"/>
<path d="M424.342 132.751C424.416 132.807 419.112 140.355 412.503 149.612C405.894 158.87 400.485 166.35 400.411 166.288C400.337 166.227 405.641 158.685 412.25 149.428C418.859 140.17 424.274 132.702 424.342 132.751Z" fill="#263238"/>
<path d="M439.012 176.807C439.012 176.807 438.68 176.648 438.083 176.371C437.233 175.992 436.354 175.681 435.455 175.442C434.317 175.128 432.938 174.827 431.406 174.501L426.434 173.406C422.908 172.618 419.714 171.886 417.413 171.339L414.687 170.675C414.349 170.61 414.017 170.515 413.696 170.392C414.039 170.42 414.378 170.475 414.712 170.558L417.462 171.117C419.782 171.61 423 172.305 426.508 173.092L431.474 174.218C433 174.562 434.378 174.882 435.517 175.227C436.421 175.489 437.298 175.835 438.138 176.26C438.365 176.376 438.585 176.505 438.797 176.647C438.875 176.691 438.947 176.745 439.012 176.807Z" fill="#263238"/>
<g opacity="0.3">
<path d="M448.809 178.21C448.687 177.455 448.383 176.74 447.925 176.127C447.466 175.515 446.866 175.022 446.176 174.692C444.79 174.036 443.297 173.636 441.77 173.51C434.884 172.563 427.918 172.28 420.971 172.04L421.586 172.317C430.169 173.903 438.57 176.351 446.662 179.625C447.104 179.87 447.626 179.932 448.114 179.797C448.378 179.635 448.586 179.396 448.71 179.112C448.834 178.829 448.869 178.514 448.809 178.21Z" fill="black"/>
</g>
<g opacity="0.3">
<path d="M290.897 56.1921C284.436 55.091 276.707 56.9672 270.246 55.8661C269.286 55.7062 268.227 55.5524 267.378 56.0445C266.357 56.6289 266.006 57.9329 265.957 59.1202C265.931 60.7491 266.246 62.3654 266.882 63.8654C267.517 65.3654 268.46 66.716 269.649 67.8304C272.068 70.0417 275.09 71.4847 278.331 71.9764C280.91 72.4132 283.685 72.3271 285.98 71.0845C290.017 68.8946 291.955 60.6272 290.897 56.1921Z" fill="black"/>
</g>
<path d="M265.822 68.009C265.822 68.009 261.902 63.4139 261.336 61.2979C260.96 59.8954 261.145 55.9647 261.336 53.4734C261.379 52.6339 261.667 51.8254 262.165 51.1477C262.662 50.47 263.348 49.9527 264.136 49.6595C264.367 49.545 264.624 49.4954 264.881 49.516C265.138 49.5366 265.384 49.6266 265.594 49.7764C266.126 49.0548 266.724 48.3835 267.379 47.7711C268.917 46.1963 269.649 45.1322 273.034 46.1102C273.034 46.1102 275.526 43.4836 276.96 43.6805C277.922 43.8228 278.874 44.0282 279.809 44.2956C279.809 44.2956 285.267 44.0618 286.387 45.7965C287.023 46.5796 287.881 47.1521 288.848 47.4389C289.702 47.7401 290.487 48.2094 291.156 48.819C291.825 49.4287 292.365 50.1663 292.743 50.9882C293.38 52.4979 293.749 54.107 293.833 55.7432L288.294 55.9647C288.294 55.9647 288.688 68.7041 287.291 69.7313C285.895 70.7586 285.365 70.3895 285.365 70.3895C285.365 70.3895 284.301 73.3791 280.147 71.1707C280.147 71.1707 276.701 72.2103 275.224 70.7894C273.748 69.3684 268.345 55.7186 268.345 55.7186L268.499 62.4851C268.499 62.4851 271.348 66.871 269.951 67.8982C268.554 68.9255 265.822 68.009 265.822 68.009Z" fill="#FFBF9D"/>
<path d="M272.738 50.7422C272.869 50.9976 272.974 51.2655 273.052 51.5419L273.803 53.7563C274.418 55.6017 275.261 58.2345 276.16 61.1072C277.058 63.9799 277.809 66.6434 278.658 68.3904C278.985 69.0941 279.363 69.7726 279.79 70.4203C280.092 70.8816 280.282 71.1154 280.264 71.1338C280.246 71.1523 280.196 71.0908 280.098 70.9801C279.954 70.8258 279.818 70.6635 279.692 70.4941C279.219 69.8662 278.807 69.1947 278.461 68.4888C277.544 66.711 276.775 64.0721 275.864 61.2056C274.954 58.3391 274.16 55.7186 273.594 53.824C273.335 52.9198 273.114 52.1693 272.941 51.5788C272.848 51.3067 272.78 51.0267 272.738 50.7422Z" fill="#FF9A6C"/>
<path d="M279.55 49.1675C279.673 49.4314 279.768 49.7077 279.833 49.9918L280.491 52.2739C281.027 54.1993 281.722 56.8689 282.534 59.8216C283.347 62.7742 284.005 65.4562 284.485 67.4C284.713 68.3227 284.897 69.0978 285.045 69.7006C285.128 69.9814 285.181 70.27 285.205 70.5618C285.088 70.2951 284.994 70.0195 284.922 69.7375C284.75 69.1224 284.534 68.3719 284.27 67.4554C283.728 65.53 283.002 62.8603 282.227 59.9077C281.451 56.9551 280.756 54.2731 280.27 52.3293C280.048 51.4004 279.857 50.6315 279.716 50.0225C279.633 49.7434 279.578 49.4571 279.55 49.1675Z" fill="#FF9A6C"/>
<path d="M15.1172 274.93V276.008C15.1172 277.289 14.957 278.438 14.6367 279.453C14.3164 280.469 13.8555 281.332 13.2539 282.043C12.6523 282.754 11.9297 283.297 11.0859 283.672C10.25 284.047 9.3125 284.234 8.27344 284.234C7.26562 284.234 6.33984 284.047 5.49609 283.672C4.66016 283.297 3.93359 282.754 3.31641 282.043C2.70703 281.332 2.23438 280.469 1.89844 279.453C1.5625 278.438 1.39453 277.289 1.39453 276.008V274.93C1.39453 273.648 1.55859 272.504 1.88672 271.496C2.22266 270.48 2.69531 269.617 3.30469 268.906C3.91406 268.188 4.63672 267.641 5.47266 267.266C6.31641 266.891 7.24219 266.703 8.25 266.703C9.28906 266.703 10.2266 266.891 11.0625 267.266C11.9062 267.641 12.6289 268.188 13.2305 268.906C13.8398 269.617 14.3047 270.48 14.625 271.496C14.9531 272.504 15.1172 273.648 15.1172 274.93ZM12.8789 276.008V274.906C12.8789 273.891 12.7734 272.992 12.5625 272.211C12.3594 271.43 12.0586 270.773 11.6602 270.242C11.2617 269.711 10.7734 269.309 10.1953 269.035C9.625 268.762 8.97656 268.625 8.25 268.625C7.54688 268.625 6.91016 268.762 6.33984 269.035C5.77734 269.309 5.29297 269.711 4.88672 270.242C4.48828 270.773 4.17969 271.43 3.96094 272.211C3.74219 272.992 3.63281 273.891 3.63281 274.906V276.008C3.63281 277.031 3.74219 277.938 3.96094 278.727C4.17969 279.508 4.49219 280.168 4.89844 280.707C5.3125 281.238 5.80078 281.641 6.36328 281.914C6.93359 282.188 7.57031 282.324 8.27344 282.324C9.00781 282.324 9.66016 282.188 10.2305 281.914C10.8008 281.641 11.2812 281.238 11.6719 280.707C12.0703 280.168 12.3711 279.508 12.5742 278.727C12.7773 277.938 12.8789 277.031 12.8789 276.008ZM18.3633 271.32H20.5312V282.219H25.1719V271.32H27.3516V282.219H31.9805V271.32H34.1484V284H18.3633V271.32ZM39.9492 280.566L45.7969 271.32H47.9766V284H45.7969V274.754L39.9492 284H37.793V271.32H39.9492V280.566ZM59.5898 265.801H61.3711C61.3711 266.566 61.2539 267.176 61.0195 267.629C60.7852 268.074 60.4648 268.418 60.0586 268.66C59.6602 268.902 59.207 269.086 58.6992 269.211C58.1992 269.336 57.6797 269.457 57.1406 269.574C56.4688 269.715 55.8438 269.938 55.2656 270.242C54.6953 270.539 54.2031 270.961 53.7891 271.508C53.3828 272.055 53.082 272.766 52.8867 273.641C52.6992 274.516 52.6484 275.598 52.7344 276.887V277.965H50.9531V276.887C50.9531 275.441 51.0898 274.18 51.3633 273.102C51.6445 272.023 52.0391 271.113 52.5469 270.371C53.0547 269.629 53.6562 269.039 54.3516 268.602C55.0547 268.164 55.8281 267.863 56.6719 267.699C57.2812 267.582 57.8047 267.457 58.2422 267.324C58.6797 267.184 59.0117 266.996 59.2383 266.762C59.4727 266.527 59.5898 266.207 59.5898 265.801ZM57.0234 272.047C57.8516 272.047 58.5898 272.191 59.2383 272.48C59.8867 272.77 60.4375 273.172 60.8906 273.688C61.3438 274.203 61.6875 274.812 61.9219 275.516C62.1641 276.211 62.2852 276.969 62.2852 277.789V278.047C62.2852 278.93 62.1562 279.75 61.8984 280.508C61.6484 281.258 61.2773 281.914 60.7852 282.477C60.3008 283.031 59.707 283.465 59.0039 283.777C58.3086 284.09 57.5156 284.246 56.625 284.246C55.7344 284.246 54.9375 284.09 54.2344 283.777C53.5391 283.465 52.9453 283.031 52.4531 282.477C51.9609 281.914 51.5859 281.258 51.3281 280.508C51.0781 279.75 50.9531 278.93 50.9531 278.047V277.789C50.9531 277.594 50.9883 277.402 51.0586 277.215C51.1289 277.027 51.2148 276.836 51.3164 276.641C51.4258 276.445 51.5234 276.238 51.6094 276.02C51.8984 275.316 52.293 274.664 52.793 274.062C53.3008 273.461 53.9062 272.977 54.6094 272.609C55.3203 272.234 56.125 272.047 57.0234 272.047ZM56.6016 273.816C55.8047 273.816 55.1484 274 54.6328 274.367C54.125 274.734 53.7461 275.223 53.4961 275.832C53.2461 276.434 53.1211 277.086 53.1211 277.789V278.047C53.1211 278.641 53.1914 279.203 53.332 279.734C53.4727 280.266 53.6836 280.738 53.9648 281.152C54.2539 281.559 54.6172 281.879 55.0547 282.113C55.5 282.348 56.0234 282.465 56.625 282.465C57.2266 282.465 57.7461 282.348 58.1836 282.113C58.6211 281.879 58.9805 281.559 59.2617 281.152C59.543 280.738 59.7539 280.266 59.8945 279.734C60.0352 279.203 60.1055 278.641 60.1055 278.047V277.789C60.1055 277.258 60.0352 276.754 59.8945 276.277C59.7539 275.801 59.5391 275.379 59.25 275.012C58.9688 274.645 58.6055 274.355 58.1602 274.145C57.7227 273.926 57.2031 273.816 56.6016 273.816ZM66.8906 271.32V284H64.7227V271.32H66.8906ZM75.2109 271.32L69.1992 278.586H66.1641L65.8359 276.688H68.3203L72.5742 271.32H75.2109ZM72.8789 284L68.2148 278.258L69.6094 276.688L75.6328 284H72.8789ZM84.9961 281.832V275.305C84.9961 274.805 84.8945 274.371 84.6914 274.004C84.4961 273.629 84.1992 273.34 83.8008 273.137C83.4023 272.934 82.9102 272.832 82.3242 272.832C81.7773 272.832 81.2969 272.926 80.8828 273.113C80.4766 273.301 80.1562 273.547 79.9219 273.852C79.6953 274.156 79.582 274.484 79.582 274.836H77.4141C77.4141 274.383 77.5312 273.934 77.7656 273.488C78 273.043 78.3359 272.641 78.7734 272.281C79.2188 271.914 79.75 271.625 80.3672 271.414C80.9922 271.195 81.6875 271.086 82.4531 271.086C83.375 271.086 84.1875 271.242 84.8906 271.555C85.6016 271.867 86.1562 272.34 86.5547 272.973C86.9609 273.598 87.1641 274.383 87.1641 275.328V281.234C87.1641 281.656 87.1992 282.105 87.2695 282.582C87.3477 283.059 87.4609 283.469 87.6094 283.812V284H85.3477C85.2383 283.75 85.1523 283.418 85.0898 283.004C85.0273 282.582 84.9961 282.191 84.9961 281.832ZM85.3711 276.312L85.3945 277.836H83.2031C82.5859 277.836 82.0352 277.887 81.5508 277.988C81.0664 278.082 80.6602 278.227 80.332 278.422C80.0039 278.617 79.7539 278.863 79.582 279.16C79.4102 279.449 79.3242 279.789 79.3242 280.18C79.3242 280.578 79.4141 280.941 79.5938 281.27C79.7734 281.598 80.043 281.859 80.4023 282.055C80.7695 282.242 81.2188 282.336 81.75 282.336C82.4141 282.336 83 282.195 83.5078 281.914C84.0156 281.633 84.418 281.289 84.7148 280.883C85.0195 280.477 85.1836 280.082 85.207 279.699L86.1328 280.742C86.0781 281.07 85.9297 281.434 85.6875 281.832C85.4453 282.23 85.1211 282.613 84.7148 282.98C84.3164 283.34 83.8398 283.641 83.2852 283.883C82.7383 284.117 82.1211 284.234 81.4336 284.234C80.5742 284.234 79.8203 284.066 79.1719 283.73C78.5312 283.395 78.0312 282.945 77.6719 282.383C77.3203 281.812 77.1445 281.176 77.1445 280.473C77.1445 279.793 77.2773 279.195 77.543 278.68C77.8086 278.156 78.1914 277.723 78.6914 277.379C79.1914 277.027 79.793 276.762 80.4961 276.582C81.1992 276.402 81.9844 276.312 82.8516 276.312H85.3711ZM93.1523 266.938L93 279.184H91.043L90.8789 266.938H93.1523ZM90.8086 282.91C90.8086 282.559 90.9141 282.262 91.125 282.02C91.3438 281.777 91.6641 281.656 92.0859 281.656C92.5 281.656 92.8164 281.777 93.0352 282.02C93.2617 282.262 93.375 282.559 93.375 282.91C93.375 283.246 93.2617 283.535 93.0352 283.777C92.8164 284.02 92.5 284.141 92.0859 284.141C91.6641 284.141 91.3438 284.02 91.125 283.777C90.9141 283.535 90.8086 283.246 90.8086 282.91ZM114.188 274.273V276.113H104.953V274.273H114.188ZM105.305 266.938V284H103.043V266.938H105.305ZM116.156 266.938V284H113.906V266.938H116.156ZM125.109 284.234C124.227 284.234 123.426 284.086 122.707 283.789C121.996 283.484 121.383 283.059 120.867 282.512C120.359 281.965 119.969 281.316 119.695 280.566C119.422 279.816 119.285 278.996 119.285 278.105V277.613C119.285 276.582 119.438 275.664 119.742 274.859C120.047 274.047 120.461 273.359 120.984 272.797C121.508 272.234 122.102 271.809 122.766 271.52C123.43 271.23 124.117 271.086 124.828 271.086C125.734 271.086 126.516 271.242 127.172 271.555C127.836 271.867 128.379 272.305 128.801 272.867C129.223 273.422 129.535 274.078 129.738 274.836C129.941 275.586 130.043 276.406 130.043 277.297V278.27H120.574V276.5H127.875V276.336C127.844 275.773 127.727 275.227 127.523 274.695C127.328 274.164 127.016 273.727 126.586 273.383C126.156 273.039 125.57 272.867 124.828 272.867C124.336 272.867 123.883 272.973 123.469 273.184C123.055 273.387 122.699 273.691 122.402 274.098C122.105 274.504 121.875 275 121.711 275.586C121.547 276.172 121.465 276.848 121.465 277.613V278.105C121.465 278.707 121.547 279.273 121.711 279.805C121.883 280.328 122.129 280.789 122.449 281.188C122.777 281.586 123.172 281.898 123.633 282.125C124.102 282.352 124.633 282.465 125.227 282.465C125.992 282.465 126.641 282.309 127.172 281.996C127.703 281.684 128.168 281.266 128.566 280.742L129.879 281.785C129.605 282.199 129.258 282.594 128.836 282.969C128.414 283.344 127.895 283.648 127.277 283.883C126.668 284.117 125.945 284.234 125.109 284.234ZM142.09 282.688L145.617 271.32H147.938L142.852 285.957C142.734 286.27 142.578 286.605 142.383 286.965C142.195 287.332 141.953 287.68 141.656 288.008C141.359 288.336 141 288.602 140.578 288.805C140.164 289.016 139.668 289.121 139.09 289.121C138.918 289.121 138.699 289.098 138.434 289.051C138.168 289.004 137.98 288.965 137.871 288.934L137.859 287.176C137.922 287.184 138.02 287.191 138.152 287.199C138.293 287.215 138.391 287.223 138.445 287.223C138.938 287.223 139.355 287.156 139.699 287.023C140.043 286.898 140.332 286.684 140.566 286.379C140.809 286.082 141.016 285.672 141.188 285.148L142.09 282.688ZM139.5 271.32L142.793 281.164L143.355 283.449L141.797 284.246L137.133 271.32H139.5ZM151.523 271.32H153.691L153.504 276.066C153.457 277.27 153.32 278.309 153.094 279.184C152.867 280.059 152.578 280.805 152.227 281.422C151.875 282.031 151.48 282.543 151.043 282.957C150.613 283.371 150.168 283.719 149.707 284H148.629L148.688 282.23L149.133 282.219C149.391 281.914 149.641 281.602 149.883 281.281C150.125 280.953 150.348 280.566 150.551 280.121C150.754 279.668 150.922 279.117 151.055 278.469C151.195 277.812 151.285 277.012 151.324 276.066L151.523 271.32ZM152.062 271.32H159.691V284H157.523V273.324H152.062V271.32ZM148.137 282.219H161.32V287.738H159.152V284H150.305V287.738H148.125L148.137 282.219ZM171.199 281.832V275.305C171.199 274.805 171.098 274.371 170.895 274.004C170.699 273.629 170.402 273.34 170.004 273.137C169.605 272.934 169.113 272.832 168.527 272.832C167.98 272.832 167.5 272.926 167.086 273.113C166.68 273.301 166.359 273.547 166.125 273.852C165.898 274.156 165.785 274.484 165.785 274.836H163.617C163.617 274.383 163.734 273.934 163.969 273.488C164.203 273.043 164.539 272.641 164.977 272.281C165.422 271.914 165.953 271.625 166.57 271.414C167.195 271.195 167.891 271.086 168.656 271.086C169.578 271.086 170.391 271.242 171.094 271.555C171.805 271.867 172.359 272.34 172.758 272.973C173.164 273.598 173.367 274.383 173.367 275.328V281.234C173.367 281.656 173.402 282.105 173.473 282.582C173.551 283.059 173.664 283.469 173.812 283.812V284H171.551C171.441 283.75 171.355 283.418 171.293 283.004C171.23 282.582 171.199 282.191 171.199 281.832ZM171.574 276.312L171.598 277.836H169.406C168.789 277.836 168.238 277.887 167.754 277.988C167.27 278.082 166.863 278.227 166.535 278.422C166.207 278.617 165.957 278.863 165.785 279.16C165.613 279.449 165.527 279.789 165.527 280.18C165.527 280.578 165.617 280.941 165.797 281.27C165.977 281.598 166.246 281.859 166.605 282.055C166.973 282.242 167.422 282.336 167.953 282.336C168.617 282.336 169.203 282.195 169.711 281.914C170.219 281.633 170.621 281.289 170.918 280.883C171.223 280.477 171.387 280.082 171.41 279.699L172.336 280.742C172.281 281.07 172.133 281.434 171.891 281.832C171.648 282.23 171.324 282.613 170.918 282.98C170.52 283.34 170.043 283.641 169.488 283.883C168.941 284.117 168.324 284.234 167.637 284.234C166.777 284.234 166.023 284.066 165.375 283.73C164.734 283.395 164.234 282.945 163.875 282.383C163.523 281.812 163.348 281.176 163.348 280.473C163.348 279.793 163.48 279.195 163.746 278.68C164.012 278.156 164.395 277.723 164.895 277.379C165.395 277.027 165.996 276.762 166.699 276.582C167.402 276.402 168.188 276.312 169.055 276.312H171.574ZM185.25 271.32V273.113H179.121V271.32H185.25ZM187.16 271.32V284H184.992V271.32H187.16ZM178.594 271.32H180.773L180.445 277.438C180.391 278.383 180.301 279.219 180.176 279.945C180.059 280.664 179.895 281.281 179.684 281.797C179.48 282.312 179.223 282.734 178.91 283.062C178.605 283.383 178.238 283.621 177.809 283.777C177.379 283.926 176.883 284 176.32 284H175.641V282.09L176.109 282.055C176.445 282.031 176.73 281.953 176.965 281.82C177.207 281.688 177.41 281.492 177.574 281.234C177.738 280.969 177.871 280.629 177.973 280.215C178.082 279.801 178.164 279.309 178.219 278.738C178.281 278.168 178.328 277.504 178.359 276.746L178.594 271.32ZM190.078 277.801V277.531C190.078 276.617 190.211 275.77 190.477 274.988C190.742 274.199 191.125 273.516 191.625 272.938C192.125 272.352 192.73 271.898 193.441 271.578C194.152 271.25 194.949 271.086 195.832 271.086C196.723 271.086 197.523 271.25 198.234 271.578C198.953 271.898 199.562 272.352 200.062 272.938C200.57 273.516 200.957 274.199 201.223 274.988C201.488 275.77 201.621 276.617 201.621 277.531V277.801C201.621 278.715 201.488 279.562 201.223 280.344C200.957 281.125 200.57 281.809 200.062 282.395C199.562 282.973 198.957 283.426 198.246 283.754C197.543 284.074 196.746 284.234 195.855 284.234C194.965 284.234 194.164 284.074 193.453 283.754C192.742 283.426 192.133 282.973 191.625 282.395C191.125 281.809 190.742 281.125 190.477 280.344C190.211 279.562 190.078 278.715 190.078 277.801ZM192.246 277.531V277.801C192.246 278.434 192.32 279.031 192.469 279.594C192.617 280.148 192.84 280.641 193.137 281.07C193.441 281.5 193.82 281.84 194.273 282.09C194.727 282.332 195.254 282.453 195.855 282.453C196.449 282.453 196.969 282.332 197.414 282.09C197.867 281.84 198.242 281.5 198.539 281.07C198.836 280.641 199.059 280.148 199.207 279.594C199.363 279.031 199.441 278.434 199.441 277.801V277.531C199.441 276.906 199.363 276.316 199.207 275.762C199.059 275.199 198.832 274.703 198.527 274.273C198.23 273.836 197.855 273.492 197.402 273.242C196.957 272.992 196.434 272.867 195.832 272.867C195.238 272.867 194.715 272.992 194.262 273.242C193.816 273.492 193.441 273.836 193.137 274.273C192.84 274.703 192.617 275.199 192.469 275.762C192.32 276.316 192.246 276.906 192.246 277.531ZM209.414 282.453C209.93 282.453 210.406 282.348 210.844 282.137C211.281 281.926 211.641 281.637 211.922 281.27C212.203 280.895 212.363 280.469 212.402 279.992H214.465C214.426 280.742 214.172 281.441 213.703 282.09C213.242 282.73 212.637 283.25 211.887 283.648C211.137 284.039 210.312 284.234 209.414 284.234C208.461 284.234 207.629 284.066 206.918 283.73C206.215 283.395 205.629 282.934 205.16 282.348C204.699 281.762 204.352 281.09 204.117 280.332C203.891 279.566 203.777 278.758 203.777 277.906V277.414C203.777 276.562 203.891 275.758 204.117 275C204.352 274.234 204.699 273.559 205.16 272.973C205.629 272.387 206.215 271.926 206.918 271.59C207.629 271.254 208.461 271.086 209.414 271.086C210.406 271.086 211.273 271.289 212.016 271.695C212.758 272.094 213.34 272.641 213.762 273.336C214.191 274.023 214.426 274.805 214.465 275.68H212.402C212.363 275.156 212.215 274.684 211.957 274.262C211.707 273.84 211.363 273.504 210.926 273.254C210.496 272.996 209.992 272.867 209.414 272.867C208.75 272.867 208.191 273 207.738 273.266C207.293 273.523 206.938 273.875 206.672 274.32C206.414 274.758 206.227 275.246 206.109 275.785C206 276.316 205.945 276.859 205.945 277.414V277.906C205.945 278.461 206 279.008 206.109 279.547C206.219 280.086 206.402 280.574 206.66 281.012C206.926 281.449 207.281 281.801 207.727 282.066C208.18 282.324 208.742 282.453 209.414 282.453ZM218.684 275.68H222.492C223.516 275.68 224.379 275.859 225.082 276.219C225.785 276.57 226.316 277.059 226.676 277.684C227.043 278.301 227.227 279.004 227.227 279.793C227.227 280.379 227.125 280.93 226.922 281.445C226.719 281.953 226.414 282.398 226.008 282.781C225.609 283.164 225.113 283.465 224.52 283.684C223.934 283.895 223.258 284 222.492 284H217.102V271.32H219.27V282.219H222.492C223.117 282.219 223.617 282.105 223.992 281.879C224.367 281.652 224.637 281.359 224.801 281C224.965 280.641 225.047 280.266 225.047 279.875C225.047 279.492 224.965 279.117 224.801 278.75C224.637 278.383 224.367 278.078 223.992 277.836C223.617 277.586 223.117 277.461 222.492 277.461H218.684V275.68ZM240.621 277.941H238.289V276.605H240.445C241.047 276.605 241.523 276.531 241.875 276.383C242.227 276.227 242.477 276.012 242.625 275.738C242.773 275.465 242.848 275.145 242.848 274.777C242.848 274.449 242.762 274.141 242.59 273.852C242.426 273.555 242.16 273.316 241.793 273.137C241.426 272.949 240.934 272.855 240.316 272.855C239.816 272.855 239.363 272.945 238.957 273.125C238.551 273.297 238.227 273.535 237.984 273.84C237.75 274.137 237.633 274.473 237.633 274.848H235.465C235.465 274.074 235.684 273.41 236.121 272.855C236.566 272.293 237.156 271.859 237.891 271.555C238.633 271.25 239.441 271.098 240.316 271.098C241.051 271.098 241.707 271.18 242.285 271.344C242.871 271.5 243.367 271.734 243.773 272.047C244.18 272.352 244.488 272.734 244.699 273.195C244.918 273.648 245.027 274.176 245.027 274.777C245.027 275.207 244.926 275.613 244.723 275.996C244.52 276.379 244.227 276.719 243.844 277.016C243.461 277.305 242.996 277.531 242.449 277.695C241.91 277.859 241.301 277.941 240.621 277.941ZM238.289 277.121H240.621C241.379 277.121 242.047 277.195 242.625 277.344C243.203 277.484 243.688 277.695 244.078 277.977C244.469 278.258 244.762 278.605 244.957 279.02C245.16 279.426 245.262 279.895 245.262 280.426C245.262 281.02 245.141 281.555 244.898 282.031C244.664 282.5 244.328 282.898 243.891 283.227C243.453 283.555 242.93 283.805 242.32 283.977C241.719 284.148 241.051 284.234 240.316 284.234C239.496 284.234 238.699 284.094 237.926 283.812C237.152 283.531 236.516 283.098 236.016 282.512C235.516 281.918 235.266 281.164 235.266 280.25H237.434C237.434 280.633 237.555 280.996 237.797 281.34C238.039 281.684 238.375 281.961 238.805 282.172C239.242 282.383 239.746 282.488 240.316 282.488C240.926 282.488 241.434 282.395 241.84 282.207C242.246 282.02 242.551 281.77 242.754 281.457C242.965 281.145 243.07 280.805 243.07 280.438C243.07 279.961 242.977 279.578 242.789 279.289C242.602 279 242.312 278.789 241.922 278.656C241.539 278.516 241.047 278.445 240.445 278.445H238.289V277.121ZM255.551 281.832V275.305C255.551 274.805 255.449 274.371 255.246 274.004C255.051 273.629 254.754 273.34 254.355 273.137C253.957 272.934 253.465 272.832 252.879 272.832C252.332 272.832 251.852 272.926 251.438 273.113C251.031 273.301 250.711 273.547 250.477 273.852C250.25 274.156 250.137 274.484 250.137 274.836H247.969C247.969 274.383 248.086 273.934 248.32 273.488C248.555 273.043 248.891 272.641 249.328 272.281C249.773 271.914 250.305 271.625 250.922 271.414C251.547 271.195 252.242 271.086 253.008 271.086C253.93 271.086 254.742 271.242 255.445 271.555C256.156 271.867 256.711 272.34 257.109 272.973C257.516 273.598 257.719 274.383 257.719 275.328V281.234C257.719 281.656 257.754 282.105 257.824 282.582C257.902 283.059 258.016 283.469 258.164 283.812V284H255.902C255.793 283.75 255.707 283.418 255.645 283.004C255.582 282.582 255.551 282.191 255.551 281.832ZM255.926 276.312L255.949 277.836H253.758C253.141 277.836 252.59 277.887 252.105 277.988C251.621 278.082 251.215 278.227 250.887 278.422C250.559 278.617 250.309 278.863 250.137 279.16C249.965 279.449 249.879 279.789 249.879 280.18C249.879 280.578 249.969 280.941 250.148 281.27C250.328 281.598 250.598 281.859 250.957 282.055C251.324 282.242 251.773 282.336 252.305 282.336C252.969 282.336 253.555 282.195 254.062 281.914C254.57 281.633 254.973 281.289 255.27 280.883C255.574 280.477 255.738 280.082 255.762 279.699L256.688 280.742C256.633 281.07 256.484 281.434 256.242 281.832C256 282.23 255.676 282.613 255.27 282.98C254.871 283.34 254.395 283.641 253.84 283.883C253.293 284.117 252.676 284.234 251.988 284.234C251.129 284.234 250.375 284.066 249.727 283.73C249.086 283.395 248.586 282.945 248.227 282.383C247.875 281.812 247.699 281.176 247.699 280.473C247.699 279.793 247.832 279.195 248.098 278.68C248.363 278.156 248.746 277.723 249.246 277.379C249.746 277.027 250.348 276.762 251.051 276.582C251.754 276.402 252.539 276.312 253.406 276.312H255.926ZM269.32 271.32V273.113H263.461V284H261.293V271.32H269.32ZM273.375 273.758V288.875H271.195V271.32H273.188L273.375 273.758ZM281.918 277.555V277.801C281.918 278.723 281.809 279.578 281.59 280.367C281.371 281.148 281.051 281.828 280.629 282.406C280.215 282.984 279.703 283.434 279.094 283.754C278.484 284.074 277.785 284.234 276.996 284.234C276.191 284.234 275.48 284.102 274.863 283.836C274.246 283.57 273.723 283.184 273.293 282.676C272.863 282.168 272.52 281.559 272.262 280.848C272.012 280.137 271.84 279.336 271.746 278.445V277.133C271.84 276.195 272.016 275.355 272.273 274.613C272.531 273.871 272.871 273.238 273.293 272.715C273.723 272.184 274.242 271.781 274.852 271.508C275.461 271.227 276.164 271.086 276.961 271.086C277.758 271.086 278.465 271.242 279.082 271.555C279.699 271.859 280.219 272.297 280.641 272.867C281.062 273.438 281.379 274.121 281.59 274.918C281.809 275.707 281.918 276.586 281.918 277.555ZM279.738 277.801V277.555C279.738 276.922 279.672 276.328 279.539 275.773C279.406 275.211 279.199 274.719 278.918 274.297C278.645 273.867 278.293 273.531 277.863 273.289C277.434 273.039 276.922 272.914 276.328 272.914C275.781 272.914 275.305 273.008 274.898 273.195C274.5 273.383 274.16 273.637 273.879 273.957C273.598 274.27 273.367 274.629 273.188 275.035C273.016 275.434 272.887 275.848 272.801 276.277V279.312C272.957 279.859 273.176 280.375 273.457 280.859C273.738 281.336 274.113 281.723 274.582 282.02C275.051 282.309 275.641 282.453 276.352 282.453C276.938 282.453 277.441 282.332 277.863 282.09C278.293 281.84 278.645 281.5 278.918 281.07C279.199 280.641 279.406 280.148 279.539 279.594C279.672 279.031 279.738 278.434 279.738 277.801ZM288.105 282.688L291.633 271.32H293.953L288.867 285.957C288.75 286.27 288.594 286.605 288.398 286.965C288.211 287.332 287.969 287.68 287.672 288.008C287.375 288.336 287.016 288.602 286.594 288.805C286.18 289.016 285.684 289.121 285.105 289.121C284.934 289.121 284.715 289.098 284.449 289.051C284.184 289.004 283.996 288.965 283.887 288.934L283.875 287.176C283.938 287.184 284.035 287.191 284.168 287.199C284.309 287.215 284.406 287.223 284.461 287.223C284.953 287.223 285.371 287.156 285.715 287.023C286.059 286.898 286.348 286.684 286.582 286.379C286.824 286.082 287.031 285.672 287.203 285.148L288.105 282.688ZM285.516 271.32L288.809 281.164L289.371 283.449L287.812 284.246L283.148 271.32H285.516ZM300.645 277.941H298.312V276.605H300.469C301.07 276.605 301.547 276.531 301.898 276.383C302.25 276.227 302.5 276.012 302.648 275.738C302.797 275.465 302.871 275.145 302.871 274.777C302.871 274.449 302.785 274.141 302.613 273.852C302.449 273.555 302.184 273.316 301.816 273.137C301.449 272.949 300.957 272.855 300.34 272.855C299.84 272.855 299.387 272.945 298.98 273.125C298.574 273.297 298.25 273.535 298.008 273.84C297.773 274.137 297.656 274.473 297.656 274.848H295.488C295.488 274.074 295.707 273.41 296.145 272.855C296.59 272.293 297.18 271.859 297.914 271.555C298.656 271.25 299.465 271.098 300.34 271.098C301.074 271.098 301.73 271.18 302.309 271.344C302.895 271.5 303.391 271.734 303.797 272.047C304.203 272.352 304.512 272.734 304.723 273.195C304.941 273.648 305.051 274.176 305.051 274.777C305.051 275.207 304.949 275.613 304.746 275.996C304.543 276.379 304.25 276.719 303.867 277.016C303.484 277.305 303.02 277.531 302.473 277.695C301.934 277.859 301.324 277.941 300.645 277.941ZM298.312 277.121H300.645C301.402 277.121 302.07 277.195 302.648 277.344C303.227 277.484 303.711 277.695 304.102 277.977C304.492 278.258 304.785 278.605 304.98 279.02C305.184 279.426 305.285 279.895 305.285 280.426C305.285 281.02 305.164 281.555 304.922 282.031C304.688 282.5 304.352 282.898 303.914 283.227C303.477 283.555 302.953 283.805 302.344 283.977C301.742 284.148 301.074 284.234 300.34 284.234C299.52 284.234 298.723 284.094 297.949 283.812C297.176 283.531 296.539 283.098 296.039 282.512C295.539 281.918 295.289 281.164 295.289 280.25H297.457C297.457 280.633 297.578 280.996 297.82 281.34C298.062 281.684 298.398 281.961 298.828 282.172C299.266 282.383 299.77 282.488 300.34 282.488C300.949 282.488 301.457 282.395 301.863 282.207C302.27 282.02 302.574 281.77 302.777 281.457C302.988 281.145 303.094 280.805 303.094 280.438C303.094 279.961 303 279.578 302.812 279.289C302.625 279 302.336 278.789 301.945 278.656C301.562 278.516 301.07 278.445 300.469 278.445H298.312V277.121ZM310.441 280.566L316.289 271.32H318.469V284H316.289V274.754L310.441 284H308.285V271.32H310.441V280.566ZM327.117 271.32V284H324.938V271.32H327.117ZM331.371 271.32V273.078H320.766V271.32H331.371ZM335.285 275.68H339.094C340.117 275.68 340.98 275.859 341.684 276.219C342.387 276.57 342.918 277.059 343.277 277.684C343.645 278.301 343.828 279.004 343.828 279.793C343.828 280.379 343.727 280.93 343.523 281.445C343.32 281.953 343.016 282.398 342.609 282.781C342.211 283.164 341.715 283.465 341.121 283.684C340.535 283.895 339.859 284 339.094 284H333.703V271.32H335.871V282.219H339.094C339.719 282.219 340.219 282.105 340.594 281.879C340.969 281.652 341.238 281.359 341.402 281C341.566 280.641 341.648 280.266 341.648 279.875C341.648 279.492 341.566 279.117 341.402 278.75C341.238 278.383 340.969 278.078 340.594 277.836C340.219 277.586 339.719 277.461 339.094 277.461H335.285V275.68ZM354.832 280.566L360.68 271.32H362.859V284H360.68V274.754L354.832 284H352.676V271.32H354.832V280.566ZM374.941 276.816V278.574H368.238V276.816H374.941ZM368.695 271.32V284H366.527V271.32H368.695ZM376.699 271.32V284H374.52V271.32H376.699ZM394.77 277.883V278.129C394.77 279.02 394.672 279.84 394.477 280.59C394.281 281.332 393.988 281.977 393.598 282.523C393.215 283.07 392.738 283.496 392.168 283.801C391.598 284.098 390.938 284.246 390.188 284.246C389.57 284.246 389.027 284.164 388.559 284C388.09 283.828 387.691 283.582 387.363 283.262C387.043 282.941 386.785 282.559 386.59 282.113C386.402 281.66 386.273 281.152 386.203 280.59V274.965C386.273 274.363 386.402 273.824 386.59 273.348C386.785 272.871 387.043 272.465 387.363 272.129C387.691 271.793 388.086 271.535 388.547 271.355C389.008 271.176 389.547 271.086 390.164 271.086C390.773 271.086 391.32 271.195 391.805 271.414C392.297 271.625 392.727 271.93 393.094 272.328C393.469 272.727 393.777 273.207 394.02 273.77C394.27 274.324 394.457 274.949 394.582 275.645C394.707 276.34 394.77 277.086 394.77 277.883ZM392.602 278.129V277.883C392.602 277.336 392.562 276.816 392.484 276.324C392.414 275.824 392.301 275.367 392.145 274.953C391.996 274.531 391.801 274.164 391.559 273.852C391.316 273.539 391.023 273.297 390.68 273.125C390.344 272.953 389.957 272.867 389.52 272.867C389.051 272.867 388.66 272.926 388.348 273.043C388.043 273.16 387.805 273.316 387.633 273.512C387.461 273.699 387.336 273.898 387.258 274.109V281.457C387.352 281.629 387.488 281.793 387.668 281.949C387.848 282.098 388.09 282.223 388.395 282.324C388.699 282.418 389.082 282.465 389.543 282.465C390.09 282.465 390.555 282.355 390.938 282.137C391.328 281.91 391.645 281.598 391.887 281.199C392.137 280.801 392.316 280.34 392.426 279.816C392.543 279.293 392.602 278.73 392.602 278.129ZM379.711 278.129V277.883C379.711 277.086 379.773 276.34 379.898 275.645C380.023 274.949 380.211 274.324 380.461 273.77C380.711 273.207 381.02 272.727 381.387 272.328C381.762 271.93 382.191 271.625 382.676 271.414C383.168 271.195 383.719 271.086 384.328 271.086C384.93 271.086 385.453 271.176 385.898 271.355C386.352 271.535 386.734 271.793 387.047 272.129C387.359 272.465 387.609 272.871 387.797 273.348C387.984 273.824 388.117 274.363 388.195 274.965V280.367C388.125 280.961 387.996 281.496 387.809 281.973C387.621 282.449 387.371 282.859 387.059 283.203C386.746 283.539 386.359 283.797 385.898 283.977C385.445 284.156 384.914 284.246 384.305 284.246C383.555 284.246 382.895 284.098 382.324 283.801C381.754 283.496 381.273 283.07 380.883 282.523C380.5 281.977 380.207 281.332 380.004 280.59C379.809 279.84 379.711 279.02 379.711 278.129ZM381.891 277.883V278.129C381.891 278.73 381.941 279.293 382.043 279.816C382.152 280.34 382.32 280.801 382.547 281.199C382.781 281.598 383.086 281.91 383.461 282.137C383.836 282.355 384.297 282.465 384.844 282.465C385.312 282.465 385.699 282.406 386.004 282.289C386.309 282.172 386.551 282.02 386.73 281.832C386.91 281.645 387.047 281.449 387.141 281.246V274.109C387.062 273.898 386.934 273.699 386.754 273.512C386.582 273.316 386.344 273.16 386.039 273.043C385.734 272.926 385.344 272.867 384.867 272.867C384.32 272.867 383.855 273 383.473 273.266C383.09 273.531 382.781 273.895 382.547 274.355C382.32 274.816 382.152 275.352 382.043 275.961C381.941 276.562 381.891 277.203 381.891 277.883ZM386.062 288.875V266H388.242V288.875H386.062ZM397.031 277.801V277.531C397.031 276.617 397.164 275.77 397.43 274.988C397.695 274.199 398.078 273.516 398.578 272.938C399.078 272.352 399.684 271.898 400.395 271.578C401.105 271.25 401.902 271.086 402.785 271.086C403.676 271.086 404.477 271.25 405.188 271.578C405.906 271.898 406.516 272.352 407.016 272.938C407.523 273.516 407.91 274.199 408.176 274.988C408.441 275.77 408.574 276.617 408.574 277.531V277.801C408.574 278.715 408.441 279.562 408.176 280.344C407.91 281.125 407.523 281.809 407.016 282.395C406.516 282.973 405.91 283.426 405.199 283.754C404.496 284.074 403.699 284.234 402.809 284.234C401.918 284.234 401.117 284.074 400.406 283.754C399.695 283.426 399.086 282.973 398.578 282.395C398.078 281.809 397.695 281.125 397.43 280.344C397.164 279.562 397.031 278.715 397.031 277.801ZM399.199 277.531V277.801C399.199 278.434 399.273 279.031 399.422 279.594C399.57 280.148 399.793 280.641 400.09 281.07C400.395 281.5 400.773 281.84 401.227 282.09C401.68 282.332 402.207 282.453 402.809 282.453C403.402 282.453 403.922 282.332 404.367 282.09C404.82 281.84 405.195 281.5 405.492 281.07C405.789 280.641 406.012 280.148 406.16 279.594C406.316 279.031 406.395 278.434 406.395 277.801V277.531C406.395 276.906 406.316 276.316 406.16 275.762C406.012 275.199 405.785 274.703 405.48 274.273C405.184 273.836 404.809 273.492 404.355 273.242C403.91 272.992 403.387 272.867 402.785 272.867C402.191 272.867 401.668 272.992 401.215 273.242C400.77 273.492 400.395 273.836 400.09 274.273C399.793 274.703 399.57 275.199 399.422 275.762C399.273 276.316 399.199 276.906 399.199 277.531ZM413.461 273.758V288.875H411.281V271.32H413.273L413.461 273.758ZM422.004 277.555V277.801C422.004 278.723 421.895 279.578 421.676 280.367C421.457 281.148 421.137 281.828 420.715 282.406C420.301 282.984 419.789 283.434 419.18 283.754C418.57 284.074 417.871 284.234 417.082 284.234C416.277 284.234 415.566 284.102 414.949 283.836C414.332 283.57 413.809 283.184 413.379 282.676C412.949 282.168 412.605 281.559 412.348 280.848C412.098 280.137 411.926 279.336 411.832 278.445V277.133C411.926 276.195 412.102 275.355 412.359 274.613C412.617 273.871 412.957 273.238 413.379 272.715C413.809 272.184 414.328 271.781 414.938 271.508C415.547 271.227 416.25 271.086 417.047 271.086C417.844 271.086 418.551 271.242 419.168 271.555C419.785 271.859 420.305 272.297 420.727 272.867C421.148 273.438 421.465 274.121 421.676 274.918C421.895 275.707 422.004 276.586 422.004 277.555ZM419.824 277.801V277.555C419.824 276.922 419.758 276.328 419.625 275.773C419.492 275.211 419.285 274.719 419.004 274.297C418.73 273.867 418.379 273.531 417.949 273.289C417.52 273.039 417.008 272.914 416.414 272.914C415.867 272.914 415.391 273.008 414.984 273.195C414.586 273.383 414.246 273.637 413.965 273.957C413.684 274.27 413.453 274.629 413.273 275.035C413.102 275.434 412.973 275.848 412.887 276.277V279.312C413.043 279.859 413.262 280.375 413.543 280.859C413.824 281.336 414.199 281.723 414.668 282.02C415.137 282.309 415.727 282.453 416.438 282.453C417.023 282.453 417.527 282.332 417.949 282.09C418.379 281.84 418.73 281.5 419.004 281.07C419.285 280.641 419.492 280.148 419.625 279.594C419.758 279.031 419.824 278.434 419.824 277.801ZM432.059 281.117L436.371 271.32H438.457L432.809 284H431.309L425.684 271.32H427.77L432.059 281.117ZM427.137 271.32V284H424.969V271.32H427.137ZM436.91 284V271.32H439.09V284H436.91ZM450.059 281.832V275.305C450.059 274.805 449.957 274.371 449.754 274.004C449.559 273.629 449.262 273.34 448.863 273.137C448.465 272.934 447.973 272.832 447.387 272.832C446.84 272.832 446.359 272.926 445.945 273.113C445.539 273.301 445.219 273.547 444.984 273.852C444.758 274.156 444.645 274.484 444.645 274.836H442.477C442.477 274.383 442.594 273.934 442.828 273.488C443.062 273.043 443.398 272.641 443.836 272.281C444.281 271.914 444.812 271.625 445.43 271.414C446.055 271.195 446.75 271.086 447.516 271.086C448.438 271.086 449.25 271.242 449.953 271.555C450.664 271.867 451.219 272.34 451.617 272.973C452.023 273.598 452.227 274.383 452.227 275.328V281.234C452.227 281.656 452.262 282.105 452.332 282.582C452.41 283.059 452.523 283.469 452.672 283.812V284H450.41C450.301 283.75 450.215 283.418 450.152 283.004C450.09 282.582 450.059 282.191 450.059 281.832ZM450.434 276.312L450.457 277.836H448.266C447.648 277.836 447.098 277.887 446.613 277.988C446.129 278.082 445.723 278.227 445.395 278.422C445.066 278.617 444.816 278.863 444.645 279.16C444.473 279.449 444.387 279.789 444.387 280.18C444.387 280.578 444.477 280.941 444.656 281.27C444.836 281.598 445.105 281.859 445.465 282.055C445.832 282.242 446.281 282.336 446.812 282.336C447.477 282.336 448.062 282.195 448.57 281.914C449.078 281.633 449.48 281.289 449.777 280.883C450.082 280.477 450.246 280.082 450.27 279.699L451.195 280.742C451.141 281.07 450.992 281.434 450.75 281.832C450.508 282.23 450.184 282.613 449.777 282.98C449.379 283.34 448.902 283.641 448.348 283.883C447.801 284.117 447.184 284.234 446.496 284.234C445.637 284.234 444.883 284.066 444.234 283.73C443.594 283.395 443.094 282.945 442.734 282.383C442.383 281.812 442.207 281.176 442.207 280.473C442.207 279.793 442.34 279.195 442.605 278.68C442.871 278.156 443.254 277.723 443.754 277.379C444.254 277.027 444.855 276.762 445.559 276.582C446.262 276.402 447.047 276.312 447.914 276.312H450.434ZM455.824 284V271.32H457.992V282.219H463.828V271.32H466.008V284H455.824ZM467.508 282.219L467.297 287.762H465.363V284H463.711V282.219H467.508ZM472.207 280.566L478.055 271.32H480.234V284H478.055V274.754L472.207 284H470.051V271.32H472.207V280.566ZM490.934 276.699V278.469H484.195V276.699H490.934ZM486.082 271.32V284H483.914V271.32H486.082ZM489.082 277.801V277.531C489.082 276.617 489.215 275.77 489.48 274.988C489.746 274.199 490.129 273.516 490.629 272.938C491.137 272.352 491.742 271.898 492.445 271.578C493.156 271.25 493.953 271.086 494.836 271.086C495.734 271.086 496.539 271.25 497.25 271.578C497.961 271.898 498.566 272.352 499.066 272.938C499.574 273.516 499.961 274.199 500.227 274.988C500.492 275.77 500.625 276.617 500.625 277.531V277.801C500.625 278.715 500.492 279.562 500.227 280.344C499.961 281.125 499.578 281.809 499.078 282.395C498.578 282.973 497.973 283.426 497.262 283.754C496.551 284.074 495.75 284.234 494.859 284.234C493.969 284.234 493.168 284.074 492.457 283.754C491.746 283.426 491.137 282.973 490.629 282.395C490.129 281.809 489.746 281.125 489.48 280.344C489.215 279.562 489.082 278.715 489.082 277.801ZM491.262 277.531V277.801C491.262 278.434 491.336 279.031 491.484 279.594C491.633 280.148 491.855 280.641 492.152 281.07C492.457 281.5 492.832 281.84 493.277 282.09C493.73 282.332 494.258 282.453 494.859 282.453C495.461 282.453 495.984 282.332 496.43 282.09C496.883 281.84 497.258 281.5 497.555 281.07C497.852 280.641 498.074 280.148 498.223 279.594C498.379 279.031 498.457 278.434 498.457 277.801V277.531C498.457 276.906 498.379 276.316 498.223 275.762C498.074 275.199 497.848 274.703 497.543 274.273C497.246 273.836 496.871 273.492 496.418 273.242C495.965 272.992 495.438 272.867 494.836 272.867C494.242 272.867 493.723 272.992 493.277 273.242C492.832 273.492 492.457 273.836 492.152 274.273C491.855 274.703 491.633 275.199 491.484 275.762C491.336 276.316 491.262 276.906 491.262 277.531Z" fill="#D32F2F"/>
</svg>
