<svg width="262" height="272" viewBox="0 0 262 272" fill="none" xmlns="http://www.w3.org/2000/svg">
<path opacity="0.2" d="M162.954 194.633C162.954 194.633 83.6637 229.78 83.6637 263.081H242.266C242.256 229.78 162.954 194.633 162.954 194.633Z" fill="#407BFF"/>
<path opacity="0.2" d="M162.954 236.569C162.954 236.569 89.7381 250.185 89.7381 263.081H236.17C236.17 250.185 162.954 236.569 162.954 236.569Z" fill="#407BFF"/>
<path opacity="0.3" d="M172.578 204.337C187.468 215.329 216.404 239.687 216.404 263.081H196.563C196.563 239.687 180.724 215.329 172.578 204.337Z" fill="white"/>
<path opacity="0.2" d="M162.954 194.633C162.954 194.633 83.6637 159.485 83.6637 126.184H242.266C242.256 159.485 162.954 194.633 162.954 194.633Z" fill="#407BFF"/>
<path opacity="0.2" d="M162.954 191.425C162.954 191.425 122.473 176.844 122.473 162.992H203.446C203.446 176.82 162.954 191.425 162.954 191.425Z" fill="#407BFF"/>
<path opacity="0.3" d="M154.312 184.928C139.434 173.936 110.529 149.578 110.529 126.184H130.371C130.327 149.578 146.134 173.936 154.312 184.928Z" fill="white"/>
<path opacity="0.3" d="M172.578 184.928C187.468 173.936 215.682 146.759 216.404 126.184H211.118C208.636 151.271 184.36 174.292 172.578 184.928Z" fill="white"/>
<path d="M231.488 114.43H222.5V115.24H231.488V114.43Z" fill="#407BFF"/>
<path d="M262 125.56H260.921C260.918 122.825 259.471 120.203 256.896 118.268C254.321 116.333 250.829 115.244 247.186 115.24H237.702V114.43H247.186C251.114 114.436 254.879 115.611 257.656 117.698C260.432 119.784 261.994 122.611 262 125.56Z" fill="#407BFF"/>
<path d="M247.175 117.265H78.733C72.6312 117.265 67.6848 120.979 67.6848 125.56V126.808C67.6848 131.389 72.6312 135.102 78.733 135.102H247.175C253.277 135.102 258.224 131.389 258.224 126.808V125.56C258.224 120.979 253.277 117.265 247.175 117.265Z" fill="#407BFF"/>
<path d="M247.175 254.163H78.733C72.6312 254.163 67.6848 257.877 67.6848 262.458V263.705C67.6848 268.286 72.6312 272 78.733 272H247.175C253.277 272 258.224 268.286 258.224 263.705V262.458C258.224 257.877 253.277 254.163 247.175 254.163Z" fill="#407BFF"/>
<path d="M23.9119 181.502L16.5967 176.625L29.0692 162.247L36.3843 167.115L23.9119 181.502Z" fill="#FF8B7B"/>
<path d="M18.1072 173.531L27.4076 178.391C27.487 178.429 27.5558 178.477 27.6102 178.534C27.6646 178.591 27.7034 178.656 27.7244 178.725C27.7454 178.793 27.7483 178.864 27.7328 178.933C27.7174 179.003 27.6838 179.069 27.6342 179.128L22.9732 184.896C22.7048 185.186 22.2952 185.385 21.8329 185.45C21.3706 185.515 20.8927 185.441 20.5025 185.244C17.2657 183.519 16.0681 182.676 12.1947 180.327C8.36634 178.068 4.69325 175.665 1.18962 173.126C-1.68033 170.89 1.35146 168.727 2.87275 169.497C6.46559 171.328 12.7126 173.345 16.327 173.183C16.9557 173.145 17.5828 173.268 18.1072 173.531Z" fill="#263238"/>
<path opacity="0.2" d="M36.3735 167.124L29.0584 162.247L23.0595 169.173L30.5581 173.847L36.3735 167.124Z" fill="black"/>
<path d="M110.798 95.2969C110.798 95.2969 61.7068 92.7776 55.6216 105.269C41.7789 133.669 23.7716 163.794 23.7716 163.794L38.2401 171.66C38.2401 171.66 68.8277 136.544 78.1605 114.001C97.0417 117.444 131.179 120.384 142.173 110.906C151.56 102.806 144.536 95.2969 144.536 95.2969H110.798Z" fill="#263238"/>
<path opacity="0.3" d="M68.7522 117.371C67.6085 120.838 65.8714 130.769 64.7925 137.354C67.1769 133.887 69.4427 130.372 71.4819 126.937L68.7522 117.371Z" fill="black"/>
<path d="M37.3122 175.216L20.9016 165.56L24.2571 160.149L42.5989 170.672L37.3122 175.216Z" fill="#407BFF"/>
<path d="M14.1691 173.086C14.9299 173.458 15.7398 173.77 16.5859 174.017C16.628 174.028 16.6734 174.03 16.7169 174.022C16.7603 174.015 16.8001 173.998 16.8317 173.975C16.8632 173.951 16.8852 173.921 16.8952 173.889C16.9051 173.856 16.9027 173.822 16.888 173.79C16.7478 173.515 15.5178 171.093 14.2339 170.858C14.0866 170.833 13.9332 170.836 13.788 170.867C13.6427 170.898 13.5103 170.956 13.4031 171.036C13.2226 171.143 13.0828 171.284 12.9976 171.445C12.9124 171.606 12.8848 171.78 12.9176 171.951C13.1359 172.432 13.5812 172.835 14.1691 173.086ZM16.2515 173.531C14.5575 172.98 13.5002 172.373 13.3815 171.911C13.3629 171.798 13.3852 171.684 13.446 171.58C13.5067 171.476 13.6037 171.386 13.7268 171.32C13.7767 171.279 13.84 171.25 13.9102 171.234C13.9804 171.219 14.0549 171.217 14.126 171.231C14.8165 171.36 15.712 172.567 16.2515 173.531Z" fill="#407BFF"/>
<path d="M16.532 173.993C16.5672 174 16.6046 174 16.6399 173.993C16.6802 173.996 16.7209 173.992 16.7585 173.98C16.7961 173.969 16.8295 173.951 16.8557 173.928C16.9312 173.863 18.7654 172.17 18.4956 171.125C18.4601 170.992 18.3842 170.866 18.2739 170.758C18.1635 170.65 18.0216 170.562 17.8591 170.501C17.6933 170.423 17.4981 170.388 17.3033 170.402C17.1084 170.415 16.9247 170.475 16.7801 170.574C15.9602 171.149 15.9925 173.094 16.478 173.896C16.4852 173.931 16.5037 173.964 16.532 173.993ZM17.7296 170.89C17.8076 170.929 17.8746 170.979 17.9264 171.037C17.9783 171.096 18.0141 171.162 18.0317 171.23C18.1935 171.846 17.3196 172.907 16.7478 173.491C16.4457 172.68 16.5428 171.239 17.0715 170.866C17.1793 170.793 17.3304 170.72 17.6433 170.866L17.7296 170.89Z" fill="#407BFF"/>
<path d="M88.4103 189.999L78.9697 191.417L77.2218 172.437L86.8135 172.664L88.4103 189.999Z" fill="#FF8B7B"/>
<path d="M77.6857 188.825L88.475 185.414C88.5633 185.382 88.6594 185.363 88.7576 185.359C88.8558 185.354 88.9542 185.365 89.0468 185.39C89.1394 185.415 89.2244 185.454 89.2967 185.504C89.369 185.554 89.4271 185.614 89.4676 185.682L93.5891 191.903C93.7777 192.239 93.7827 192.618 93.6031 192.957C93.4236 193.297 93.0737 193.57 92.6289 193.717C88.8526 194.859 86.9753 195.256 82.2388 196.763C79.3257 197.686 71.4495 200.36 67.2417 201.145C63.0339 201.931 62.0844 198.764 63.7891 198.148C67.8243 196.69 74.5136 192.243 76.3155 189.789C76.6224 189.365 77.1029 189.027 77.6857 188.825Z" fill="#263238"/>
<path d="M74.9992 191.158C75.8492 190.866 76.6557 190.507 77.4052 190.088C77.4424 190.067 77.471 190.038 77.4881 190.005C77.5052 189.972 77.5101 189.937 77.5023 189.902C77.4897 189.868 77.4649 189.837 77.4307 189.813C77.3965 189.789 77.3541 189.772 77.3081 189.764C76.9197 189.699 73.424 189.173 72.4421 189.886C72.3303 189.967 72.2485 190.069 72.205 190.181C72.1615 190.293 72.1577 190.412 72.194 190.526C72.2182 190.701 72.3038 190.868 72.4421 191.011C72.5805 191.153 72.7666 191.265 72.9816 191.336C73.6603 191.466 74.3793 191.403 74.9992 191.158ZM76.65 190.04C75.0855 190.85 73.8016 191.198 73.165 191.012C73.023 190.963 72.9016 190.886 72.8141 190.789C72.7266 190.691 72.6763 190.578 72.6687 190.461C72.6479 190.406 72.6469 190.348 72.6659 190.292C72.6848 190.237 72.723 190.186 72.7766 190.145C73.3053 189.764 75.2474 189.861 76.65 190.04Z" fill="#407BFF"/>
<path d="M77.3513 190.113C77.388 190.098 77.421 190.079 77.4484 190.056C77.4664 190.03 77.4758 190 77.4758 189.971C77.4758 189.941 77.4664 189.912 77.4484 189.886C77.4484 189.797 76.4558 187.658 75.0963 187.261C74.9215 187.209 74.7327 187.188 74.5452 187.201C74.3578 187.214 74.1769 187.259 74.0174 187.334C73.8281 187.398 73.6735 187.508 73.5792 187.646C73.485 187.785 73.4569 187.943 73.4995 188.096C73.7153 188.906 75.9918 189.999 77.1894 190.121C77.2427 190.134 77.3008 190.131 77.3513 190.113ZM74.4058 187.61C74.4946 187.581 74.59 187.567 74.6863 187.567C74.7827 187.567 74.878 187.581 74.9668 187.61C75.776 187.844 76.5205 189.003 76.8873 189.7C75.8084 189.432 74.1576 188.598 74.0174 188.031C74.0174 187.925 74.0174 187.788 74.3087 187.658L74.4058 187.61Z" fill="#407BFF"/>
<path opacity="0.2" d="M86.8243 172.672L77.2218 172.437L78.1389 182.352L87.6982 182.223L86.8243 172.672Z" fill="black"/>
<path d="M134.642 95.2969C134.642 95.2969 64.512 100.279 67.0367 116.131C70.7266 138.999 73.424 179.039 73.424 179.039L91.3018 179.566C91.3018 179.566 98.0128 144.361 94.0854 120.943C112.244 120.943 151.689 121.664 158.627 114.616C166.859 106.257 163.051 95.2969 163.051 95.2969H134.642Z" fill="#263238"/>
<path d="M93.2763 180.392L71.8164 179.59L71.0503 172.583L94.5818 173.798L93.2763 180.392Z" fill="#407BFF"/>
<path d="M119.073 48.8732C118.922 50.3232 118.75 51.6111 118.512 52.9639C118.275 54.3167 118.048 55.6371 117.768 56.9736C117.25 59.6387 116.538 62.2875 115.74 64.9526C114.941 67.6176 113.959 70.2746 112.729 72.9558C111.481 75.7765 109.843 78.4914 107.842 81.0563C106.647 82.5653 105.197 83.9513 103.526 85.1794C103.084 85.4899 102.619 85.7819 102.134 86.0543C101.692 86.3297 101.25 86.5646 100.796 86.7995C99.9337 87.2564 99.0367 87.6756 98.1099 88.0551C94.6884 89.4526 91.0695 90.5584 87.3206 91.352C85.5403 91.7651 83.7493 92.0972 81.9259 92.3969C80.1025 92.6966 78.3654 92.9558 76.5313 93.1665C72.9608 93.6051 69.3574 93.8756 65.742 93.9765C64.8506 94.0048 63.9758 93.7897 63.2795 93.371C62.5831 92.9523 62.1124 92.3584 61.9544 91.6992C61.7964 91.0399 61.9619 90.3601 62.4202 89.7854C62.8786 89.2108 63.5986 88.7802 64.4472 88.5735L64.5875 88.533C70.9145 87.0303 77.1214 85.2561 83.1775 83.2191C85.9621 82.2729 88.6271 81.1396 91.14 79.8331C91.7118 79.5253 92.2189 79.2094 92.7368 78.8935C92.9741 78.7396 93.2223 78.5857 93.4273 78.4236C93.6185 78.2946 93.7987 78.1566 93.9668 78.0105C94.6831 77.3603 95.2984 76.651 95.801 75.8963C97.1101 73.8999 98.1615 71.814 98.9406 69.6671C99.8146 67.3908 100.57 65.0174 101.196 62.6035C101.821 60.1895 102.382 57.7432 102.911 55.2644C103.44 52.7857 103.839 50.2584 104.206 47.9092V47.7715C104.476 46.351 105.466 45.0638 106.971 44.1785C108.475 43.2933 110.376 42.8784 112.278 43.0206C114.18 43.1627 115.935 43.8509 117.177 44.9414C118.419 46.032 119.052 47.4406 118.944 48.8732H119.073Z" fill="#407BFF"/>
<path d="M66.098 87.1154L60.7034 87.3665L65.0191 94.8189C65.0191 94.8189 74.3518 94.665 74.1576 91.2142L72.4745 89.5941C71.7042 88.867 70.738 88.2703 69.6391 87.8431C68.5402 87.4159 67.3335 87.1679 66.098 87.1154Z" fill="#FF8B7B"/>
<path d="M54.7908 87.9821L59.4518 94.8351H65.0083L60.6926 87.3827L54.7908 87.9821Z" fill="#FF8B7B"/>
<path d="M118.297 37.3868L128.73 35.7667L137.038 34.8675C138.225 34.7218 139.431 34.6811 140.63 34.746C143.819 34.9631 146.843 35.9053 149.299 37.4468C151.755 38.9883 153.526 41.0558 154.376 43.373C156.458 49.0433 158.336 56.0016 159.771 62.166C161.778 70.7282 162.813 83.5917 163.008 95.2888H113.582C112.503 74.1061 106.504 60.4568 104.465 51.9919C103.851 49.4363 104.372 46.8 105.949 44.4889C107.527 42.1777 110.072 40.3199 113.193 39.2013L118.297 37.3868Z" fill="#407BFF"/>
<path d="M113.582 42.0445C113.7 45.5277 114.661 57.9457 119.635 65.0011C120.508 58.3912 130.963 38.2697 130.963 38.2697L113.582 42.0445Z" fill="#F5F5F5"/>
<path opacity="0.3" d="M160.904 67.9822C160.904 67.8526 160.904 67.731 160.839 67.5933L160.742 67.0101C160.688 66.6942 160.634 66.3783 160.58 66.0786L160.418 65.2118L160.256 64.4018C160.256 64.175 160.159 63.94 160.116 63.7213C160.008 63.2029 159.9 62.7007 159.781 62.2065C159.425 60.6918 159.048 59.1203 158.638 57.5407V57.4111C158.228 55.791 157.807 54.2276 157.354 52.648V52.5427C157.17 51.8623 156.976 51.198 156.771 50.5257L156.545 49.7805L156.156 48.4925L155.833 47.488L155.768 47.2774C155.336 45.9489 154.894 44.6448 154.441 43.4135L146.942 40.4487C147.805 42.9356 148.625 45.6735 149.402 48.4763C148.505 48.8289 147.677 49.2732 146.942 49.7966C145.151 50.9955 145.216 53.5472 147.007 56.5686C151.965 65.2084 154.71 74.4722 155.099 83.8752C155.325 87.6906 155.466 91.5545 155.53 95.305H163.083C162.867 86.0138 162.177 76.0016 160.904 67.9822Z" fill="black"/>
<path d="M124.846 21.7771L120.606 26.6374L114.844 33.2392C115.586 33.8064 116.188 34.4672 116.624 35.1914C117.703 36.8115 118.545 37.978 114.089 40.2542C113.139 40.7403 113.107 41.5098 113.323 42.3603C113.582 43.3972 114.402 44.4827 119.192 43.8427C123.822 43.1741 128.047 41.4148 131.255 38.8205C132.851 37.6135 132.485 36.7143 130.942 35.4669C126.583 31.9432 125.277 26.3134 124.846 21.7771Z" fill="#FF8B7B"/>
<path d="M114.661 43.9642L117.714 45.4061L122.677 43.8265C121.507 42.9399 119.999 42.3483 118.361 42.1335C116.935 42.4888 115.658 43.1203 114.661 43.9642Z" fill="#263238"/>
<path d="M118.307 42.1336C120.584 42.8384 121.728 44.426 122.763 46.2567C122.763 46.2567 133.671 40.0518 133.898 35.9611C133.315 34.5678 130.586 34.8108 130.586 34.8108C130.586 34.8108 127.263 39.1365 118.307 42.1336Z" fill="white"/>
<path d="M118.307 42.1336C117.244 42.4567 116.34 43.0201 115.722 43.7457C115.103 44.4713 114.8 45.3233 114.855 46.1838C114.855 46.1838 110 41.9068 113.949 38.6747C115.02 38.2526 116.158 37.9342 117.336 37.7269C117.336 37.7269 116.15 39.509 118.307 42.1336Z" fill="white"/>
<path d="M118.674 44.7338H117.282C116.829 45.317 116.204 52.9152 115.955 56.9574C116.622 59.3172 117.602 61.6211 118.879 63.8346C118.875 63.8615 118.875 63.8887 118.879 63.9156C118.955 64.0452 119.03 64.1668 119.117 64.2883C119.268 64.5313 119.419 64.7743 119.591 65.0011C120.09 62.4918 120.866 60.018 121.911 57.6054C120.487 52.9233 118.674 44.7338 118.674 44.7338Z" fill="#263238"/>
<path opacity="0.2" d="M116.268 31.611L119.807 26.9047C119.872 27.0181 119.958 27.1558 120.045 27.2854C120.355 27.8728 120.607 28.4766 120.8 29.0918C121.447 31.1898 119.289 34.1708 116.905 35.5721C116.808 35.4425 116.721 35.3048 116.624 35.1671C116.2 34.487 115.652 33.8545 114.995 33.2878L114.855 33.2068L116.268 31.611Z" fill="black"/>
<path d="M99.027 21.5017C98.1746 18.6261 104.271 14.6488 104.271 14.6488L97.0525 12.7614C93.7941 14.5192 95.9088 19.5333 99.027 21.5017Z" fill="#263238"/>
<path d="M123.346 13.1906C125.051 20.3838 126.583 24.5312 122.979 29.1242C121.85 30.6323 120.193 31.8798 118.187 32.7318C116.182 33.5837 113.904 34.0075 111.6 33.9575C109.297 33.9074 107.056 33.3854 105.119 32.4478C103.182 31.5102 101.624 30.1928 100.613 28.6382C96.567 22.7086 94.4631 11.9512 102.695 7.22867C104.44 6.17268 106.523 5.47949 108.737 5.21856C110.951 4.95763 113.217 5.13814 115.309 5.742C117.4 6.34585 119.244 7.35183 120.655 8.65913C122.065 9.96643 122.993 11.5291 123.346 13.1906Z" fill="#FF8B7B"/>
<path d="M123.475 20.4648L118.944 19.5333V15.159C118.944 15.159 113.215 12.7289 114.1 9.6912C114.538 7.98342 115.155 6.30417 115.945 4.66893C115.945 4.66893 125.029 4.2315 127.813 5.10635C127.092 5.69285 126.309 6.23464 125.472 6.72644C127.65 7.85791 129.518 9.29348 130.974 10.9549C129.836 11.1452 128.773 11.5305 127.867 12.0808C127.867 12.0808 129.054 18.0833 123.475 20.4648Z" fill="#263238"/>
<path d="M113.053 0.00311669C116.387 1.5746 114.456 4.45836 114.456 4.45836L123.378 4.59607C122.904 2.48185 115.168 -0.102189 113.053 0.00311669Z" fill="#263238"/>
<path d="M116.538 11.1655C115.901 12.5102 108.673 14.1627 102.08 14.3247C98.7945 14.2711 95.5429 13.8113 92.4562 12.9638C93.387 12.2461 94.4837 11.6615 95.693 11.2384C91.7118 10.5013 86.6732 7.87671 85.2814 5.73819C88.1882 4.95821 91.3284 4.80665 94.3444 5.30077C93.3573 4.67522 92.5464 3.90811 91.9591 3.04434C91.3718 2.18057 91.02 1.23751 90.9242 0.270386C90.9242 0.270386 107.799 5.29266 114.294 3.21085C121.35 0.942721 126.712 5.19546 122.073 8.43564C117.433 11.6758 116.538 11.1655 116.538 11.1655Z" fill="#263238"/>
<path d="M128.503 18.3993C128.595 19.9857 127.908 21.5423 126.572 22.7735C124.824 24.3369 122.105 23.0894 121.479 21.1534C120.918 19.3956 121.652 16.682 123.95 15.8395C126.248 14.9971 128.385 16.4308 128.503 18.3993Z" fill="#FF8B7B"/>
<path d="M108.759 19.8816C108.996 20.4487 108.759 21.0076 108.327 21.1453C107.896 21.283 107.248 20.9266 107 20.3353C106.752 19.7439 107 19.2093 107.432 19.0716C107.863 18.9339 108.511 19.2822 108.759 19.8816Z" fill="#263238"/>
<path d="M100.397 22.1498C100.635 22.7087 100.397 23.2758 99.9656 23.4054C99.5341 23.535 98.8867 23.1948 98.6386 22.5953C98.3904 21.9959 98.6386 21.4694 99.0701 21.3398C99.5017 21.2101 100.149 21.5828 100.397 22.1498Z" fill="#263238"/>
<path d="M103.256 21.85C103.292 23.5264 103.03 25.1989 102.48 26.8237C103.027 26.9111 103.594 26.9063 104.138 26.8097C104.683 26.713 105.193 26.5269 105.63 26.2647L103.256 21.85Z" fill="#A02724"/>
<path d="M108.37 28.4276C109.237 28.2095 110.036 27.8635 110.722 27.41C111.407 26.9565 111.965 26.4046 112.363 25.7868C112.384 25.7438 112.383 25.6961 112.359 25.6539C112.334 25.6116 112.289 25.578 112.233 25.56C112.205 25.5506 112.176 25.5455 112.145 25.545C112.115 25.5444 112.085 25.5484 112.057 25.5567C112.029 25.565 112.003 25.5775 111.982 25.5933C111.96 25.6092 111.943 25.6282 111.931 25.6491C111.493 26.319 110.855 26.9042 110.068 27.3594C109.28 27.8145 108.363 28.1273 107.389 28.2736C107.358 28.2784 107.33 28.2877 107.305 28.301C107.279 28.3143 107.258 28.3313 107.242 28.351C107.226 28.3707 107.215 28.3927 107.211 28.4156C107.206 28.4385 107.208 28.4619 107.216 28.4843C107.229 28.5283 107.265 28.5667 107.315 28.591C107.366 28.6153 107.427 28.6235 107.486 28.6139C107.786 28.5663 108.081 28.504 108.37 28.4276Z" fill="#263238"/>
<path d="M110.615 16.5604C110.681 16.5307 110.737 16.4889 110.776 16.4389C110.811 16.4013 110.834 16.359 110.846 16.3144C110.858 16.2699 110.858 16.224 110.846 16.1794C110.834 16.1349 110.81 16.0926 110.776 16.0551C110.742 16.0175 110.698 15.9855 110.647 15.961C110.041 15.6563 109.344 15.4674 108.618 15.411C107.892 15.3545 107.159 15.4321 106.482 15.637C106.427 15.6566 106.378 15.6843 106.337 15.7183C106.296 15.7524 106.264 15.7922 106.243 15.8355C106.223 15.8787 106.214 15.9246 106.217 15.9704C106.22 16.0163 106.235 16.0612 106.261 16.1027C106.287 16.1442 106.324 16.1814 106.37 16.2122C106.415 16.243 106.468 16.2668 106.526 16.2822C106.583 16.2976 106.644 16.3044 106.705 16.3021C106.766 16.2998 106.826 16.2885 106.882 16.2688C107.411 16.1147 107.981 16.0592 108.545 16.1072C109.109 16.1551 109.649 16.3051 110.118 16.5442C110.191 16.5819 110.275 16.6035 110.363 16.6064C110.451 16.6092 110.538 16.5933 110.615 16.5604Z" fill="#263238"/>
<path d="M98.7357 18.7394C98.7564 18.6838 98.7564 18.625 98.7357 18.5693C98.688 18.4847 98.5978 18.4177 98.4846 18.3828C98.3715 18.3479 98.2445 18.348 98.1315 18.383C97.452 18.5811 96.8483 18.9021 96.3739 19.3176C95.8996 19.7331 95.5694 20.2301 95.4126 20.7645C95.4097 20.8485 95.4474 20.9303 95.5186 20.9951C95.5898 21.0598 95.6898 21.1031 95.8001 21.1169C95.9104 21.1307 96.0236 21.1141 96.1189 21.0702C96.2143 21.0263 96.2853 20.958 96.3189 20.8779C96.4533 20.4612 96.7196 20.075 97.0953 19.7521C97.4709 19.4291 97.9448 19.179 98.4767 19.0229C98.5489 18.9965 98.6106 18.9565 98.656 18.9068C98.7014 18.8571 98.7289 18.7995 98.7357 18.7394Z" fill="#263238"/>
<path d="M152.078 39.8897C153.265 40.9914 154.301 41.9877 155.315 43.0489C156.329 44.11 157.386 45.1631 158.379 46.2404C160.396 48.3871 162.274 50.6147 164.108 52.8828C165.942 55.151 167.647 57.5163 169.179 60.0193C170.842 62.6161 172.161 65.3293 173.117 68.1198C173.654 69.742 173.936 71.4058 173.959 73.0772C173.932 74.7485 173.613 76.4098 173.009 78.0185C171.935 80.8194 170.367 83.5 168.348 85.9894C167.42 87.1801 166.417 88.3223 165.37 89.424C164.324 90.5256 163.212 91.5949 162.134 92.6236C159.881 94.6923 157.433 96.6361 154.808 98.4398C154.151 98.8793 153.307 99.1287 152.427 99.1432C151.547 99.1577 150.689 98.9364 150.007 98.5189C149.325 98.1015 148.863 97.5152 148.705 96.8653C148.547 96.2154 148.702 95.5444 149.143 94.9728L149.24 94.8513C152.591 90.7701 155.52 86.5022 158.001 82.0849C159.115 80.0942 159.925 78.0154 160.418 75.8881C160.599 75.0338 160.646 74.1666 160.558 73.3041C160.428 72.4504 160.183 71.609 159.825 70.7929C158.891 68.7217 157.718 66.7159 156.318 64.7986C154.883 62.7654 153.265 60.7484 151.538 58.6989C149.812 56.6495 148 54.6487 146.144 52.6803L143.306 49.7155C142.357 48.7516 141.364 47.7228 140.469 46.8399L140.404 46.7751C139.188 45.6171 138.634 44.1439 138.865 42.6794C139.095 41.215 140.092 39.8793 141.634 38.9662C143.176 38.0532 145.139 37.6375 147.089 37.8107C149.04 37.9839 150.819 38.7317 152.035 39.8897H152.078Z" fill="#407BFF"/>
<path d="M49.2775 99.6468L141.073 96.5281C141.362 96.5139 141.653 96.5436 141.927 96.6156C142.201 96.6876 142.452 96.8003 142.667 96.947C142.882 97.0937 143.054 97.2714 143.175 97.4694C143.296 97.6675 143.363 97.8818 143.371 98.0996L47.1844 101.34C47.1714 101.125 47.2155 100.91 47.314 100.709C47.4126 100.507 47.5637 100.322 47.7585 100.164C47.9533 100.006 48.188 99.8796 48.4488 99.7908C48.7096 99.702 48.9913 99.653 49.2775 99.6468Z" fill="#407BFF"/>
<g opacity="0.6">
<path d="M49.2775 99.6468L141.073 96.5281C141.362 96.5139 141.653 96.5436 141.927 96.6156C142.201 96.6876 142.452 96.8003 142.667 96.947C142.882 97.0937 143.054 97.2714 143.175 97.4694C143.296 97.6675 143.363 97.8818 143.371 98.0996L47.1844 101.34C47.1714 101.125 47.2155 100.91 47.314 100.709C47.4126 100.507 47.5637 100.322 47.7585 100.164C47.9533 100.006 48.188 99.8796 48.4488 99.7908C48.7096 99.702 48.9913 99.653 49.2775 99.6468Z" fill="white"/>
</g>
<path d="M34.6688 67.6742L99.9764 65.4547C100.395 65.459 100.802 65.56 101.142 65.7441C101.482 65.9281 101.738 66.1863 101.875 66.4835L114.413 96.3498C114.48 96.4732 114.506 96.6072 114.488 96.7398C114.47 96.8725 114.409 96.9998 114.309 97.1104C114.21 97.2209 114.076 97.3114 113.919 97.3738C113.762 97.4361 113.587 97.4684 113.409 97.4677L48.1015 99.6872C47.6849 99.6843 47.2798 99.5845 46.9417 99.4018C46.6037 99.2191 46.3492 98.9622 46.2133 98.6666L33.6762 68.7921C33.609 68.6694 33.5831 68.5362 33.6005 68.4041C33.618 68.2721 33.6784 68.1453 33.7764 68.0349C33.8745 67.9245 34.0071 67.8339 34.1627 67.771C34.3183 67.7081 34.4921 67.6749 34.6688 67.6742Z" fill="#407BFF"/>
<path opacity="0.6" d="M34.6688 67.6742L99.9764 65.4547C100.395 65.459 100.802 65.56 101.142 65.7441C101.482 65.9281 101.738 66.1863 101.875 66.4835L114.413 96.3498C114.48 96.4732 114.506 96.6072 114.488 96.7398C114.47 96.8725 114.409 96.9998 114.309 97.1104C114.21 97.2209 114.076 97.3114 113.919 97.3738C113.762 97.4361 113.587 97.4684 113.409 97.4677L48.1015 99.6872C47.6849 99.6843 47.2798 99.5845 46.9417 99.4018C46.6037 99.2191 46.3492 98.9622 46.2133 98.6666L33.6762 68.7921C33.609 68.6694 33.5831 68.5362 33.6005 68.4041C33.618 68.2721 33.6784 68.1453 33.7764 68.0349C33.8745 67.9245 34.0071 67.8339 34.1627 67.771C34.3183 67.7081 34.4921 67.6749 34.6688 67.6742Z" fill="white"/>
<path opacity="0.5" d="M101.897 66.4754L114.434 96.3418C114.504 96.4655 114.532 96.6003 114.515 96.7341C114.498 96.8679 114.437 96.9965 114.337 97.1082C114.238 97.2199 114.103 97.3112 113.945 97.374C113.786 97.4367 113.61 97.469 113.431 97.4677L99.998 65.4467C100.417 65.4509 100.824 65.5519 101.164 65.736C101.503 65.9201 101.759 66.1782 101.897 66.4754Z" fill="#407BFF"/>
<path opacity="0.5" d="M116.937 97.3462L141.073 96.5362C141.362 96.5219 141.653 96.5517 141.927 96.6237C142.201 96.6956 142.452 96.8083 142.667 96.9551C142.881 97.1018 143.054 97.2795 143.175 97.4775C143.296 97.6755 143.363 97.8899 143.371 98.1077L114.844 99.0716C114.825 98.8542 114.865 98.6362 114.961 98.4305C115.056 98.2249 115.207 98.0359 115.402 97.8748C115.597 97.7137 115.834 97.5839 116.098 97.493C116.362 97.4022 116.647 97.3523 116.937 97.3462Z" fill="#407BFF"/>
<path d="M147.428 94.6325L141.256 95.3049L147.579 101.907C147.579 101.907 157.624 100.7 156.458 97.3543L154.301 96.0096C153.347 95.432 152.242 95.011 151.059 94.7738C149.875 94.5366 148.638 94.4885 147.428 94.6325Z" fill="#FF8B7B"/>
<path d="M133.704 97.2814L141.44 102.344L147.579 101.907L141.256 95.3049L133.704 97.2814Z" fill="#FF8B7B"/>
</svg>
