<svg width="175" height="175" viewBox="0 0 175 175" fill="none" xmlns="http://www.w3.org/2000/svg">
<path d="M6.20551 160.444H168.606" stroke="#263238" stroke-width="1.15942" stroke-linecap="round" stroke-linejoin="round"/>
<path d="M128.94 12.0645H96.9501V132.293H128.94V12.0645Z" stroke="#263238" stroke-width="1.15942" stroke-linecap="round" stroke-linejoin="round"/>
<path d="M169.575 12.0645H96.138C96.009 12.0645 95.8852 12.0132 95.794 11.922C95.7027 11.8308 95.6515 11.707 95.6515 11.578C95.6515 11.449 95.7027 11.3252 95.794 11.234C95.8852 11.1427 96.009 11.0915 96.138 11.0915H169.575C169.704 11.0915 169.828 11.1426 169.92 11.2338C170.012 11.3249 170.064 11.4486 170.065 11.578C170.064 11.7073 170.012 11.8311 169.92 11.9222C169.828 12.0134 169.704 12.0645 169.575 12.0645Z" fill="#263238" stroke="#263238" stroke-width="1.15942" stroke-linecap="round" stroke-linejoin="round"/>
<path d="M128.891 102.725H168.105" stroke="#263238" stroke-width="1.15942" stroke-linecap="round" stroke-linejoin="round"/>
<path d="M128.891 100.39H168.105" stroke="#263238" stroke-width="1.15942" stroke-linecap="round" stroke-linejoin="round"/>
<path d="M128.891 55.125H168.105" stroke="#263238" stroke-width="1.15942" stroke-linecap="round" stroke-linejoin="round"/>
<path d="M128.891 57.1795H168.105" stroke="#263238" stroke-width="1.15942" stroke-linecap="round" stroke-linejoin="round"/>
<path d="M99.2703 12.2431V21.4761" stroke="#263238" stroke-width="1.15942" stroke-linecap="round" stroke-linejoin="round"/>
<path d="M100.769 13.6114V73.1989" stroke="#263238" stroke-width="1.15942" stroke-linecap="round" stroke-linejoin="round"/>
<path d="M104.401 12.131V19.3095" stroke="#263238" stroke-width="1.15942" stroke-linecap="round" stroke-linejoin="round"/>
<path d="M104.401 21.0175V25.0075" stroke="#263238" stroke-width="1.15942" stroke-linecap="round" stroke-linejoin="round"/>
<path d="M125.664 22.6135V24.325" stroke="#263238" stroke-width="1.15942" stroke-linecap="round" stroke-linejoin="round"/>
<path d="M125.664 12.243V21.0175" stroke="#263238" stroke-width="1.15942" stroke-linecap="round" stroke-linejoin="round"/>
<path d="M108.353 31.388V32.7565" stroke="#263238" stroke-width="1.15942" stroke-linecap="round" stroke-linejoin="round"/>
<path d="M108.353 13.727V29.792" stroke="#263238" stroke-width="1.15942" stroke-linecap="round" stroke-linejoin="round"/>
<path d="M110.705 13.6115V18.627" stroke="#263238" stroke-width="1.15942" stroke-linecap="round" stroke-linejoin="round"/>
<path d="M122.885 13.6115V18.627" stroke="#263238" stroke-width="1.15942" stroke-linecap="round" stroke-linejoin="round"/>
<path d="M113.697 12.131V54.999" stroke="#263238" stroke-width="1.15942" stroke-linecap="round" stroke-linejoin="round"/>
<path d="M117.649 12.3585V14.637" stroke="#263238" stroke-width="1.15942" stroke-linecap="round" stroke-linejoin="round"/>
<path d="M120.001 12.3585V42.749" stroke="#263238" stroke-width="1.15942" stroke-linecap="round" stroke-linejoin="round"/>
<path d="M116.368 14.1819V20.5624" stroke="#263238" stroke-width="1.15942" stroke-linecap="round" stroke-linejoin="round"/>
<path d="M136.465 48.881L135.639 49.91" stroke="#263238" stroke-width="1.15942" stroke-linecap="round" stroke-linejoin="round"/>
<path d="M153.751 28.2345L137.798 47.2185" stroke="#263238" stroke-width="1.15942" stroke-linecap="round" stroke-linejoin="round"/>
<path d="M150.174 39.235L144.042 46.5045" stroke="#263238" stroke-width="1.15942" stroke-linecap="round" stroke-linejoin="round"/>
<path d="M136.465 94.1466L135.639 95.1791" stroke="#263238" stroke-width="1.15942" stroke-linecap="round" stroke-linejoin="round"/>
<path d="M154.357 71.8831L137.798 92.4841" stroke="#263238" stroke-width="1.15942" stroke-linecap="round" stroke-linejoin="round"/>
<path d="M150.174 84.504L144.042 91.77" stroke="#263238" stroke-width="1.15942" stroke-linecap="round" stroke-linejoin="round"/>
<path d="M156.782 57.197V99.7675" stroke="#263238" stroke-width="1.15942" stroke-linecap="round" stroke-linejoin="round"/>
<path d="M156.782 11.8651V55.0411" stroke="#263238" stroke-width="1.15942" stroke-linecap="round" stroke-linejoin="round"/>
<path d="M158.904 57.2495V99.7675" stroke="#263238" stroke-width="1.15942" stroke-linecap="round" stroke-linejoin="round"/>
<path d="M158.904 11.865V55.02" stroke="#263238" stroke-width="1.15942" stroke-linecap="round" stroke-linejoin="round"/>
<path d="M20.276 123.935C19.3298 121.947 19.1166 119.688 19.674 117.558C20.598 113.925 20.934 114.534 19.9715 112.441C19.009 110.348 18.176 109.921 18.75 108.126C19.324 106.33 20.311 103.523 19.954 101.826C19.597 100.128 18.82 99.4281 19.17 97.5906C19.52 95.7531 20.6015 94.8676 20.073 92.8621C19.5445 90.8566 18.6205 90.9511 18.9705 89.1101C19.3205 87.2691 19.8105 87.1291 19.6705 85.4666C19.5305 83.8041 19.9155 83.0166 19.9155 83.0166C19.9155 83.0166 20.549 85.6171 20.9655 87.0556C21.382 88.4941 21.4415 89.3236 21.242 90.3736C21.0425 91.4236 23.4225 93.2436 23.4925 94.0731C23.5625 94.9026 24.07 95.8231 23.279 97.5731C22.488 99.3231 22.2885 100.373 22.7435 101.553C23.1985 102.732 23.692 102.55 23.2405 104.916C22.789 107.282 21.4205 107.289 22.4355 109.116C23.4505 110.943 24.0595 111.332 23.5905 112.616C23.1215 113.901 22.3795 115.381 22.6665 116.253C22.8335 116.686 23.0373 117.104 23.2755 117.502C23.8577 118.535 24.0525 119.741 23.825 120.904L23.6885 121.622L24.133 125.244L21.9735 127.012C21.9735 127.012 20.9725 126.249 20.276 123.935Z" fill="#90CAF9"/>
<path d="M17.7835 124.25C17.1584 123.555 16.6783 122.742 16.3712 121.859C16.0641 120.977 15.9362 120.041 15.995 119.109C16.219 115.98 16.667 116.428 15.3265 114.863C13.986 113.299 13.09 113.078 13.314 111.514C13.538 109.949 13.986 107.492 13.314 106.152C12.642 104.811 11.7495 104.363 11.7495 102.799C11.7495 101.234 12.6455 100.349 11.7495 98.777C10.8535 97.2055 9.96099 97.4365 9.96099 95.872C9.96099 94.3075 10.409 92.967 9.96099 91.6265C9.51299 90.286 9.80699 90.5765 9.80699 90.5765C9.80699 90.5765 10.857 92.757 11.5255 93.8735C12.194 94.99 12.4215 95.662 12.4215 96.5545C12.4215 97.447 15.1025 98.567 15.3265 99.2355C15.5505 99.904 16.219 100.58 15.771 102.141C15.323 103.702 15.3265 104.591 15.995 105.494C16.6635 106.397 17.1115 106.166 17.1115 108.175C17.1115 110.184 15.771 110.408 17.1115 111.752C18.452 113.096 19.124 113.313 18.9 114.433C18.676 115.553 18.2315 116.883 18.676 117.558C18.8445 117.792 19.0318 118.012 19.236 118.216C20.1653 119.174 20.6861 120.455 20.6885 121.79L21.805 124.695L20.0165 126.483C20.0165 126.483 18.9 126.035 17.7835 124.25Z" fill="#90CAF9"/>
<path d="M30.52 124.25C31.1441 123.555 31.6233 122.742 31.9298 121.859C32.2363 120.976 32.3638 120.041 32.305 119.109C32.0845 115.98 31.6365 116.428 32.977 114.863C34.3175 113.299 35.21 113.078 34.9895 111.514C34.769 109.949 34.3175 107.492 34.9895 106.152C35.6615 104.811 36.5505 104.363 36.5505 102.799C36.5505 101.234 35.658 100.349 36.5505 98.777C37.443 97.2055 38.339 97.4365 38.339 95.872C38.339 94.3075 37.891 92.967 38.339 91.6265C38.787 90.286 38.2515 91.0525 38.2515 91.0525C38.2515 91.0525 37.4465 92.743 36.7745 93.8525C36.1025 94.962 35.882 95.641 35.882 96.5335C35.882 97.426 33.201 98.546 32.977 99.2145C32.753 99.883 32.0845 100.559 32.529 102.12C32.9735 103.681 32.977 104.57 32.305 105.473C31.633 106.376 31.1885 106.145 31.1885 108.154C31.1885 110.163 32.529 110.387 31.1885 111.731C29.848 113.075 29.1795 113.292 29.4035 114.412C29.6275 115.532 30.072 116.862 29.624 117.537C29.4601 117.769 29.2762 117.985 29.0745 118.185C28.1366 119.154 27.6131 120.451 27.615 121.8L26.4985 124.705L28.2835 126.494C28.2835 126.494 29.4 126.035 30.52 124.25Z" fill="#90CAF9"/>
<path d="M26.579 124.81C26.9851 124.175 27.2606 123.465 27.3892 122.722C27.5178 121.98 27.497 121.219 27.328 120.484C26.74 118.034 26.4425 118.436 27.3035 117.015C28.1645 115.594 28.847 115.297 28.462 114.083C28.077 112.868 27.412 110.967 27.762 109.812C28.112 108.657 28.7735 108.181 28.567 106.935C28.3605 105.689 27.517 105.098 28.0385 103.733C28.56 102.368 29.2845 102.431 29.0885 101.188C28.8925 99.946 28.35 98.9345 28.532 97.8075C28.714 96.6805 28.3185 96.9745 28.3185 96.9745C28.1372 97.9295 27.8905 98.8709 27.58 99.792C27.1915 100.768 27.104 101.332 27.23 102.042C27.356 102.753 25.361 103.999 25.27 104.559C25.179 105.119 24.7345 105.745 25.298 106.932C25.8615 108.118 25.977 108.829 25.5605 109.631C25.144 110.432 24.759 110.309 25.0215 111.912C25.284 113.515 26.383 113.516 25.494 114.758C24.605 116 24.094 116.27 24.423 117.127C24.752 117.985 25.2805 118.996 25.011 119.577C24.6132 120.241 24.1576 120.867 23.6495 121.45L23.9435 123.228L23.436 125.678L25.095 126.864C25.095 126.864 25.9245 126.381 26.579 124.81Z" fill="#90CAF9"/>
<path d="M33.1347 122.99L32.6097 136.094H31.1537V146.199H16.4082V136.094H15.0467L14.5217 122.99H33.1347Z" fill="#263238" stroke="#263238" stroke-width="1.15942" stroke-miterlimit="10"/>
<path d="M14.616 125.388L14.693 127.285H32.963L33.0365 125.388H14.616Z" fill="white" stroke="#263238" stroke-width="1.15942" stroke-miterlimit="10"/>
<path d="M32.8233 130.736L32.8723 129.528H14.7843L14.8333 130.736H32.8233Z" fill="white" stroke="#263238" stroke-width="1.15942" stroke-miterlimit="10"/>
<path d="M15.0471 136.091H14.3961V160.447H16.4086V146.199" stroke="#263238" stroke-width="1.15942" stroke-miterlimit="10"/>
<path d="M32.6097 136.091H33.1627V160.447H31.1537V146.199" stroke="#263238" stroke-width="1.15942" stroke-miterlimit="10"/>
<path d="M47.929 110.6C47.929 110.6 43.967 88.025 43.967 82.95C43.967 77.875 49.182 69.825 61.278 66.675C73.374 63.525 88.809 65.625 93.3975 67.9C97.986 70.175 100.695 75.075 101.738 83.125C102.781 91.175 104.867 123.55 104.867 123.55L49.8085 124.425L47.929 110.6Z" fill="#666666" stroke="#263238" stroke-width="1.15942" stroke-linecap="round" stroke-linejoin="round"/>
<path d="M113.48 154.108C112.304 155.389 110.902 156.442 109.343 157.213C106.893 158.375 105.721 159.663 105.843 160.573C105.966 161.483 107.397 161.623 109.851 161.738C112.304 161.854 120.97 161.479 122.395 161.479C123.819 161.479 124.978 161.091 124.978 159.925C124.978 158.76 124.719 155.788 124.719 155.788L113.48 154.108Z" fill="white" stroke="#263238" stroke-width="1.15942" stroke-linecap="round" stroke-linejoin="round"/>
<path d="M118.65 160.444C114.079 160.444 107.937 160.181 105.9 160.094C105.848 160.249 105.831 160.414 105.851 160.577C105.98 161.483 107.405 161.627 109.858 161.742C112.312 161.858 120.978 161.483 122.402 161.483C123.683 161.483 124.754 161.165 124.95 160.248C123.578 160.342 121.485 160.444 118.65 160.444Z" fill="white" stroke="#263238" stroke-width="1.15942" stroke-linecap="round" stroke-linejoin="round"/>
<path d="M125.762 97.3526C125.762 97.3526 120.977 117.005 120.977 118.556C120.977 120.106 125.503 127.218 125.632 132.776C125.762 138.334 123.693 149.198 124.082 150.36C124.47 151.522 125.132 152.299 124.985 153.335C124.838 154.371 124.47 157.084 124.47 157.084C124.47 157.084 122.657 157.213 118.909 156.436C116.775 156.014 114.694 155.364 112.7 154.497C112.7 154.497 112.441 151.781 112.441 151.267C112.441 150.752 112.959 149.454 113.088 148.421C113.218 147.389 112.7 137.302 111.667 132.003C110.635 126.704 108.692 119.847 108.692 116.228C108.692 112.609 108.563 99.8096 108.563 99.8096C111.063 98.0877 113.7 96.5741 116.448 95.2841C121.103 93.0861 124.337 94.2516 124.337 94.2516L125.762 97.3526Z" fill="#90CAF9" stroke="#263238" stroke-width="1.15942" stroke-linecap="round" stroke-linejoin="round"/>
<path d="M118.174 94.5945C117.586 94.7922 117.011 95.026 116.452 95.2945C114.096 96.41 111.817 97.681 109.631 99.099L110.478 100.922C110.478 100.922 119.63 103.862 124.149 103.295L124.341 103.267C125.139 99.9215 125.762 97.363 125.762 97.363L124.88 95.445C124.515 95.2146 124.116 95.0433 123.697 94.9375C123.2 94.8675 120.694 94.724 118.174 94.5945Z" fill="#263238" stroke="#263238" stroke-width="1.15942" stroke-linecap="round" stroke-linejoin="round"/>
<path d="M127.701 154.109C126.52 155.39 125.113 156.442 123.55 157.213C121.1 158.375 119.931 159.663 120.05 160.573C120.169 161.483 121.601 161.623 124.058 161.739C126.515 161.854 135.177 161.48 136.598 161.48C138.019 161.48 139.185 161.091 139.185 159.926C139.185 158.76 138.926 155.789 138.926 155.789L127.701 154.109Z" fill="white" stroke="#263238" stroke-width="1.15942" stroke-linecap="round" stroke-linejoin="round"/>
<path d="M132.87 160.444C128.299 160.444 122.157 160.181 120.12 160.094C120.068 160.249 120.052 160.414 120.071 160.577C120.2 161.483 121.621 161.627 124.078 161.742C126.535 161.858 135.198 161.483 136.619 161.483C137.903 161.483 138.971 161.165 139.17 160.248C137.798 160.342 135.705 160.444 132.87 160.444Z" fill="white" stroke="#263238" stroke-width="1.15942" stroke-linecap="round" stroke-linejoin="round"/>
<path d="M140 97.3526C140 97.3526 135.215 117.005 135.215 118.556C135.215 120.106 139.741 127.218 139.87 132.776C140 138.334 137.931 149.198 138.316 150.36C138.701 151.522 139.366 152.299 139.223 153.335C139.079 154.371 138.705 157.084 138.705 157.084C138.705 157.084 136.895 157.213 133.147 156.436C131.015 156.014 128.934 155.364 126.941 154.497C126.941 154.497 126.682 151.781 126.682 151.267C126.682 150.752 127.2 149.454 127.33 148.421C127.459 147.389 126.941 137.302 125.905 132.003C124.869 126.704 122.934 119.847 122.934 116.228C122.934 112.609 122.804 99.8096 122.804 99.8096C125.304 98.0868 127.941 96.5731 130.69 95.2841C135.345 93.0861 138.575 94.2516 138.575 94.2516L140 97.3526Z" fill="#90CAF9" stroke="#263238" stroke-width="1.15942" stroke-linecap="round" stroke-linejoin="round"/>
<path d="M135.706 93.9575C133.957 94.0639 132.246 94.5147 130.673 95.284C127.924 96.573 125.287 98.0866 122.787 99.8095C122.787 99.8095 122.787 101.286 122.822 103.376C123.645 103.547 125.916 103.883 130.249 103.624C135.03 103.337 138.023 102.406 138.831 102.126L139.083 101.076L139.174 96.614C139.174 96.614 137.025 94.85 135.706 93.9575Z" fill="#263238" stroke="#263238" stroke-width="1.15942" stroke-linecap="round" stroke-linejoin="round"/>
<path d="M112.161 56.8645C112.161 56.8645 109.011 57.827 108.223 58.352C107.436 58.877 106.211 62.9895 105.861 63.952C105.511 64.9145 103.673 69.902 103.673 69.902L106.648 70.5145C106.648 70.5145 106.561 73.4895 106.998 74.7145C107.436 75.9395 110.586 79.6145 110.586 79.6145L111.723 82.677L110.498 99.652C110.498 99.652 114.961 102.014 122.486 102.714C130.011 103.414 135.173 102.714 135.786 102.364C136.149 102.156 136.529 101.98 136.923 101.839L137.448 99.3895L138.236 101.664C139.219 101.573 140.188 101.367 141.123 101.052C142.173 100.614 143.748 99.7395 143.748 99.7395C143.748 99.7395 140.511 87.4895 139.111 84.1645C137.711 80.8395 135.348 75.677 135.348 75.677C135.348 75.677 134.298 63.6895 132.198 59.6645C130.098 55.6395 126.161 54.5895 123.361 54.327C120.561 54.0645 112.161 56.8645 112.161 56.8645Z" fill="#90CAF9" stroke="#263238" stroke-width="1.15942" stroke-linecap="round" stroke-linejoin="round"/>
<path d="M111.3 57.295C110.712 59.2941 110.386 61.3613 110.33 63.4445L111.3 57.295Z" fill="white"/>
<path d="M111.3 57.295C110.712 59.2941 110.386 61.3613 110.33 63.4445" stroke="#263238" stroke-width="2.31884" stroke-linecap="round" stroke-linejoin="round"/>
<path d="M110.754 76.65C110.716 76.649 110.679 76.6432 110.642 76.6325C110.455 76.5636 110.273 76.4793 110.1 76.3805C109.942 76.4855 109.813 76.5625 109.75 76.601C109.671 76.6367 109.581 76.6418 109.499 76.6154C109.416 76.589 109.347 76.5329 109.303 76.458C109.259 76.3831 109.245 76.2947 109.263 76.2099C109.281 76.1251 109.33 76.05 109.4 75.999L109.498 75.9395C109.172 75.6608 108.93 75.2974 108.798 74.8895C108.448 73.773 108.224 64.358 108.836 63.378C109.001 63.1125 109.245 62.9058 109.534 62.7877C109.824 62.6695 110.143 62.6458 110.446 62.72C110.796 62.8145 111.668 63.21 111.748 64.841C111.85 66.8535 111.972 73.689 111.853 74.515C111.783 74.9945 111.258 75.516 110.744 75.915C110.782 75.9334 110.822 75.9486 110.863 75.9605C110.906 75.9751 110.947 75.9982 110.982 76.0285C111.016 76.0588 111.045 76.0956 111.065 76.1369C111.086 76.1782 111.098 76.2232 111.101 76.2692C111.104 76.3152 111.098 76.3613 111.083 76.405C111.061 76.4753 111.017 76.5368 110.958 76.5807C110.899 76.6247 110.828 76.649 110.754 76.65ZM110.096 63.35C109.963 63.3519 109.832 63.3872 109.716 63.4526C109.6 63.518 109.502 63.6115 109.431 63.7245C108.99 64.484 109.151 73.6015 109.47 74.6655C109.586 75.005 109.803 75.3007 110.093 75.5125C110.653 75.0995 111.125 74.6515 111.164 74.3925C111.269 73.661 111.164 67.011 111.052 64.8515C111.01 64.029 110.73 63.49 110.275 63.3745C110.217 63.3578 110.157 63.3495 110.096 63.35Z" fill="white" stroke="#263238" stroke-width="1.15942" stroke-linecap="round" stroke-linejoin="round"/>
<path d="M109.487 75.929L110.1 76.37C109.849 76.579 109.563 76.7425 109.256 76.853C108.931 76.9195 108.672 76.65 109.487 75.929Z" fill="#263238" stroke="#263238" stroke-width="1.15942" stroke-linecap="round" stroke-linejoin="round"/>
<path d="M110.747 75.9115L110.1 76.37C110.1 76.37 110.758 77.245 111.475 76.9195C112.193 76.594 110.747 75.9115 110.747 75.9115Z" fill="#263238" stroke="#263238" stroke-width="1.15942" stroke-linecap="round" stroke-linejoin="round"/>
<path d="M120.05 54.271C120.05 54.271 118.65 61.2885 118.65 66.7905" stroke="#263238" stroke-width="2.31884" stroke-linecap="round" stroke-linejoin="round"/>
<path d="M120.253 68.0855C120.253 69.4575 119.455 70.5705 118.472 70.5705C117.488 70.5705 116.69 69.4575 116.69 68.0855C116.69 66.7135 117.488 65.604 118.472 65.604C119.455 65.604 120.253 66.717 120.253 68.0855Z" fill="white" stroke="#263238" stroke-width="1.15942" stroke-linecap="round" stroke-linejoin="round"/>
<path d="M118.958 67.7635C118.958 68.635 118.451 69.342 117.824 69.342C117.198 69.342 116.69 68.642 116.69 67.7635C116.69 66.885 117.198 66.185 117.824 66.185C118.451 66.185 118.958 66.892 118.958 67.7635Z" fill="white" stroke="#263238" stroke-width="1.15942" stroke-linecap="round" stroke-linejoin="round"/>
<path d="M136.251 63.5146L133.598 66.1396L132.111 63.4271L136.251 63.5146Z" fill="#263238" stroke="#263238" stroke-width="1.15942" stroke-linecap="round" stroke-linejoin="round"/>
<path d="M124.701 65.7302L125.751 74.9457C125.751 74.9457 110.586 77.8647 108.951 77.7457C107.001 77.5362 105.031 77.8591 103.25 78.6802C100.915 79.7302 99.7499 80.3147 99.8654 80.8957C99.9809 81.4767 101.031 83.3457 101.031 83.3457C101.031 83.3457 103.015 83.4647 103.131 83.1147C103.208 82.8484 103.248 82.5729 103.25 82.2957C103.25 82.2957 105.35 82.4147 106.281 81.9457C106.879 81.6373 107.429 81.2449 107.915 80.7802C107.915 80.7802 120.165 81.7147 124.831 81.8302C129.496 81.9457 134.865 81.5957 135.45 80.7802C136.034 79.9647 133.35 63.2802 133.35 63.2802L124.701 65.7302Z" fill="white" stroke="#263238" stroke-width="1.15942" stroke-linecap="round" stroke-linejoin="round"/>
<path d="M125.752 74.9455C125.752 74.9455 130.463 73.2585 133.102 74.2805" stroke="#263238" stroke-width="1.15942" stroke-linecap="round" stroke-linejoin="round"/>
<path d="M108.952 77.7455L109.225 80.85L110.611 81.067L110.317 77.5635L108.952 77.7455Z" fill="white" stroke="#263238" stroke-width="1.15942" stroke-linecap="round" stroke-linejoin="round"/>
<path d="M110.828 77.5006C110.845 77.8226 110.373 78.1131 109.778 78.1481C109.183 78.1831 108.668 77.9521 108.647 77.6301C108.626 77.3081 109.102 77.0176 109.697 76.9826C110.292 76.9476 110.807 77.1786 110.828 77.5006Z" fill="white" stroke="#263238" stroke-width="1.15942" stroke-linecap="round" stroke-linejoin="round"/>
<path d="M103.236 82.2955L101.997 81.9455" stroke="#263238" stroke-width="1.15942" stroke-linecap="round" stroke-linejoin="round"/>
<path d="M123.767 60.48L124.352 67.13L136.252 63.5145C136.252 63.5145 132.3 56.63 130.067 54.88C127.834 53.13 123.302 54.6455 122.717 55.1145" fill="#90CAF9"/>
<path d="M123.767 60.48L124.352 67.13L136.252 63.5145C136.252 63.5145 132.3 56.63 130.067 54.88C127.834 53.13 123.302 54.6455 122.717 55.1145" stroke="#263238" stroke-width="1.15942" stroke-linecap="round" stroke-linejoin="round"/>
<path d="M101.049 38.402C101.049 38.402 96.7612 42.427 98.5112 44.352C100.261 46.277 102.711 47.502 103.061 49.6895C103.411 51.877 104.111 53.1895 103.149 55.1145C102.186 57.0395 101.486 57.477 101.486 57.477C101.486 57.477 105.599 59.577 108.224 59.402C110.849 59.227 114.611 56.252 114.611 56.252C114.611 56.252 120.736 56.1645 123.449 53.802C126.161 51.4395 126.074 47.4145 124.936 44.6145C123.799 41.8145 119.861 38.5 117.95 36.4C116.039 34.3 112.263 32.9 108.325 33.3375C104.388 33.775 101.049 38.402 101.049 38.402Z" fill="#263238" stroke="#263238" stroke-width="1.15942" stroke-linecap="round" stroke-linejoin="round"/>
<path d="M110.95 57.1271C110.95 57.1271 111.737 59.1396 112.262 60.9771C112.787 62.8146 114.187 67.4521 114.187 67.1896C114.187 66.9271 116.987 59.9271 117.687 57.9146C118.105 56.7281 118.37 55.4931 118.475 54.2396L116.112 48.7271C115.371 50.3849 114.3 51.8737 112.962 53.1021C110.862 54.9396 110.337 55.8146 110.337 55.8146L110.95 57.1271Z" fill="white" stroke="#263238" stroke-width="1.15942" stroke-linecap="round" stroke-linejoin="round"/>
<path d="M111.342 57.9181C111.342 57.9181 114.957 56.8996 116.539 55.5451C118.121 54.1906 118.233 53.8476 118.233 53.8476L116.312 50.2321L111.342 57.9181Z" fill="#263238" stroke="#263238" stroke-width="1.15942" stroke-linecap="round" stroke-linejoin="round"/>
<path d="M101.574 45.402C101.574 45.402 103.149 49.3395 103.411 50.477C103.674 51.6145 104.636 53.802 106.124 55.1145C107.611 56.427 108.574 58.177 110.936 57.827C113.299 57.477 116.186 53.277 116.711 51.9645C117.236 50.652 116.011 47.0645 116.011 46.627C116.004 46.4938 115.959 46.3654 115.882 46.2569C115.804 46.1484 115.697 46.0643 115.574 46.0145C115.574 46.0145 111.374 47.677 108.486 46.452C106.557 45.5891 104.736 44.5024 103.061 43.2145L101.574 45.402Z" fill="white" stroke="#263238" stroke-width="1.15942" stroke-linecap="round" stroke-linejoin="round"/>
<path d="M113.561 47.5022C113.561 47.5022 114.698 44.5272 116.361 44.8772C118.023 45.2272 117.848 48.1147 116.973 49.1647C116.098 50.2147 115.398 49.6897 115.398 49.6897" fill="white"/>
<path d="M113.561 47.5022C113.561 47.5022 114.698 44.5272 116.361 44.8772C118.023 45.2272 117.848 48.1147 116.973 49.1647C116.098 50.2147 115.398 49.6897 115.398 49.6897" stroke="#263238" stroke-width="1.15942" stroke-linecap="round" stroke-linejoin="round"/>
<path d="M106.4 48.3C106.512 48.8472 106.571 49.404 106.575 49.9625C106.575 50.8375 106.138 52.2375 106.925 52.5875C107.713 52.9375 108.85 52.5875 109.113 52.15" stroke="#263238" stroke-width="1.15942" stroke-linecap="round" stroke-linejoin="round"/>
<path d="M107.873 53.9C107.873 53.9 110.236 54.425 111.548 51.7125" stroke="#263238" stroke-width="1.15942" stroke-linecap="round" stroke-linejoin="round"/>
<path d="M108.924 48.9021C109.361 49.0675 109.841 49.0797 110.286 48.9366C110.731 48.7936 111.115 48.5038 111.374 48.1146" stroke="#263238" stroke-width="1.15942" stroke-linecap="round" stroke-linejoin="round"/>
<path d="M104.198 49.5146C104.198 49.5146 105.336 50.0396 106.036 49.2521" stroke="#263238" stroke-width="1.15942" stroke-linecap="round" stroke-linejoin="round"/>
<path d="M105.949 47.8521C105.949 47.8521 104.811 47.0646 103.849 48.0271" stroke="#263238" stroke-width="1.15942" stroke-linecap="round" stroke-linejoin="round"/>
<path d="M107.523 46.977C107.523 46.977 108.048 46.102 109.711 46.277" stroke="#263238" stroke-width="1.15942" stroke-linecap="round" stroke-linejoin="round"/>
<path d="M90.9087 69.8531C90.9087 69.8531 94.0587 70.5531 95.1087 74.6376C96.1587 78.7221 101.283 95.2001 101.283 95.2001C101.283 95.2001 106.704 98.2976 108.339 98.5321C109.973 98.7666 111.37 98.8821 111.489 100.632C111.608 102.382 111.139 105.182 110.204 105.648C109.27 106.113 105.77 106.117 103.204 105.998C100.639 105.879 99.0042 105.298 97.6042 104.367C96.2042 103.436 94.6887 94.2166 93.0542 89.7821C91.4197 85.3476 88.1087 76.1636 88.4587 73.8326C88.8087 71.5016 89.7432 69.8531 90.9087 69.8531Z" fill="#90CAF9" stroke="#263238" stroke-width="1.15942" stroke-linecap="round" stroke-linejoin="round"/>
<path d="M103.25 108.15L101 107.982C100.095 107.913 99.1859 108.034 98.3304 108.336C97.4749 108.638 96.6917 109.115 96.0305 109.736C95.3694 110.357 94.8449 111.109 94.4904 111.944C94.1359 112.78 93.9592 113.679 93.9715 114.587L94.3915 160.041C94.3943 160.388 94.5342 160.72 94.7807 160.965C95.0272 161.209 95.3603 161.347 95.7075 161.346H116.295L121.58 107.975L103.25 108.15Z" fill="#333333" stroke="#263238" stroke-width="1.15942" stroke-linecap="round" stroke-linejoin="round"/>
<path d="M116.288 161.35C115.94 161.35 115.607 161.213 115.361 160.968C115.114 160.724 114.974 160.392 114.972 160.045L114.552 114.59C114.539 113.683 114.716 112.783 115.071 111.948C115.425 111.113 115.95 110.361 116.611 109.739C117.272 109.118 118.055 108.641 118.911 108.339C119.766 108.037 120.675 107.917 121.58 107.986L123.83 108.154C124.718 108.221 125.582 108.468 126.371 108.881C127.159 109.293 127.855 109.863 128.416 110.554C128.977 111.245 129.391 112.043 129.633 112.899C129.875 113.756 129.939 114.653 129.822 115.535L123.9 160.195C123.859 160.511 123.705 160.802 123.465 161.013C123.225 161.223 122.917 161.34 122.598 161.34L116.288 161.35Z" fill="#666666" stroke="#263238" stroke-width="1.15942" stroke-linecap="round" stroke-linejoin="round"/>
<path d="M68.6419 118.3H108.192C109.306 118.3 110.374 118.743 111.162 119.53C111.949 120.318 112.392 121.386 112.392 122.5V161.35H68.6419V118.3Z" fill="#666666" stroke="#263238" stroke-width="1.15942" stroke-linecap="round" stroke-linejoin="round"/>
<path d="M112.567 133.164H71.267" stroke="#263238" stroke-width="1.15942" stroke-linecap="round" stroke-linejoin="round"/>
<path d="M95.6515 101.545L97.517 103.53C101.528 103.721 105.478 104.589 109.2 106.095C115.031 108.545 122.5 111.464 122.966 114.845C123.431 118.226 117.25 137.245 116.2 141.914C115.15 146.583 115.031 148.214 115.031 148.214C115.031 148.214 116.081 149.145 115.85 149.964C115.619 150.783 114.331 154.745 114.331 154.745C112.49 155.171 110.617 155.445 108.731 155.564C106.815 155.598 104.9 155.441 103.016 155.095C103.016 155.095 102.666 151.13 103.016 150.195C103.366 149.261 104.65 148.214 104.766 147.514C104.881 146.814 105.35 135.73 105.35 131.414C105.35 127.099 107.8 120.214 107.8 120.214C107.8 120.214 96.25 119.745 92.8655 119.395C89.481 119.045 81.3155 111.23 81.081 107.38C80.8465 103.53 90.0515 99.33 95.6515 101.545Z" fill="#263238" stroke="#263238" stroke-width="1.15942" stroke-linecap="round" stroke-linejoin="round"/>
<path d="M114.45 153.346C114.45 153.346 113.4 151.365 112.116 152.296C110.831 153.227 110.6 154.515 109.9 154.515C109.2 154.515 103.016 153.346 103.016 153.346C103.016 153.346 101.381 159.765 101.966 160.465C102.55 161.165 107.916 161.746 110.25 162.096C112.585 162.446 117.716 163.73 121.1 163.73C124.485 163.73 123.9 161.28 123.081 160.465C122.262 159.649 116.431 156.496 115.616 155.446C115.123 154.809 114.73 154.101 114.45 153.346Z" fill="white" stroke="#263238" stroke-width="1.15942" stroke-linecap="round" stroke-linejoin="round"/>
<path d="M123.683 162.236C122.292 162.53 120.873 162.679 119.451 162.68C116.417 162.68 113.967 161.515 110.117 160.815C107.089 160.262 103.337 159.352 101.878 158.988C101.797 159.719 101.801 160.283 101.951 160.465C102.536 161.165 107.901 161.746 110.236 162.096C112.57 162.446 117.701 163.73 121.086 163.73C122.906 163.73 123.578 163.02 123.683 162.236Z" fill="white" stroke="#263238" stroke-width="1.15942" stroke-linecap="round" stroke-linejoin="round"/>
<path d="M71.617 68.88C71.617 68.88 64.617 71.5645 62.0515 73.3145C59.486 75.0645 61.117 81.7145 61.117 85.4455C61.117 89.1765 60.417 99.2145 60.3015 101.195C60.186 103.176 62.7515 105.864 64.5015 106.914C66.2515 107.964 81.186 108.545 85.1515 108.545C89.117 108.545 97.636 105.98 96.936 98.3955C96.236 90.811 93.786 84.98 93.436 83.6955C93.086 82.411 92.967 78.2145 93.086 77.0455C93.205 75.8765 94.136 72.38 92.386 70.7455C90.636 69.111 83.286 67.2455 79.9015 67.3645C76.517 67.4835 71.617 68.88 71.617 68.88Z" fill="#90CAF9" stroke="#263238" stroke-width="1.15942" stroke-linecap="round" stroke-linejoin="round"/>
<path d="M72.534 76.5695C72.7042 77.0474 72.9513 77.4942 73.2655 77.8925C74.2485 79.1178 75.3002 80.2863 76.4155 81.3925C78.96 83.9405 82.964 85.638 82.964 85.638C82.964 85.638 84.2975 78.6065 84.539 75.453C84.7805 72.2995 83.083 69.755 80.2935 68.803C77.504 67.851 72.415 68.922 71.687 70.8645C71.155 72.31 72.058 75.229 72.534 76.5695Z" fill="white" stroke="#263238" stroke-width="1.15942" stroke-linecap="round" stroke-linejoin="round"/>
<path d="M72.9155 66.7205C72.672 66.7317 72.4336 66.7937 72.2155 66.9025C71.691 67.1681 71.286 67.6218 71.0815 68.173C70.4725 69.629 69.9895 71.2075 69.9895 71.2075C70.339 73.0198 70.8258 74.8029 71.4455 76.5415C72.0551 78.1929 72.5086 79.8979 72.8 81.634C72.8 81.634 77.1645 78.358 78.0115 77.6335C78.8103 77.0298 79.6632 76.5013 80.5595 76.055C80.5595 76.055 83.468 77.511 84.8015 78.358C86.135 79.205 87.227 79.9365 87.227 79.9365C87.0751 77.5358 86.5849 75.1686 85.771 72.905C84.4375 69.265 83.832 68.173 83.104 67.4485C82.376 66.724 76.797 64.659 72.9155 66.7205Z" fill="white" stroke="#263238" stroke-width="1.15942" stroke-linecap="round" stroke-linejoin="round"/>
<path d="M82.95 49.35C82.95 49.35 83.811 48.2475 84.308 49.119C84.5833 49.6122 84.9171 50.0705 85.302 50.484C85.302 50.484 86.2925 50.981 86.4185 51.849C86.504 52.3825 86.5449 52.9222 86.541 53.4625C86.541 53.8335 87.6575 54.082 87.6575 54.705C87.6575 55.328 87.038 55.573 86.9155 56.1925C86.793 56.812 87.325 57.3615 86.7895 58.177C86.254 58.9925 86.8385 58.695 86.254 58.996C85.6695 59.297 85.0535 59.668 85.0535 59.668L82.1975 50.218L82.95 49.35Z" fill="#C7C7C7" stroke="#7D7D7D" stroke-width="1.15942" stroke-linecap="round" stroke-linejoin="round"/>
<path d="M73.57 45.073C73.57 45.073 70.266 46.039 68.887 48.7935C67.508 51.548 67.3715 53.6165 68.061 55.958C68.7505 58.2995 71.365 64.911 72.1945 66.8395C73.024 68.768 73.297 72.352 74.949 74.5395C76.601 76.727 80.598 78.673 80.598 78.673C80.598 78.673 83.6255 74.5395 84.1785 72.4745C84.7315 70.4095 83.6255 66.276 83.6255 66.276C83.6255 66.276 86.6565 62.5555 86.2435 58.975C85.8305 55.3945 83.6255 50.722 82.95 49.35C82.2745 47.978 79.7685 43.6975 73.57 45.073Z" fill="white" stroke="#263238" stroke-width="1.15942" stroke-linecap="round" stroke-linejoin="round"/>
<path d="M75.95 50.5924C75.95 50.5924 78.3754 49.3814 79.9504 49.7454" stroke="#263238" stroke-width="1.15942" stroke-linecap="round" stroke-linejoin="round"/>
<path d="M74.9769 50.1097C74.9769 50.1097 77.1609 49.0177 78.7359 49.0177" stroke="#263238" stroke-width="1.15942" stroke-linecap="round" stroke-linejoin="round"/>
<path d="M83.6257 66.29C83.6257 66.29 81.7672 67.4485 80.0697 67.4485C78.3722 67.4485 75.2187 66.115 74.2492 65.142C74.2492 65.142 77.1227 68.432 80.1747 69.2545C83.2267 70.077 84.0492 68.7855 84.0492 68.7855L83.6257 66.29Z" fill="#263238" stroke="#263238" stroke-width="1.15942" stroke-linecap="round" stroke-linejoin="round"/>
<path d="M68.782 59.15C68.8754 59.0948 68.9654 59.0341 69.0515 58.968C69.475 58.6565 70.238 57.9775 70.147 57.1655C70.0245 56.049 70.147 55.4155 69.5275 54.558C68.908 53.7005 67.914 51.828 67.914 51.828C67.1791 51.7683 66.4442 51.9423 65.814 52.325C64.946 52.9445 65.191 53.4415 64.946 54.3095C64.701 55.1775 64.0745 54.558 63.7035 55.8005C63.3325 57.043 63.826 57.785 64.323 58.0335C64.82 58.282 64.449 59.0275 64.449 60.1335C64.4679 60.5343 64.6273 60.9157 64.8993 61.2107C65.1713 61.5058 65.5385 61.6956 65.9365 61.747C66.311 61.747 66.4335 62.244 66.9305 62.741C67.4275 63.238 69.0305 62.6815 69.0305 62.6815C69.0305 62.6815 69.783 62.244 69.9055 61.747C70.028 61.25 68.782 59.15 68.782 59.15Z" fill="#C7C7C7" stroke="#7D7D7D" stroke-width="1.15942" stroke-linecap="round" stroke-linejoin="round"/>
<path d="M69.853 58.9892C69.853 58.9892 68.1975 56.7842 67.095 58.0232C65.9925 59.2622 67.921 62.2932 69.0235 62.7062C70.126 63.1192 71.505 62.0062 71.505 62.0062" fill="white"/>
<path d="M69.853 58.9892C69.853 58.9892 68.1975 56.7842 67.095 58.0232C65.9925 59.2622 67.921 62.2932 69.0235 62.7062C70.126 63.1192 71.505 62.0062 71.505 62.0062" stroke="#263238" stroke-width="1.15942" stroke-linecap="round" stroke-linejoin="round"/>
<path d="M79.9085 52.374C79.9085 52.374 79.7685 53.6165 80.045 54.0295C80.3215 54.4425 81.9735 55.132 81.697 56.371C81.4205 57.61 79.7685 58.7125 78.9425 57.61" stroke="#263238" stroke-width="1.15942" stroke-linecap="round" stroke-linejoin="round"/>
<path d="M77.84 59.815C78.6424 60.0321 79.4914 60.0038 80.2775 59.7336C81.0636 59.4635 81.7506 58.964 82.25 58.2995" stroke="#263238" stroke-width="1.15942" stroke-linecap="round" stroke-linejoin="round"/>
<path d="M73.7097 54.1171C73.6706 54.1164 73.6318 54.1105 73.5942 54.0996C73.5475 54.0863 73.504 54.0634 73.4666 54.0324C73.4292 54.0014 73.3987 53.963 73.3769 53.9195C73.3552 53.876 73.3428 53.8285 73.3404 53.78C73.338 53.7315 73.3458 53.683 73.3632 53.6376C73.9792 51.7896 76.3207 51.4746 76.4187 51.4641C76.5143 51.452 76.6108 51.4784 76.687 51.5375C76.7631 51.5966 76.8126 51.6835 76.8247 51.7791C76.8368 51.8747 76.8104 51.9712 76.7513 52.0473C76.6922 52.1235 76.6053 52.173 76.5097 52.1851C76.4887 52.1851 74.5252 52.4546 74.0597 53.8686C74.0372 53.943 73.9907 54.0078 73.9273 54.0528C73.8639 54.0978 73.7874 54.1204 73.7097 54.1171Z" fill="#C7C7C7" stroke="#7D7D7D" stroke-width="1.15942" stroke-linecap="round" stroke-linejoin="round"/>
<path d="M82.663 51.8245C82.6155 51.8252 82.5684 51.8163 82.5245 51.7983C82.4805 51.7802 82.4407 51.7534 82.4075 51.7195C82.1399 51.4589 81.7995 51.2859 81.4313 51.2234C81.0631 51.1609 80.6846 51.2118 80.346 51.3695C80.2597 51.4126 80.1597 51.4197 80.0682 51.3892C79.9766 51.3587 79.9009 51.2931 79.8578 51.2067C79.8146 51.1204 79.8075 51.0205 79.838 50.9289C79.8685 50.8373 79.9342 50.7616 80.0205 50.7185C80.4946 50.491 81.0272 50.4153 81.5459 50.5018C82.0645 50.5882 82.5439 50.8326 82.9185 51.2015C82.954 51.2343 82.9824 51.274 83.0018 51.3183C83.0212 51.3626 83.0312 51.4104 83.0312 51.4587C83.0312 51.5071 83.0212 51.5549 83.0018 51.5992C82.9824 51.6434 82.954 51.6832 82.9185 51.716C82.8856 51.7505 82.8459 51.778 82.802 51.7966C82.758 51.8153 82.7107 51.8248 82.663 51.8245Z" fill="#C7C7C7" stroke="#7D7D7D" stroke-width="1.15942" stroke-linecap="round" stroke-linejoin="round"/>
<path d="M77.567 55.6815C77.4854 56.1897 77.2954 56.6745 77.0097 57.1027C76.724 57.5309 76.3495 57.8925 75.9115 58.163" stroke="#263238" stroke-width="1.15942" stroke-linecap="round" stroke-linejoin="round"/>
<path d="M81.837 54.992C82.573 55.5092 83.4232 55.8406 84.315 55.958" stroke="#263238" stroke-width="1.15942" stroke-linecap="round" stroke-linejoin="round"/>
<path d="M76.65 55.2335C76.7725 55.671 76.671 56.0805 76.4225 56.1505C76.174 56.2205 75.88 55.9195 75.7575 55.482C75.635 55.0445 75.7365 54.6315 75.985 54.565C76.2335 54.4985 76.531 54.796 76.65 55.2335Z" fill="#263238"/>
<path d="M82.1417 53.676C82.2607 54.1135 82.1592 54.523 81.9142 54.593C81.6692 54.663 81.3682 54.362 81.2492 53.921C81.1302 53.48 81.2282 53.074 81.4732 53.004C81.7182 52.934 82.0192 53.235 82.1417 53.676Z" fill="#263238"/>
<path d="M76.7094 54.1975L74.9454 55.3735" stroke="#263238" stroke-width="1.15942" stroke-linecap="round" stroke-linejoin="round"/>
<path d="M80.9062 53.193L82.8382 53.109" stroke="#263238" stroke-width="1.15942" stroke-linecap="round" stroke-linejoin="round"/>
<path d="M118.174 102.697C118.174 102.697 120.764 103.859 121.24 104.195C121.716 104.531 123.025 106.575 123.134 107.212C123.242 107.849 123.113 108.111 122.714 107.88C122.315 107.649 121.184 106.295 120.309 105.371C119.434 104.447 118.318 103.866 118.045 103.316C117.772 102.767 117.74 102.592 118.174 102.697Z" fill="white" stroke="#263238" stroke-width="1.15942" stroke-linecap="round" stroke-linejoin="round"/>
<path d="M110.415 99.925C110.415 99.925 114.681 101.325 116.179 101.769C117.3 102.117 118.331 102.706 119.2 103.495C119.627 103.897 121.982 106.568 122.238 107.345C122.493 108.122 122.847 110.201 122.409 110.393C121.972 110.586 121.524 110.075 121.328 109.634C121.104 109.22 120.839 108.829 120.537 108.468C120.537 108.468 121.065 110.152 120.974 110.999C120.883 111.846 120.624 112.36 119.924 112.479C119.224 112.598 118.44 111.429 117.898 110.344C117.568 109.688 117.143 109.083 116.638 108.549L114.965 107.772C115.252 108.614 115.63 109.423 116.092 110.183C116.732 111.139 117.492 111.363 117.215 111.884C116.939 112.406 115.665 112.507 115.066 111.783C114.468 111.058 113.505 110.274 112.966 109.301C112.427 108.328 111.178 105.7 111.178 105.7L107.762 105.105C107.762 105.105 105.763 104.503 105.634 102.396C105.504 100.289 109.491 99.3755 110.415 99.925Z" fill="white" stroke="#263238" stroke-width="1.15942" stroke-linecap="round" stroke-linejoin="round"/>
<path d="M117.397 106.767C117.397 106.767 118.927 108.752 119.431 109.613C119.935 110.474 119.928 112.486 119.928 112.486" stroke="#263238" stroke-width="1.15942" stroke-linecap="round" stroke-linejoin="round"/>
<path d="M120.536 108.475L119.175 105.395" stroke="#263238" stroke-width="1.15942" stroke-linecap="round" stroke-linejoin="round"/>
<path d="M75.95 107.146C75.95 107.146 83.7655 106.215 87.731 107.615C91.6965 109.015 95.55 113.915 95.55 117.996C95.55 122.077 94.731 144.48 94.9655 145.065C95.2 145.649 96.481 145.765 96.481 146.93C96.481 148.096 95.55 154.165 95.55 154.165C95.55 154.165 90.0655 156.146 88.2 156.146H86.331C86.331 156.146 83.65 149.03 83.7655 147.865C83.881 146.699 84.581 145.765 84.581 145.18C84.581 144.596 81.2 132.346 81.2 128.73V120.68L74.6655 119.28C74.6655 119.28 71.75 110.996 75.95 107.146Z" fill="#263238" stroke="#263238" stroke-width="1.15942" stroke-linecap="round" stroke-linejoin="round"/>
<path d="M100.317 159.415C100.317 159.415 96.8169 155.33 95.4169 153.115C94.0169 150.899 91.4514 149.615 89.9359 150.78C88.4204 151.946 88.4169 154.865 88.4169 154.865L85.8514 154.396C85.8514 154.396 86.7859 157.546 87.2514 159.296C87.7169 161.046 88.4169 162.215 91.4514 162.68C94.4859 163.146 99.5014 163.496 100.901 162.096C102.301 160.696 100.317 159.415 100.317 159.415Z" fill="white" stroke="#263238" stroke-width="1.15942" stroke-linecap="round" stroke-linejoin="round"/>
<path d="M100.902 162.095C101.126 161.912 101.286 161.661 101.356 161.38C101.426 161.098 101.403 160.802 101.29 160.534C100.638 160.905 99.9619 161.232 99.267 161.514C96.7015 162.564 93.2015 162.33 90.286 161.395C89.2082 161.086 88.2172 160.53 87.3915 159.771C87.871 161.259 88.704 162.256 91.4515 162.68C94.5 163.145 99.5015 163.495 100.902 162.095Z" fill="white" stroke="#263238" stroke-width="1.15942" stroke-linecap="round" stroke-linejoin="round"/>
<path d="M104.902 100.604C104.902 100.604 104.671 103.373 104.594 104.216C104.517 105.06 104.979 106.064 105.294 106.215C105.609 106.365 105.756 106.064 105.756 105.371V104.216C105.746 103.985 104.902 100.604 104.902 100.604Z" fill="white" stroke="#263238" stroke-width="1.15942" stroke-linecap="round" stroke-linejoin="round"/>
<path d="M109.501 94.9235C109.501 93.7195 111.104 91.182 111.104 91.182L111.724 82.677L111.304 81.0285L109.435 80.8955C108.696 83.3735 106.103 92.0955 105.76 93.4535C105.361 95.2989 105.093 97.1703 104.958 99.0535C104.958 99.7185 104.958 102.791 105.228 103.995C105.497 105.199 107.363 106.396 107.363 106.396C107.363 106.396 109.883 106.396 110.282 106.13C110.681 105.864 109.669 104.975 109.669 104.975C109.519 104.975 109.074 101.678 110.019 100.656C110.782 99.841 112.959 100.789 112.959 100.789C112.959 100.789 112.424 99.3195 111.755 97.9895C111.087 96.6595 109.501 96.124 109.501 94.9235Z" fill="white" stroke="#263238" stroke-width="1.15942" stroke-linecap="round" stroke-linejoin="round"/>
<path d="M109.9 106.369C109.9 106.369 107.901 105.294 107.67 104.832C107.439 104.37 107.366 100.835 107.366 100.835" stroke="#263238" stroke-width="1.15942" stroke-linecap="round" stroke-linejoin="round"/>
<path d="M107.821 106.369C107.821 106.369 106.208 104.678 106.208 104.062C106.208 103.446 105.823 100.835 105.823 100.835" stroke="#263238" stroke-width="1.15942" stroke-linecap="round" stroke-linejoin="round"/>
<path d="M69.594 108.15L56.2555 107.993C55.9119 107.964 55.5666 107.964 55.223 107.993L52.969 108.161C52.0816 108.228 51.2173 108.475 50.4289 108.888C49.6406 109.3 48.9448 109.87 48.3841 110.561C47.8235 111.252 47.4098 112.05 47.1685 112.907C46.9271 113.763 46.8631 114.66 46.9805 115.542L52.9305 160.213C52.9721 160.529 53.1275 160.82 53.3677 161.031C53.6079 161.241 53.9165 161.357 54.236 161.357H70.861L69.594 108.15Z" fill="#333333" stroke="#263238" stroke-width="1.15942" stroke-linecap="round" stroke-linejoin="round"/>
<path d="M77.1402 161.35C77.4871 161.349 77.8197 161.212 78.066 160.967C78.3123 160.723 78.4525 160.391 78.4562 160.044L78.8762 114.59C78.888 113.683 78.7109 112.783 78.3562 111.949C78.0015 111.114 77.477 110.362 76.816 109.741C76.155 109.12 75.372 108.643 74.5167 108.341C73.6615 108.038 72.7527 107.917 71.8482 107.986L69.5942 108.154C68.7068 108.221 67.8425 108.468 67.0541 108.881C66.2658 109.293 65.57 109.863 65.0093 110.554C64.4487 111.245 64.035 112.043 63.7937 112.9C63.5523 113.756 63.4883 114.653 63.6057 115.535L69.5557 160.206C69.5973 160.522 69.7527 160.813 69.9929 161.024C70.2331 161.234 70.5417 161.35 70.8612 161.35H77.1402Z" fill="#666666" stroke="#263238" stroke-width="1.15942" stroke-linecap="round" stroke-linejoin="round"/>
<path d="M65.317 72.03C65.317 72.03 60.417 72.1455 58.5515 74.9455C56.686 77.7455 55.167 87.3145 54.817 89.7645C54.467 92.2145 52.9515 100.845 53.536 102.48C54.1205 104.114 55.636 104.345 58.436 104.464C61.236 104.583 62.517 103.064 63.1015 101.314C63.686 99.5645 65.2015 83.23 65.2015 83.23" fill="#90CAF9"/>
<path d="M65.317 72.03C65.317 72.03 60.417 72.1455 58.5515 74.9455C56.686 77.7455 55.167 87.3145 54.817 89.7645C54.467 92.2145 52.9515 100.845 53.536 102.48C54.1205 104.114 55.636 104.345 58.436 104.464C61.236 104.583 62.517 103.064 63.1015 101.314C63.686 99.5645 65.2015 83.23 65.2015 83.23" stroke="#263238" stroke-width="1.15942" stroke-linecap="round" stroke-linejoin="round"/>
<path d="M58.667 96.6455C59.367 96.88 65.667 98.3955 66.136 99.68C66.2843 100.008 66.3303 100.372 66.2678 100.726C66.2054 101.08 66.0374 101.407 65.786 101.665C65.786 101.665 63.686 106.68 61.817 107.146C59.948 107.611 55.7515 106.33 53.6515 105.396C51.5515 104.461 53.6515 97.3455 53.886 96.9955" fill="#90CAF9"/>
<path d="M58.667 96.6455C59.367 96.88 65.667 98.3955 66.136 99.68C66.2843 100.008 66.3303 100.372 66.2678 100.726C66.2054 101.08 66.0374 101.407 65.786 101.665C65.786 101.665 63.686 106.68 61.817 107.146C59.948 107.611 55.7515 106.33 53.6515 105.396C51.5515 104.461 53.6515 97.3455 53.886 96.9955" stroke="#263238" stroke-width="1.15942" stroke-linecap="round" stroke-linejoin="round"/>
<path d="M67.2 103.065C67.2 103.065 67.6655 102.365 67.081 102.015C66.4965 101.665 65.5655 100.615 64.5155 100.615C63.4655 100.615 61.6 101.545 61.131 103.53C60.662 105.514 61.0155 106.915 61.831 107.146C62.6465 107.377 64.4 107.846 65.2155 107.846C66.031 107.846 66.6155 106.096 66.731 105.746C66.8465 105.396 67.2 103.065 67.2 103.065Z" fill="#90CAF9" stroke="#263238" stroke-width="1.15942" stroke-linecap="round" stroke-linejoin="round"/>
<path d="M74.767 103.764C74.767 103.764 76.7515 106.214 77.686 106.68C78.6205 107.145 79.436 107.73 78.736 108.43C78.036 109.13 76.4015 108.78 75.7015 107.845C75.0015 106.911 74.767 103.764 74.767 103.764Z" fill="white" stroke="#263238" stroke-width="1.15942" stroke-linecap="round" stroke-linejoin="round"/>
<path d="M68.0016 103.065C68.0016 103.065 73.4861 102.246 74.3016 102.246C75.1171 102.246 76.4016 108.08 76.5171 109.015C76.6326 109.949 77.1016 110.53 76.5171 110.996C76.2628 111.245 75.9375 111.408 75.5861 111.465C75.2649 111.739 74.9125 111.973 74.5361 112.165C74.1861 112.28 72.9016 112.046 72.9016 112.046C72.9016 112.046 72.7861 112.515 71.8516 112.396C70.9171 112.277 67.7671 108.315 67.7671 108.315C67.7671 108.315 65.4361 107.73 64.5016 106.915C63.5671 106.099 63.9171 104.696 64.5016 103.765C65.0861 102.834 66.3671 102.596 66.3671 102.596L68.0016 103.065Z" fill="white" stroke="#263238" stroke-width="1.15942" stroke-linecap="round" stroke-linejoin="round"/>
<path d="M73.1362 104.93L76.0517 111.23" stroke="#263238" stroke-width="1.15942" stroke-linecap="round" stroke-linejoin="round"/>
<path d="M70.917 105.98L74.536 112.164" stroke="#263238" stroke-width="1.15942" stroke-linecap="round" stroke-linejoin="round"/>
<path d="M72.9017 112.046L69.5172 107.146" stroke="#263238" stroke-width="1.15942" stroke-linecap="round" stroke-linejoin="round"/>
</svg>
