<svg width="160" height="160" viewBox="0 0 160 160" fill="none" xmlns="http://www.w3.org/2000/svg">
<path d="M5.67349 150.691H154.153" stroke="#263238" stroke-width="1.15942" stroke-linecap="round" stroke-linejoin="round"/>
<path d="M99.0272 139.315L99.2544 150.794L84.9728 151.149C85.024 149.782 92.3328 146.861 92.3328 146.861L91.8848 139.501L99.0272 139.315Z" fill="#90CAF9"/>
<g opacity="0.6">
<path d="M96.7424 146.131C96.8778 146.169 96.9948 146.255 97.0718 146.373C97.1489 146.49 97.1808 146.632 97.1616 146.771C97.1294 146.91 97.045 147.032 96.9259 147.11C96.8068 147.189 96.6621 147.219 96.5216 147.194C96.3745 147.153 96.2478 147.059 96.1662 146.93C96.0845 146.801 96.0538 146.646 96.08 146.496C96.1297 146.354 96.2323 146.237 96.3666 146.169C96.5008 146.101 96.6561 146.087 96.8 146.131" fill="white"/>
</g>
<g opacity="0.6">
<path d="M99.2544 150.794L99.1872 149.638L85.52 150.4C85.52 150.4 84.88 150.694 84.9728 151.139L99.2544 150.794Z" fill="white"/>
</g>
<path d="M92.1088 146.794C92.1088 146.864 92.464 146.886 92.8128 147.114C93.1616 147.341 93.3504 147.619 93.4144 147.59C93.4784 147.562 93.3632 147.162 92.9376 146.906C92.512 146.65 92.0928 146.73 92.1088 146.794Z" fill="#263238"/>
<path d="M90.6272 147.45C90.6272 147.517 90.9184 147.629 91.1616 147.917C91.4048 148.205 91.4816 148.518 91.552 148.512C91.6224 148.506 91.6576 148.112 91.344 147.76C91.0304 147.408 90.6272 147.382 90.6272 147.45Z" fill="#263238"/>
<path d="M89.8208 149.264C89.8848 149.264 89.9744 148.928 89.7856 148.55C89.5968 148.173 89.2672 148.029 89.2384 148.086C89.2096 148.144 89.4176 148.346 89.5584 148.656C89.6992 148.966 89.7536 149.258 89.8208 149.264Z" fill="#263238"/>
<path d="M92.1952 145.107C92.224 145.171 92.5408 145.066 92.9376 145.082C93.3344 145.098 93.6416 145.216 93.6768 145.155C93.712 145.094 93.4112 144.854 92.944 144.835C92.4768 144.816 92.16 145.053 92.1952 145.107Z" fill="#263238"/>
<path d="M92.48 143.405C92.7155 143.462 92.9621 143.454 93.1936 143.382C93.604 143.3 93.9944 143.138 94.3424 142.906C94.4221 142.86 94.4935 142.802 94.5536 142.733C94.5984 142.682 94.625 142.618 94.629 142.551C94.6331 142.484 94.6144 142.417 94.576 142.362C94.539 142.312 94.4905 142.272 94.4348 142.246C94.3791 142.219 94.3178 142.206 94.256 142.208C94.1657 142.209 94.0762 142.225 93.9904 142.253C93.8384 142.293 93.6905 142.348 93.5488 142.416C93.3136 142.533 93.0977 142.685 92.9088 142.867C92.5888 143.187 92.48 143.443 92.5024 143.456C92.5248 143.469 92.6912 143.258 93.024 142.995C93.2193 142.842 93.4346 142.716 93.664 142.621C93.7955 142.564 93.9314 142.518 94.0704 142.483C94.2208 142.438 94.352 142.435 94.3904 142.502C94.4288 142.57 94.3904 142.538 94.3904 142.582C94.344 142.632 94.2913 142.675 94.2336 142.71C94.1138 142.791 93.9899 142.866 93.8624 142.934C93.6439 143.05 93.4145 143.145 93.1776 143.216C92.9406 143.261 92.7074 143.324 92.48 143.405Z" fill="#263238"/>
<path d="M92.5856 143.501C92.7165 143.294 92.776 143.05 92.7552 142.806C92.7656 142.381 92.6546 141.961 92.4352 141.597C92.3948 141.503 92.3308 141.422 92.2495 141.361C92.1681 141.3 92.0722 141.261 91.9712 141.248C91.9078 141.251 91.8465 141.272 91.7944 141.308C91.7423 141.344 91.7015 141.394 91.6768 141.453C91.6428 141.538 91.6202 141.627 91.6096 141.718C91.5855 141.878 91.5855 142.039 91.6096 142.198C91.6538 142.465 91.7638 142.717 91.9296 142.931C92.2176 143.293 92.512 143.37 92.5152 143.347C92.5184 143.325 92.2912 143.181 92.0704 142.832C91.9432 142.63 91.8603 142.403 91.8272 142.166C91.808 142.028 91.808 141.888 91.8272 141.75C91.8464 141.6 91.9008 141.475 91.9552 141.491C92.0096 141.507 92.1504 141.597 92.2112 141.718C92.2862 141.84 92.3495 141.969 92.4 142.102C92.4855 142.33 92.5383 142.568 92.5568 142.81C92.6144 143.229 92.5472 143.491 92.5856 143.501Z" fill="#263238"/>
<path d="M110.669 139.088L110.896 150.566L96.6176 150.925C96.6656 149.558 103.978 146.634 103.978 146.634L103.53 139.274L110.669 139.088Z" fill="#90CAF9"/>
<g opacity="0.6">
<path d="M108.384 145.92C108.518 145.96 108.633 146.047 108.709 146.164C108.785 146.281 108.817 146.421 108.8 146.56C108.767 146.699 108.683 146.819 108.564 146.898C108.445 146.976 108.3 147.007 108.16 146.982C108.013 146.942 107.886 146.849 107.805 146.721C107.723 146.592 107.692 146.438 107.718 146.288C107.767 146.145 107.869 146.027 108.004 145.958C108.138 145.89 108.295 145.878 108.438 145.923" fill="white"/>
</g>
<g opacity="0.6">
<path d="M110.896 150.566L110.829 149.411L97.1616 150.186C97.1616 150.186 96.5216 150.477 96.6176 150.925L110.896 150.566Z" fill="white"/>
</g>
<path d="M103.75 146.56C103.75 146.63 104.106 146.653 104.454 146.88C104.803 147.107 104.992 147.382 105.056 147.354C105.12 147.325 105.005 146.925 104.579 146.672C104.154 146.419 103.734 146.502 103.75 146.56Z" fill="#263238"/>
<path d="M102.269 147.226C102.269 147.293 102.56 147.405 102.803 147.693C103.046 147.981 103.123 148.291 103.194 148.288C103.264 148.285 103.299 147.888 102.989 147.533C102.678 147.178 102.269 147.158 102.269 147.226Z" fill="#263238"/>
<path d="M101.462 149.037C101.526 149.053 101.616 148.701 101.427 148.323C101.238 147.946 100.909 147.802 100.88 147.859C100.851 147.917 101.059 148.118 101.2 148.432C101.341 148.746 101.395 149.034 101.462 149.037Z" fill="#263238"/>
<path d="M103.837 144.88C103.866 144.944 104.182 144.842 104.579 144.858C104.976 144.874 105.283 144.992 105.318 144.931C105.354 144.87 105.053 144.611 104.586 144.611C104.118 144.611 103.798 144.829 103.837 144.88Z" fill="#263238"/>
<path d="M104.134 143.178C104.37 143.237 104.616 143.23 104.848 143.158C105.105 143.105 105.354 143.021 105.59 142.909C105.731 142.842 105.866 142.766 105.997 142.682C106.076 142.634 106.147 142.575 106.208 142.506C106.253 142.455 106.279 142.391 106.283 142.324C106.288 142.257 106.269 142.19 106.23 142.134C106.193 142.086 106.144 142.047 106.089 142.021C106.033 141.994 105.972 141.982 105.91 141.984C105.82 141.986 105.731 142 105.645 142.026C105.493 142.067 105.345 142.123 105.203 142.192C104.968 142.308 104.752 142.459 104.563 142.64C104.243 142.96 104.134 143.219 104.157 143.232C104.179 143.245 104.346 143.03 104.678 142.768C104.875 142.616 105.09 142.49 105.318 142.394C105.45 142.338 105.586 142.292 105.725 142.256C105.875 142.214 106.006 142.208 106.045 142.275C106.083 142.342 106.045 142.31 106.045 142.355C105.998 142.405 105.946 142.448 105.888 142.483C105.769 142.565 105.645 142.64 105.517 142.707C105.298 142.823 105.068 142.918 104.832 142.992C104.595 143.037 104.362 143.099 104.134 143.178Z" fill="#263238"/>
<path d="M104.227 143.277C104.357 143.07 104.417 142.826 104.397 142.582C104.406 142.156 104.295 141.736 104.077 141.37C104.036 141.277 103.972 141.196 103.89 141.134C103.809 141.073 103.714 141.034 103.613 141.021C103.549 141.022 103.486 141.042 103.434 141.079C103.381 141.117 103.341 141.169 103.318 141.229C103.284 141.313 103.261 141.401 103.251 141.491C103.229 141.651 103.229 141.814 103.251 141.974C103.296 142.24 103.406 142.491 103.571 142.704C103.859 143.069 104.154 143.142 104.16 143.12C104.166 143.098 103.936 142.957 103.712 142.605C103.584 142.403 103.501 142.176 103.469 141.939C103.45 141.802 103.45 141.663 103.469 141.526C103.488 141.373 103.542 141.248 103.6 141.264C103.658 141.28 103.792 141.373 103.856 141.491C103.928 141.614 103.99 141.742 104.042 141.875C104.127 142.104 104.18 142.343 104.198 142.586C104.256 143.005 104.189 143.267 104.227 143.277Z" fill="#263238"/>
<path d="M85.12 82.9024C84.9824 82.9024 85.76 97.3024 86.3616 100.851C87.2864 106.432 90.3648 144.614 90.3648 144.614H99.7216L99.9136 91.4944L101.613 111.942L102.253 144.723L111.398 144.48L112.358 109.706C112.07 107.11 112.848 83.2416 112.848 83.2416L85.12 82.9024Z" fill="#263238"/>
<path d="M89.3536 29.1648C88.2496 28.6528 87.5584 27.5232 87.152 26.3776C86.7456 25.232 86.56 24 86.1088 22.8832C85.7888 22.0416 86.1408 20.7008 85.3856 20.1984C84.4416 19.5744 84.4512 17.9104 84.816 17.0816C85.2128 16.1792 86.2912 15.5072 86.3648 15.2224C86.5568 14.4704 85.904 13.6576 86.1472 12.9216C86.7168 11.1904 88.128 11.4176 88.128 11.4176C88.768 10.64 89.6384 9.60961 91.0496 9.24481C92.576 8.85121 94.832 8.55681 96.192 9.35681C97.552 10.1568 98.5536 10.6944 98.992 12.2112" fill="#263238"/>
<path d="M101.936 32.896L98.736 38.3936L94.3136 42.8096L91.7184 39.2448V35.6512V32.64C91.7184 32.64 87.7216 32.0896 87.6032 28.1024C87.5456 26.1824 87.7504 22.2016 87.9808 18.608C88.0987 16.7438 88.9142 14.9923 90.2649 13.702C91.6157 12.4117 93.4027 11.6773 95.2704 11.6448H95.6544C99.8144 11.8176 101.984 15.44 101.696 19.5872L101.958 32.9024" fill="#CE947A"/>
<path d="M89.1264 21.5584C89.1288 21.7068 89.1884 21.8485 89.2927 21.954C89.3971 22.0595 89.5381 22.1207 89.6864 22.1248C89.7591 22.1291 89.8318 22.1189 89.9005 22.0947C89.9692 22.0706 90.0323 22.033 90.0862 21.9841C90.1402 21.9352 90.1838 21.8761 90.2146 21.8101C90.2454 21.7442 90.2628 21.6727 90.2656 21.6C90.2632 21.4516 90.2036 21.3099 90.0993 21.2044C89.995 21.0989 89.8539 21.0377 89.7056 21.0336C89.6329 21.0293 89.5602 21.0395 89.4915 21.0637C89.4229 21.0879 89.3597 21.1255 89.3058 21.1744C89.2518 21.2232 89.2082 21.2824 89.1774 21.3483C89.1466 21.4143 89.1293 21.4857 89.1264 21.5584Z" fill="#263238"/>
<path d="M88.784 20.3328C88.8576 20.4064 89.2832 20.08 89.8944 20.0704C90.5056 20.0608 90.9632 20.3616 91.0272 20.2848C91.0912 20.208 90.9856 20.1184 90.7872 19.9648C90.5192 19.784 90.2016 19.6911 89.8784 19.6992C89.5585 19.7093 89.2501 19.8214 88.9984 20.0192C88.8128 20.16 88.7488 20.3008 88.784 20.3328Z" fill="#263238"/>
<path d="M94.8832 21.4208C94.884 21.5691 94.9426 21.7113 95.0466 21.817C95.1506 21.9228 95.2917 21.9838 95.44 21.9872C95.5127 21.9915 95.5855 21.9813 95.6541 21.9571C95.7228 21.9329 95.7859 21.8953 95.8398 21.8464C95.8938 21.7976 95.9374 21.7384 95.9682 21.6725C95.999 21.6065 96.0164 21.5351 96.0192 21.4624C96.0176 21.3138 95.9583 21.1716 95.8538 21.0659C95.7493 20.9602 95.6078 20.8993 95.4592 20.896C95.3867 20.8917 95.3141 20.9019 95.2456 20.9261C95.1771 20.9503 95.1142 20.988 95.0605 21.0369C95.0068 21.0858 94.9635 21.145 94.933 21.2109C94.9026 21.2768 94.8856 21.3482 94.8832 21.4208Z" fill="#263238"/>
<path d="M94.8896 20.0576C94.9536 20.1376 95.4112 19.8592 96.0224 19.9168C96.6336 19.9744 97.0496 20.32 97.1232 20.2368C97.1968 20.1536 97.1008 20.064 96.9184 19.9168C96.6721 19.708 96.3666 19.5815 96.0448 19.5552C95.7268 19.5249 95.4073 19.5966 95.1328 19.76C94.9344 19.8912 94.8576 20.0192 94.8896 20.0576Z" fill="#263238"/>
<path d="M92.7264 25.136C92.4016 25.0406 92.0663 24.9858 91.728 24.9728C91.5712 24.9728 91.424 24.9312 91.408 24.8256C91.3933 24.6638 91.4267 24.5013 91.504 24.3584C91.6448 23.9776 91.792 23.5776 91.9488 23.1616C92.56 21.4528 93.0016 20.0512 92.9344 20.0256C92.8672 20 92.3104 21.3664 91.696 23.0752L91.2736 24.2784C91.1788 24.4697 91.1528 24.6878 91.2 24.896C91.2241 24.9507 91.2601 24.9992 91.3056 25.038C91.351 25.0768 91.4046 25.1048 91.4624 25.12C91.5492 25.142 91.6385 25.1527 91.728 25.152C92.0602 25.1887 92.3956 25.1833 92.7264 25.136Z" fill="#263238"/>
<path d="M94.5376 25.5296C94.4384 25.5296 94.448 26.192 93.8976 26.672C93.3472 27.152 92.6176 27.0944 92.6176 27.1872C92.6176 27.2288 92.7776 27.312 93.0752 27.3152C93.4654 27.315 93.8429 27.1767 94.1408 26.9248C94.4263 26.682 94.6064 26.3378 94.6432 25.9648C94.6624 25.6896 94.5824 25.5232 94.5376 25.5296Z" fill="#263238"/>
<path d="M94.928 18.0384C94.9792 18.208 95.5936 18.1696 96.3072 18.304C97.0208 18.4384 97.5872 18.6752 97.6896 18.5312C97.7376 18.464 97.648 18.3008 97.424 18.1216C97.1266 17.901 96.7812 17.7541 96.416 17.6928C96.0521 17.6227 95.6767 17.6414 95.3216 17.7472C95.04 17.8368 94.9088 17.9584 94.928 18.0384Z" fill="#263238"/>
<path d="M89.0432 18.7648C89.152 18.9024 89.5744 18.7648 90.08 18.736C90.5856 18.7072 91.0208 18.8128 91.1168 18.6656C91.1584 18.5952 91.088 18.4544 90.8992 18.3264C90.6443 18.1725 90.3493 18.0979 90.0518 18.1122C89.7544 18.1264 89.4679 18.2289 89.2288 18.4064C89.0496 18.56 88.9952 18.6976 89.0432 18.7648Z" fill="#263238"/>
<path d="M98.6944 11.9264C98.696 12.3697 98.6 12.8079 98.4131 13.2098C98.2261 13.6118 97.953 13.9676 97.6129 14.252C97.2729 14.5364 96.8744 14.7425 96.4458 14.8554C96.0171 14.9684 95.5688 14.9855 95.1328 14.9056C94.4576 14.784 93.7184 14.4416 93.136 14.8032C92.5536 15.1648 92.496 16.1056 91.952 16.5792C91.1744 17.2544 89.936 16.6208 88.9472 16.8992C88.1856 17.1264 87.7088 17.8592 87.2032 18.4672C86.6976 19.0752 85.9232 19.664 85.1744 19.4272C85.1969 18.7395 85.2978 18.0567 85.4752 17.392C85.659 16.7217 86.0681 16.1352 86.6336 15.7312C86.9631 15.5589 87.2835 15.3699 87.5936 15.1648C88.2336 14.6528 88.3744 13.7632 88.7648 13.0496C89.0223 12.5909 89.3853 12.2002 89.8238 11.9097C90.2623 11.6192 90.7636 11.4374 91.2864 11.3792C92.1568 11.2896 93.0496 11.5488 93.8976 11.3376C94.5216 11.1776 95.0688 10.7712 95.7024 10.6528C96.9376 10.416 98.0832 11.2928 98.9792 12.1856" fill="#263238"/>
<path d="M94.7456 13.6832C95.2992 13.5232 96.432 13.1648 96.7264 12.6848C97.3664 11.6416 98.5088 10.9312 99.6704 10.9952C100.271 11.0418 100.841 11.2818 101.294 11.6793C101.746 12.0768 102.058 12.6104 102.182 13.2C102.904 13.2263 103.605 13.4463 104.212 13.8371C104.819 14.2279 105.309 14.775 105.632 15.4208C105.964 16.0986 106.125 16.8468 106.104 17.601C106.082 18.3552 105.877 19.0929 105.507 19.7504C105.268 20.0609 105.112 20.4279 105.056 20.816C105.056 21.3088 105.414 21.696 105.67 22.096C106.368 23.2032 106.31 24.7264 105.776 25.936C105.242 27.1456 104.854 27.5648 104.086 27.808C102.579 28.2784 104.086 31.3088 101.571 31.3088L101.066 22.3488C100.993 22.3897 100.914 22.4189 100.832 22.4352C99.3472 22.7712 99.152 19.8752 99.4848 19.0464C98.9253 18.5891 98.4254 18.0634 97.9968 17.4816C97.5872 16.8768 97.2256 15.2416 97.312 14.4832C96.7776 14.5024 94.5024 13.76 94.7456 13.6832Z" fill="#263238"/>
<path d="M100.858 22.4C100.925 22.368 103.584 21.5424 103.542 24.2688C103.501 26.9952 100.771 26.3936 100.768 26.3168C100.765 26.24 100.858 22.4 100.858 22.4Z" fill="#CE947A"/>
<path d="M101.616 25.28C101.616 25.28 101.664 25.3152 101.744 25.3536C101.858 25.4004 101.985 25.4004 102.099 25.3536C102.39 25.2512 102.64 24.7968 102.659 24.3072C102.669 24.0738 102.627 23.8412 102.538 23.6256C102.513 23.5402 102.468 23.462 102.406 23.3974C102.345 23.3329 102.27 23.2839 102.186 23.2544C102.131 23.2393 102.073 23.2435 102.021 23.2662C101.969 23.2889 101.927 23.3288 101.901 23.3792C101.866 23.456 101.882 23.5104 101.866 23.5136C101.85 23.5168 101.808 23.4688 101.83 23.3568C101.848 23.2896 101.888 23.23 101.942 23.1872C102.018 23.1313 102.112 23.1072 102.205 23.12C102.317 23.1439 102.42 23.1962 102.506 23.2718C102.592 23.3475 102.657 23.444 102.694 23.552C102.807 23.7894 102.86 24.051 102.848 24.3136C102.822 24.864 102.528 25.3728 102.138 25.4816C102.064 25.5018 101.988 25.5054 101.913 25.4921C101.838 25.4789 101.767 25.449 101.706 25.4048C101.622 25.3568 101.606 25.296 101.616 25.28Z" fill="#A56349"/>
<path d="M105.382 26.7456C105.216 26.9263 105.091 27.141 105.016 27.3749C104.941 27.6088 104.918 27.8562 104.949 28.0999C104.979 28.3435 105.062 28.5777 105.192 28.7859C105.323 28.9941 105.497 29.1715 105.702 29.3056C105.59 29.4064 105.459 29.4835 105.317 29.5325C105.175 29.5814 105.024 29.6011 104.874 29.5904C104.768 29.9328 105.251 30.1696 105.35 30.5152C105.373 30.6211 105.367 30.7311 105.334 30.834C105.3 30.9369 105.239 31.029 105.158 31.1008C104.996 31.2459 104.806 31.355 104.598 31.4208C103.993 31.638 103.357 31.76 102.714 31.7824C102.528 31.8083 102.339 31.793 102.16 31.7377C101.98 31.6824 101.816 31.5885 101.677 31.4624C101.503 31.201 101.422 30.8889 101.446 30.576L101.379 28.2496C101.349 28.0215 101.391 27.7896 101.501 27.5872C101.676 27.3909 101.915 27.2638 102.176 27.2288L105.482 26.384" fill="#263238"/>
<path d="M113.766 79.9072C113.341 77.4112 110.784 65.36 110.784 65.36L112.365 36.56C111.635 36.0704 101.93 32.5504 101.93 32.5504C101.93 32.5504 100.435 36.9856 95.6864 37.9584C90.9376 38.9312 91.6928 35.376 91.6928 35.376C91.6928 35.376 82.4128 40.3328 81.872 40.6976C81.3312 41.0624 79.0208 50.3744 79.0208 50.3744L77.2736 56.4L84.6112 58.1056C84.6112 58.1056 84.7936 72.4704 84.6112 73.504C84.4288 74.5376 84.0608 82.88 84.0608 82.88L112.861 83.2448C112.861 83.2448 114.192 82.4032 113.766 79.9072Z" fill="#90CAF9"/>
<path d="M112.365 36.5696C112.365 36.5696 114.141 38.3104 114.736 40.032C115.331 41.7536 117.171 53.0432 117.171 53.0432C117.171 53.0432 107.072 54.4704 107.072 54.2912C107.072 54.112 107.962 47.8144 108.259 45.856C108.557 43.8976 112.365 36.5696 112.365 36.5696Z" fill="#90CAF9"/>
<path d="M90.688 50.448L90.0192 52.0032H89.6L88.9344 50.448H89.4112L89.8336 51.4624L90.2656 50.448H90.688Z" fill="white"/>
<path d="M90.6784 51.2256C90.6668 51.0519 90.7078 50.8788 90.7959 50.7288C90.8841 50.5787 91.0153 50.4587 91.1726 50.3842C91.3299 50.3097 91.5059 50.2843 91.6779 50.3112C91.8498 50.3382 92.0097 50.4162 92.1366 50.5352C92.2636 50.6542 92.3519 50.8086 92.3899 50.9784C92.428 51.1483 92.414 51.3256 92.3499 51.4874C92.2858 51.6492 92.1745 51.7879 92.0305 51.8856C91.8865 51.9833 91.7164 52.0354 91.5424 52.0352C91.4317 52.0422 91.3207 52.0264 91.2164 51.9889C91.112 51.9514 91.0164 51.8929 90.9354 51.8171C90.8545 51.7413 90.7899 51.6497 90.7457 51.5479C90.7015 51.4462 90.6786 51.3365 90.6784 51.2256ZM91.9584 51.2256C91.954 51.143 91.9255 51.0635 91.8763 50.997C91.8272 50.9305 91.7596 50.8799 91.682 50.8514C91.6043 50.8229 91.52 50.8179 91.4395 50.8369C91.3591 50.8559 91.2859 50.8981 91.2292 50.9583C91.1725 51.0185 91.1347 51.094 91.1205 51.1755C91.1063 51.2569 91.1163 51.3408 91.1493 51.4166C91.1823 51.4924 91.2369 51.5569 91.3062 51.602C91.3755 51.6471 91.4565 51.6709 91.5392 51.6704C91.5969 51.6714 91.6541 51.6604 91.7073 51.6381C91.7605 51.6159 91.8085 51.5827 91.8483 51.5409C91.888 51.4991 91.9186 51.4494 91.9381 51.3952C91.9576 51.3409 91.9656 51.2831 91.9616 51.2256H91.9584Z" fill="white"/>
<path d="M92.6368 50.448H93.0752V51.6544H93.8176V52.0032H92.6368V50.448Z" fill="white"/>
<path d="M93.9616 51.312V50.448H94.4V51.296C94.4 51.5648 94.512 51.6704 94.6976 51.6704C94.8832 51.6704 94.9888 51.5648 94.9888 51.296V50.448H95.424V51.312C95.4117 51.4976 95.3293 51.6715 95.1936 51.7986C95.0578 51.9257 94.8788 51.9964 94.6928 51.9964C94.5068 51.9964 94.3278 51.9257 94.192 51.7986C94.0563 51.6715 93.9739 51.4976 93.9616 51.312Z" fill="white"/>
<path d="M97.2 50.448V52.0032H96.8384L96.1504 51.1744V52.0032H95.7184V50.448H96.08L96.768 51.2768V50.448H97.2Z" fill="white"/>
<path d="M97.84 50.7968H97.3632V50.448H98.7552V50.7968H98.2816V52.0032H97.84V50.7968Z" fill="white"/>
<path d="M100.16 51.664V52.0032H98.912V50.448H100.131V50.7872H99.3472V51.0496H100.038V51.3696H99.3472V51.6544L100.16 51.664Z" fill="white"/>
<path d="M101.661 51.664V52.0032H100.413V50.448H101.632V50.7872H100.848V51.0496H101.539V51.3696H100.848V51.6544L101.661 51.664Z" fill="white"/>
<path d="M102.582 51.5904H102.342V52.0032H101.904V50.448H102.614C103.04 50.448 103.306 50.6688 103.306 51.024C103.309 51.1265 103.282 51.2278 103.228 51.3149C103.174 51.4021 103.095 51.4712 103.002 51.5136L103.338 52.0032H102.864L102.582 51.5904ZM102.582 50.7936H102.336V51.2512H102.582C102.765 51.2512 102.854 51.1648 102.854 51.024C102.854 50.8832 102.771 50.7936 102.589 50.7936H102.582Z" fill="white"/>
<path d="M84.6368 62.8992C84.6198 62.8487 84.6111 62.7957 84.6112 62.7424C84.6112 62.6176 84.5856 62.464 84.5664 62.2816C84.5376 61.8848 84.5056 61.3216 84.4832 60.592C84.4352 59.1616 84.4192 57.1904 84.4352 55.008C84.4512 52.8256 84.4896 50.848 84.5312 49.4272C84.5536 48.7328 84.576 48.1472 84.5888 47.7376C84.5888 47.552 84.608 47.4016 84.6144 47.2768C84.6144 47.2227 84.6219 47.1689 84.6368 47.1168C84.6444 47.1699 84.6444 47.2238 84.6368 47.2768C84.6368 47.4016 84.6368 47.5552 84.6368 47.7376C84.6368 48.1632 84.6368 48.736 84.6368 49.4304C84.6368 50.88 84.608 52.8416 84.5888 55.0112C84.5696 57.1808 84.5728 59.1712 84.5888 60.5888C84.5888 61.3024 84.608 61.8688 84.6208 62.2784C84.6208 62.464 84.6208 62.5984 84.6208 62.7392C84.6332 62.7916 84.6385 62.8454 84.6368 62.8992Z" fill="#263238"/>
<path d="M107.984 44.1184C108 44.2427 108 44.3685 107.984 44.4928C107.984 44.7712 107.984 45.1104 107.968 45.5136C107.968 46.416 107.949 47.5872 107.936 48.8864C107.923 50.1856 107.901 51.3952 107.856 52.2592C107.834 52.6912 107.811 53.04 107.786 53.28C107.78 53.4052 107.761 53.5295 107.731 53.6512C107.715 53.527 107.715 53.4011 107.731 53.2768C107.731 52.9984 107.731 52.6592 107.731 52.256C107.731 51.3536 107.75 50.1824 107.763 48.8832C107.776 47.584 107.802 46.3744 107.843 45.5104C107.866 45.0784 107.891 44.7296 107.914 44.4896C107.925 44.3639 107.948 44.2395 107.984 44.1184Z" fill="#263238"/>
<path d="M112.061 36.8C110.669 37.2886 109.454 38.1796 108.57 39.36C108.643 39.1563 108.751 38.9668 108.89 38.8C109.208 38.3777 109.587 38.0056 110.016 37.696C110.443 37.3837 110.913 37.1357 111.411 36.96C111.616 36.8678 111.836 36.8136 112.061 36.8Z" fill="#263238"/>
<path d="M84.1024 43.9232C84.0608 43.9488 83.6384 43.2192 83.0144 42.3968C82.3904 41.5744 81.8112 40.96 81.8464 40.9248C82.8115 41.7408 83.5776 42.7663 84.0864 43.9232H84.1024Z" fill="#263238"/>
<path d="M101.776 61.9808C101.747 62.0332 101.713 62.0825 101.674 62.128C101.59 62.2336 101.488 62.368 101.354 62.528C101.082 62.8768 100.672 63.3696 100.154 63.9648C98.7991 65.519 97.3624 66.9995 95.8496 68.4C94.3363 69.7991 92.75 71.1172 91.0976 72.3488C90.4576 72.8192 89.9392 73.1904 89.5712 73.4336L89.1456 73.7152C89.0983 73.7513 89.0467 73.7814 88.992 73.8048C89.0327 73.7619 89.0777 73.7233 89.1264 73.6896L89.5328 73.3696C89.8912 73.1072 90.4 72.7296 91.0272 72.24C92.2752 71.28 93.968 69.9008 95.7376 68.2656C97.5072 66.6304 99.008 65.0496 100.067 63.8752C100.595 63.2896 101.027 62.8096 101.306 62.4736L101.626 62.0928C101.728 62.0192 101.76 61.9776 101.776 61.9808Z" fill="#263238"/>
<path d="M113.942 98.88L117.76 87.1904C118.33 85.4432 118.954 83.6128 120.32 82.3904C121.117 81.6736 122.33 81.2064 123.258 81.7504C123.561 81.9549 123.811 82.2301 123.985 82.5522C124.159 82.8744 124.252 83.2339 124.256 83.6C124.261 84.3318 124.141 85.059 123.901 85.7504C122.365 91.072 120.496 96.288 118.554 101.475L118.752 101.117" fill="#90CAF9"/>
<path d="M119.04 96.2048C119.04 96.256 118.435 96.1248 117.76 95.8336C117.085 95.5424 116.57 95.216 116.598 95.168C116.627 95.12 117.165 95.3664 117.837 95.648C118.509 95.9296 119.062 96.1504 119.04 96.2048Z" fill="#263238"/>
<path d="M120.32 93.3824C120.298 93.4336 119.68 93.1808 118.896 92.8736C118.112 92.5664 117.494 92.3136 117.51 92.2592C117.526 92.2048 118.189 92.3744 118.97 92.688C119.75 93.0016 120.32 93.3312 120.32 93.3824Z" fill="#263238"/>
<path d="M121.491 91.0496C121.459 91.0976 120.851 90.7072 120.035 90.3584C119.219 90.0096 118.525 89.8304 118.538 89.7696C118.55 89.7088 119.283 89.8112 120.115 90.1728C120.947 90.5344 121.523 91.008 121.491 91.0496Z" fill="#263238"/>
<path d="M122.24 88.1088C122.202 88.1536 121.677 87.7216 120.941 87.3472C120.205 86.9728 119.555 86.7904 119.568 86.7328C119.581 86.6752 120.272 86.7744 121.034 87.168C121.795 87.5616 122.275 88.0736 122.24 88.1088Z" fill="#263238"/>
<path d="M113.866 88.8832H112.726V91.1392H113.866V88.8832Z" fill="#263238"/>
<path d="M112.592 95.5424V90.8352H113.981V94.7616C113.981 94.7616 115.443 94.8032 115.626 95.4464C116.026 96.8608 115.85 100.042 115.85 100.042L112.592 95.5424Z" fill="#455A64"/>
<path d="M124.608 108.051C124.214 105.686 123.61 103.347 123.494 100.954C123.418 99.312 123.574 97.6576 123.37 96.0256C123.123 94.0608 122.365 92.2016 121.613 90.3712C121.126 89.184 120.595 87.9392 119.581 87.1488C118.966 86.688 118.224 86.4297 117.456 86.4096C116.061 85.8368 112.234 85.6736 111.024 88.24C110.384 89.6032 110.307 91.1552 109.939 92.6208C109.446 94.592 109.802 95.2416 109.155 97.168C107.782 101.286 105.699 106.397 106.307 110.698C106.426 111.533 107.818 112.909 108.291 113.606C108.973 114.614 110.211 115.066 111.414 115.322C114.813 116.033 118.349 115.654 121.52 114.24C122.653 113.731 123.782 113.04 124.355 111.939C124.963 110.768 124.826 109.357 124.608 108.051ZM120.979 94.7712C120.339 95.3088 119.405 95.0464 118.576 95.0048C117.581 94.9536 116.608 95.2768 115.626 95.4464C114.643 95.616 113.546 95.6096 112.746 95.0016C112.161 94.5042 111.793 93.798 111.722 93.0336C111.653 92.2774 111.695 91.5153 111.846 90.7712C111.914 90.1901 112.062 89.6213 112.288 89.0816C112.517 88.5361 112.945 88.098 113.485 87.856C114.125 87.536 116.435 87.3248 117.325 87.1904C118.116 87.5873 118.804 88.1624 119.334 88.8704C120.045 89.8558 120.621 90.9321 121.046 92.0704C121.254 92.5062 121.39 92.9732 121.446 93.4528C121.476 93.6937 121.449 93.9381 121.368 94.1669C121.287 94.3956 121.154 94.6025 120.979 94.7712Z" fill="#FAFAFA"/>
<path d="M120.979 94.7712C121.135 94.6127 121.255 94.4214 121.328 94.2112C121.412 93.96 121.441 93.6939 121.414 93.4304C121.37 93.0753 121.275 92.7283 121.133 92.4C120.78 91.5024 120.364 90.6309 119.888 89.792C119.291 88.7135 118.391 87.8336 117.299 87.2608H117.344L115.472 87.5072C115.152 87.552 114.832 87.6032 114.493 87.664C114.164 87.7159 113.842 87.8039 113.533 87.9264C113.025 88.1539 112.62 88.5623 112.397 89.072C112.197 89.528 112.06 90.0093 111.99 90.5024C111.91 90.992 111.83 91.4624 111.798 91.9488C111.759 92.4131 111.785 92.8805 111.875 93.3376C111.966 93.7711 112.151 94.1796 112.416 94.5344C112.675 94.866 113.021 95.1195 113.414 95.2672C113.791 95.4006 114.189 95.4666 114.589 95.4624C115.314 95.4338 116.034 95.3265 116.736 95.1424C117.327 94.9995 117.933 94.9317 118.541 94.9408C119.075 94.9728 119.526 95.056 119.898 95.056C120.183 95.0701 120.467 95.0187 120.73 94.9056C120.906 94.8192 120.982 94.7488 120.989 94.7552C120.918 94.8286 120.836 94.8901 120.746 94.9376C120.481 95.0646 120.191 95.1271 119.898 95.12C119.52 95.12 119.062 95.056 118.538 95.0336C117.939 95.035 117.342 95.1102 116.762 95.2576C116.05 95.4441 115.321 95.5515 114.586 95.5776C114.169 95.5861 113.755 95.5189 113.363 95.3792C112.943 95.2273 112.573 94.9601 112.298 94.608C111.749 93.8247 111.513 92.8651 111.635 91.9168C111.667 91.4304 111.747 90.9568 111.827 90.4512C111.9 89.944 112.041 89.4488 112.246 88.9792C112.487 88.429 112.926 87.9892 113.475 87.7472C113.8 87.6189 114.138 87.5276 114.483 87.4752C114.803 87.4144 115.142 87.3632 115.469 87.3184L117.338 87.0784H117.363H117.386C118.501 87.6669 119.417 88.5735 120.016 89.6832C120.491 90.5306 120.899 91.4132 121.238 92.3232C121.379 92.6613 121.47 93.0182 121.507 93.3824C121.529 93.6551 121.491 93.9293 121.395 94.1856C121.335 94.3451 121.245 94.4917 121.13 94.6176C121.088 94.6767 121.037 94.7286 120.979 94.7712Z" fill="#263238"/>
<path d="M124.608 108.051C124.608 108.051 124.672 108.323 124.739 108.851C124.784 109.177 124.81 109.505 124.816 109.834C124.829 110.284 124.782 110.733 124.678 111.171C124.545 111.724 124.28 112.237 123.907 112.666C123.459 113.167 122.925 113.584 122.33 113.898C120.884 114.656 119.33 115.186 117.722 115.469C115.772 115.823 113.774 115.823 111.824 115.469C111.288 115.381 110.76 115.247 110.246 115.069C109.708 114.889 109.208 114.611 108.771 114.25C108.553 114.062 108.359 113.847 108.195 113.61C108.032 113.379 107.846 113.158 107.661 112.934C107.271 112.488 106.91 112.018 106.579 111.526C106.403 111.27 106.283 110.978 106.227 110.672C106.198 110.368 106.154 110.064 106.144 109.757C106.113 109.136 106.124 108.514 106.176 107.894C106.293 106.621 106.515 105.359 106.842 104.122C107.162 102.861 107.562 101.597 107.99 100.326C108.208 99.6864 108.429 99.0464 108.65 98.4064C108.87 97.7664 109.107 97.1264 109.29 96.4608C109.444 95.7901 109.539 95.1068 109.571 94.4192C109.63 93.7343 109.746 93.0556 109.92 92.3904C110.224 91.0784 110.33 89.7216 110.842 88.4832C110.903 88.3288 110.976 88.179 111.059 88.0352C111.136 87.8871 111.227 87.7467 111.331 87.616C111.53 87.3512 111.768 87.1172 112.035 86.9216C112.566 86.546 113.168 86.2835 113.805 86.1504C114.421 86.0153 115.053 85.9636 115.683 85.9968C116.301 86.0187 116.912 86.1364 117.494 86.3456H117.542V86.4L117.469 86.3232C118.369 86.3439 119.232 86.692 119.894 87.3024C120.494 87.9028 120.968 88.6163 121.29 89.4016C121.921 90.8226 122.474 92.2777 122.944 93.76C123.151 94.4438 123.306 95.1424 123.408 95.8496C123.493 96.5107 123.534 97.1767 123.533 97.8432C123.533 99.1232 123.488 100.301 123.568 101.363C123.64 102.312 123.761 103.256 123.93 104.192C124.07 105.011 124.205 105.712 124.31 106.282C124.416 106.851 124.493 107.286 124.544 107.584C124.566 107.728 124.582 107.84 124.595 107.92C124.608 108 124.595 108.035 124.595 108.035C124.595 108.035 124.595 107.997 124.57 107.923C124.544 107.85 124.531 107.731 124.506 107.587C124.445 107.286 124.362 106.851 124.25 106.288C124.138 105.725 123.994 105.024 123.843 104.205C123.669 103.267 123.542 102.32 123.462 101.37C123.376 100.301 123.424 99.1296 123.411 97.8496C123.407 97.1882 123.361 96.5277 123.274 95.872C123.172 95.1711 123.017 94.479 122.81 93.8016C122.331 92.3262 121.774 90.8777 121.139 89.4624C120.823 88.6955 120.358 87.9993 119.77 87.4144C119.133 86.8308 118.306 86.4987 117.443 86.48H117.37V86.4L117.418 86.4704C116.851 86.274 116.257 86.1661 115.658 86.1504C115.041 86.1191 114.424 86.1697 113.821 86.3008C113.206 86.4295 112.624 86.6844 112.112 87.0496C111.857 87.235 111.63 87.4572 111.44 87.7088C111.342 87.8337 111.256 87.9677 111.184 88.1088C111.103 88.2487 111.033 88.3942 110.973 88.544C110.477 89.7472 110.368 91.104 110.064 92.4224C109.891 93.08 109.775 93.7513 109.718 94.4288C109.685 95.125 109.59 95.8168 109.434 96.496C109.254 97.1712 109.014 97.8112 108.794 98.4576C108.573 99.104 108.355 99.7376 108.134 100.378C107.706 101.658 107.309 102.906 106.989 104.163C106.662 105.39 106.438 106.643 106.32 107.907C106.268 108.519 106.257 109.134 106.285 109.747C106.285 110.051 106.342 110.352 106.368 110.65C106.416 110.934 106.525 111.205 106.688 111.443C107.013 111.93 107.369 112.396 107.754 112.838C107.939 113.066 108.125 113.286 108.294 113.523C108.448 113.76 108.633 113.976 108.845 114.163C109.268 114.513 109.752 114.782 110.272 114.957C110.779 115.133 111.299 115.267 111.827 115.357C113.76 115.716 115.741 115.724 117.677 115.382C119.275 115.108 120.822 114.589 122.262 113.843C122.85 113.538 123.38 113.132 123.827 112.643C124.194 112.224 124.456 111.724 124.592 111.184C124.76 110.429 124.792 109.65 124.685 108.883C124.653 108.624 124.627 108.426 124.611 108.285C124.595 108.144 124.608 108.051 124.608 108.051Z" fill="#263238"/>
<path d="M120.979 94.7712C121.131 94.6102 121.247 94.4196 121.322 94.2112C121.405 93.96 121.435 93.6939 121.408 93.4304C121.364 93.0759 121.268 92.7298 121.123 92.4032C120.77 91.5061 120.353 90.6356 119.875 89.7984C119.28 88.7213 118.381 87.8432 117.29 87.2736H117.344L115.472 87.52C115.152 87.568 114.832 87.616 114.496 87.6768C114.168 87.7289 113.846 87.8158 113.536 87.936C113.033 88.1639 112.632 88.5696 112.41 89.0752C112.21 89.5301 112.074 90.0104 112.006 90.5024C111.923 90.9888 111.846 91.4624 111.811 91.9488C111.695 92.8486 111.914 93.7597 112.426 94.5088C112.682 94.8388 113.026 95.0904 113.418 95.2352C113.793 95.3683 114.188 95.4354 114.586 95.4336C115.31 95.4031 116.028 95.2959 116.73 95.1136C117.321 94.9691 117.929 94.9013 118.538 94.912C119.075 94.944 119.523 95.0304 119.894 95.0304C120.178 95.0457 120.462 94.9954 120.723 94.8832C120.899 94.8 120.976 94.7296 120.986 94.736C120.916 94.812 120.834 94.8748 120.742 94.9216C120.479 95.0515 120.188 95.1151 119.894 95.1072C119.517 95.1072 119.059 95.0432 118.534 95.024C117.936 95.0266 117.341 95.1029 116.762 95.2512C116.05 95.4445 115.319 95.5583 114.582 95.5904C114.165 95.596 113.751 95.5289 113.357 95.392C112.932 95.239 112.56 94.9695 112.282 94.6144C111.732 93.8268 111.495 92.8631 111.616 91.9104C111.648 91.424 111.728 90.9504 111.808 90.4448C111.878 89.9345 112.02 89.4367 112.23 88.9664C112.472 88.4133 112.913 87.9713 113.466 87.728C113.791 87.5971 114.13 87.5047 114.477 87.4528C114.797 87.3888 115.139 87.3408 115.462 87.296L117.334 87.056H117.363H117.389C118.506 87.6469 119.424 88.5555 120.026 89.6672C120.498 90.5163 120.906 91.3999 121.245 92.3104C121.386 92.6491 121.476 93.0073 121.51 93.3728C121.531 93.6468 121.492 93.922 121.395 94.1792C121.335 94.3387 121.245 94.4853 121.13 94.6112C121.09 94.6733 121.039 94.7275 120.979 94.7712Z" fill="#263238"/>
<path d="M122.016 104.794C121.99 104.581 121.911 104.379 121.786 104.205C121.661 104.031 121.495 103.891 121.302 103.798C120.707 103.539 120.022 103.898 119.59 104.39C119.158 104.883 118.925 105.504 118.538 106.019C118.197 106.465 117.759 106.826 117.256 107.073C116.753 107.321 116.199 107.449 115.638 107.446C114.275 107.446 112.915 106.643 111.613 107.046C111.168 107.184 110.723 107.533 110.72 108.006C110.749 108.326 110.896 108.623 111.133 108.838C111.783 109.533 112.639 110.002 113.574 110.176C115.194 110.121 116.786 109.749 118.262 109.082C119.971 108.352 121.229 107.45 121.818 106.048C121.998 105.656 122.067 105.222 122.016 104.794Z" fill="#E0E0E0"/>
<path d="M121.792 106.714C121.715 106.825 121.623 106.926 121.52 107.014C121.254 107.272 120.973 107.515 120.678 107.741C118.717 109.245 116.344 110.116 113.875 110.237C113.504 110.261 113.132 110.261 112.762 110.237C112.626 110.237 112.49 110.219 112.358 110.186C112.358 110.147 112.938 110.186 113.866 110.106C116.288 109.907 118.611 109.053 120.586 107.635C121.347 107.085 121.77 106.685 121.792 106.714Z" fill="#263238"/>
<path d="M121.322 99.488C121.325 99.6589 121.309 99.8296 121.274 99.9968C121.229 100.317 121.158 100.79 121.043 101.366C120.911 102.045 120.724 102.712 120.483 103.36C120.19 104.162 119.764 104.908 119.222 105.568C118.675 106.233 117.97 106.75 117.171 107.072C116.517 107.319 115.818 107.428 115.12 107.392C114.652 107.375 114.188 107.294 113.741 107.152C113.584 107.101 113.466 107.053 113.386 107.018C113.306 106.982 113.267 106.96 113.27 106.954C113.874 107.125 114.496 107.224 115.123 107.248C115.801 107.26 116.474 107.137 117.104 106.886C117.869 106.568 118.544 106.066 119.069 105.424C120.208 104.061 120.634 102.445 120.902 101.325C121.037 100.755 121.13 100.291 121.197 99.968C121.222 99.8043 121.264 99.6435 121.322 99.488Z" fill="#263238"/>
<path d="M110.979 105.088C110.777 104.956 110.604 104.783 110.474 104.579C110.121 104.116 109.863 103.587 109.715 103.024C109.564 102.46 109.523 101.872 109.594 101.293C109.608 101.052 109.671 100.817 109.779 100.602C109.846 100.602 109.552 101.69 109.907 102.97C110.262 104.25 111.04 105.05 110.979 105.088Z" fill="#263238"/>
<path d="M111.472 95.4816C111.336 95.0833 111.239 94.6729 111.181 94.256C110.982 93.2536 110.919 92.2288 110.995 91.2096C111.079 90.1786 111.44 89.1893 112.038 88.3456C112.222 88.0929 112.437 87.8649 112.678 87.6672C112.761 87.5866 112.857 87.5216 112.963 87.4752C112.673 87.7766 112.404 88.0973 112.157 88.4352C111.612 89.277 111.283 90.2396 111.197 91.2384C111.123 92.2415 111.165 93.2497 111.322 94.2432C111.398 94.6524 111.448 95.0661 111.472 95.4816Z" fill="#263238"/>
<path d="M108.858 54.1568L111.37 65.4464L112.122 83.168L117.594 82.7616L118.387 64.7008L116.608 53.1232L108.858 54.1568Z" fill="#CE947A"/>
<path d="M112.704 89.696C112.65 89.7214 112.591 89.7345 112.531 89.7344C112.472 89.7342 112.413 89.7208 112.359 89.695C112.305 89.6693 112.257 89.6319 112.22 89.5856C112.182 89.5393 112.155 89.4852 112.141 89.4272C111.933 88.6528 111.395 86.5472 111.408 85.7664C111.427 84.784 111.99 80.9984 111.99 80.9984L117.696 81.0368L119.13 86.2432C119.13 86.2432 118.755 88.3808 118.381 88.5056C118.143 88.5662 117.901 88.6132 117.658 88.6464L117.501 89.3024C117.181 90.304 115.994 90.0288 115.994 90.0288C115.941 90.2221 115.844 90.4007 115.712 90.551C115.579 90.7013 115.414 90.8193 115.229 90.896C115.057 90.9569 114.872 90.9678 114.695 90.9276C114.518 90.8874 114.355 90.7976 114.227 90.6688C114.227 90.6688 113.446 91.1264 113.104 90.7456C112.762 90.3648 112.858 89.5456 112.858 89.5456C112.825 89.612 112.771 89.6651 112.704 89.696Z" fill="#CE947A"/>
<path d="M112.87 89.9744C112.88 89.9161 112.88 89.8567 112.87 89.7984C112.872 89.6392 112.865 89.48 112.848 89.3216C112.816 88.9216 112.733 88.3616 112.64 87.7664C112.555 87.2528 112.5 86.7345 112.477 86.2144C112.477 85.8176 112.525 85.5744 112.509 85.5744C112.482 85.6268 112.464 85.6829 112.454 85.7408C112.422 85.8977 112.403 86.0573 112.4 86.2176C112.402 86.7432 112.448 87.2677 112.538 87.7856C112.63 88.3904 112.723 88.9376 112.774 89.3344C112.826 89.7312 112.854 89.9744 112.87 89.9744Z" fill="#A56349"/>
<path d="M114.195 90.6752C114.248 90.5425 114.278 90.4019 114.285 90.2592C114.324 89.9193 114.333 89.5767 114.314 89.2352C114.291 88.8352 114.253 88.4736 114.218 88.2176C114.209 88.0752 114.184 87.9344 114.141 87.7984C114.137 88.2792 114.158 88.7598 114.205 89.2384C114.224 89.5763 114.224 89.9149 114.205 90.2528C114.19 90.3931 114.186 90.5344 114.195 90.6752Z" fill="#A56349"/>
<path d="M116.006 90.0384C116.093 89.6382 116.122 89.2277 116.093 88.8192C116.097 88.4096 116.039 88.0017 115.92 87.6096C115.891 87.6096 115.965 88.1536 115.984 88.8224C116.003 89.4912 115.974 90.0352 116.006 90.0384Z" fill="#A56349"/>
<path d="M117.501 89.3024C117.633 88.6817 117.62 88.0388 117.462 87.424C117.452 87.7378 117.46 88.0519 117.485 88.3648C117.498 88.88 117.472 89.2992 117.501 89.3024Z" fill="#A56349"/>
<path d="M115.84 86.8288C115.84 86.8288 115.872 86.7616 115.84 86.6528C115.813 86.5109 115.738 86.3823 115.629 86.288C115.516 86.1959 115.375 86.1451 115.229 86.144C115.12 86.144 115.056 86.176 115.059 86.1888C115.238 86.2072 115.409 86.2687 115.558 86.368C115.689 86.4956 115.786 86.6541 115.84 86.8288Z" fill="#A56349"/>
<path d="M117.459 86.2848C117.488 86.2848 117.459 86.0704 117.238 85.9328C117.183 85.8856 117.115 85.8543 117.043 85.8425C116.971 85.8306 116.897 85.8386 116.829 85.8656C116.829 85.8976 117.008 85.904 117.181 86.0224C117.354 86.1408 117.44 86.2944 117.459 86.2848Z" fill="#A56349"/>
<path d="M113.949 86.5632C113.978 86.5632 113.987 86.4096 113.85 86.304C113.712 86.1984 113.565 86.24 113.574 86.2688C113.584 86.2976 113.686 86.3072 113.786 86.3872C113.885 86.4672 113.92 86.5664 113.949 86.5632Z" fill="#A56349"/>
<path d="M112 80.9984C111.999 81.0133 111.999 81.0283 112 81.0432L111.978 81.184C111.955 81.312 111.926 81.504 111.891 81.7248C111.818 82.1952 111.715 82.8832 111.6 83.7472C111.546 84.1824 111.485 84.656 111.434 85.1744C111.399 85.4428 111.387 85.7136 111.398 85.984C111.422 86.2717 111.46 86.558 111.514 86.8416C111.619 87.424 111.76 88.0352 111.917 88.6688C111.958 88.8256 111.997 88.9888 112.038 89.1488C112.061 89.2288 112.083 89.3088 112.102 89.392C112.122 89.483 112.164 89.5677 112.224 89.6384C112.289 89.7126 112.377 89.7625 112.474 89.78C112.572 89.7974 112.672 89.7814 112.758 89.7344C112.784 89.7155 112.802 89.6883 112.81 89.6576C112.819 89.6346 112.826 89.6111 112.832 89.5872C112.832 89.5424 112.851 89.5008 112.858 89.456C112.869 89.3658 112.875 89.275 112.877 89.184C112.877 89.1704 112.871 89.1574 112.862 89.1478C112.852 89.1382 112.839 89.1328 112.826 89.1328C112.812 89.1328 112.799 89.1382 112.789 89.1478C112.78 89.1574 112.774 89.1704 112.774 89.184C112.769 89.4147 112.777 89.6456 112.8 89.8752C112.818 90.1131 112.871 90.347 112.957 90.5696C113.004 90.6905 113.086 90.7943 113.194 90.8672C113.307 90.9315 113.438 90.9594 113.568 90.9472C113.818 90.9202 114.059 90.8406 114.275 90.7136H114.208C114.299 90.8076 114.408 90.8826 114.528 90.9344C114.684 90.9961 114.853 91.0196 115.02 91.0029C115.187 90.9862 115.347 90.9298 115.488 90.8384C115.759 90.6486 115.956 90.3703 116.045 90.0512L115.981 90.0896C116.301 90.1583 116.635 90.1328 116.941 90.016C117.088 89.9541 117.219 89.8602 117.326 89.7412C117.432 89.6222 117.51 89.4811 117.555 89.328C117.606 89.104 117.658 88.8864 117.709 88.6688L117.67 88.7072C117.811 88.688 117.952 88.6624 118.09 88.6368L118.294 88.5952L118.4 88.5664C118.439 88.5489 118.473 88.5239 118.502 88.4928C118.592 88.382 118.661 88.2564 118.707 88.1216C118.758 87.9936 118.8 87.8656 118.838 87.7376C118.975 87.2519 119.088 86.7595 119.174 86.2624V86.2432L118.112 82.4576C117.984 82.0128 117.885 81.6608 117.814 81.4144C117.779 81.2992 117.75 81.2064 117.731 81.1392C117.725 81.108 117.714 81.0779 117.699 81.0496C117.703 81.081 117.71 81.112 117.718 81.1424C117.738 81.2128 117.76 81.3024 117.789 81.4208C117.853 81.6704 117.949 82.0224 118.067 82.4736C118.314 83.3856 118.666 84.688 119.091 86.2688V86.2496C119.003 86.7426 118.89 87.2307 118.752 87.712C118.714 87.8368 118.672 87.9616 118.621 88.0864C118.578 88.2091 118.516 88.3237 118.435 88.4256C118.418 88.4463 118.396 88.4627 118.371 88.4736L118.275 88.4992L118.074 88.5408C117.936 88.5664 117.798 88.5888 117.658 88.608C117.648 88.6103 117.639 88.615 117.632 88.6218C117.624 88.6285 117.619 88.637 117.616 88.6464C117.565 88.864 117.514 89.0816 117.459 89.2864C117.422 89.4286 117.352 89.5603 117.255 89.6713C117.159 89.7822 117.038 89.8695 116.902 89.9264C116.618 90.0327 116.31 90.056 116.013 89.9936C115.999 89.992 115.986 89.9949 115.974 90.0018C115.963 90.0088 115.954 90.0194 115.949 90.032C115.867 90.3249 115.686 90.5804 115.437 90.7552C115.309 90.838 115.162 90.8891 115.01 90.9041C114.859 90.9191 114.705 90.8977 114.563 90.8416C114.454 90.7975 114.355 90.7323 114.272 90.6496C114.262 90.6426 114.25 90.6388 114.238 90.6388C114.226 90.6388 114.215 90.6426 114.205 90.6496C114.003 90.7689 113.778 90.8441 113.546 90.8704C113.435 90.8823 113.323 90.86 113.226 90.8064C113.138 90.7435 113.07 90.6569 113.03 90.5568C112.95 90.343 112.899 90.119 112.88 89.8912C112.859 89.6668 112.85 89.4414 112.854 89.216H112.752C112.75 89.3006 112.744 89.385 112.733 89.4688C112.733 89.5104 112.733 89.5552 112.71 89.5936C112.688 89.632 112.675 89.6736 112.685 89.6864C112.616 89.713 112.54 89.7207 112.467 89.7088C112.393 89.6922 112.326 89.653 112.275 89.5968C112.224 89.5401 112.19 89.4703 112.176 89.3952C112.157 89.312 112.134 89.232 112.112 89.152C112.07 88.992 112.029 88.832 111.99 88.672C111.83 88.032 111.67 87.4336 111.578 86.8544C111.523 86.574 111.484 86.291 111.459 86.0064C111.448 85.7405 111.457 85.474 111.488 85.2096C111.536 84.6944 111.59 84.2176 111.645 83.7856C111.754 82.928 111.84 82.24 111.901 81.7568C111.933 81.5264 111.955 81.344 111.971 81.216C111.971 81.1584 111.971 81.1104 111.971 81.0752C111.971 81.04 112 80.9984 112 80.9984Z" fill="#A56349"/>
<path d="M91.6928 32.64C93.5347 32.6435 95.3359 32.0987 96.8672 31.0752C96.8672 31.0752 95.6864 33.9552 91.6992 33.6736L91.6928 32.64Z" fill="#A56349"/>
<path opacity="0.3" d="M107.741 54.3072L108.858 54.1568L110.896 63.3184L110.784 65.36L111.51 68.8L111.754 74.5344C111.754 74.5344 109.005 65.9136 108.858 63.856C108.698 61.648 107.741 54.2944 107.741 54.2944" fill="black"/>
<path d="M57.8016 144.422C57.8016 144.422 58.1632 146.694 58.1504 147.091L59.7504 148.474L63.8336 147.562L64.1696 144.221L57.8016 144.422Z" fill="#F4C3AE"/>
<path d="M63.9168 147.059V147.424C63.9168 147.424 70.0896 149.818 70.1696 150.982L57.9712 151.066L58.1088 147.005C59.016 147.431 60.0045 147.657 61.0069 147.666C62.0092 147.676 63.0018 147.469 63.9168 147.059Z" fill="#90CAF9"/>
<g opacity="0.6">
<path d="M57.9776 151.066L58.0096 150.09L69.6896 150.365C69.6896 150.365 70.2336 150.598 70.176 150.982L57.9776 151.066Z" fill="white"/>
</g>
<path d="M63.968 147.456C63.968 147.517 63.6672 147.546 63.376 147.738C63.0848 147.93 62.9312 148.186 62.8736 148.16C62.816 148.134 62.9056 147.792 63.264 147.565C63.6224 147.338 63.9808 147.402 63.968 147.456Z" fill="#263238"/>
<path d="M65.2512 147.978C65.2512 148.035 65.008 148.138 64.8064 148.39C64.6048 148.643 64.5504 148.912 64.4864 148.909C64.4224 148.906 64.3872 148.57 64.6432 148.269C64.8992 147.968 65.248 147.92 65.2512 147.978Z" fill="#263238"/>
<path d="M65.9872 149.504C65.9328 149.504 65.8496 149.219 65.9872 148.893C66.1248 148.566 66.416 148.432 66.4416 148.483C66.4672 148.534 66.2944 148.707 66.176 148.979C66.0576 149.251 66.048 149.498 65.9872 149.504Z" fill="#263238"/>
<path d="M71.0848 144.422C71.0848 144.422 71.4464 146.694 71.4336 147.091L73.0336 148.474L77.12 147.562L77.4592 144.221L71.0848 144.422Z" fill="#F4C3AE"/>
<path d="M77.2032 147.059V147.424C77.2032 147.424 83.376 149.818 83.456 150.982L71.2544 151.066L71.392 147.005C72.2997 147.431 73.2888 147.657 74.2917 147.666C75.2945 147.676 76.2876 147.469 77.2032 147.059Z" fill="#90CAF9"/>
<g opacity="0.6">
<path d="M71.2608 151.066L71.296 150.09L82.976 150.365C82.976 150.365 83.52 150.598 83.4624 150.982L71.2608 151.066Z" fill="white"/>
</g>
<path d="M77.2512 147.456C77.2512 147.517 76.9536 147.546 76.6592 147.738C76.3648 147.93 76.2144 148.186 76.16 148.16C76.1056 148.134 76.192 147.792 76.5472 147.565C76.9024 147.338 77.264 147.402 77.2512 147.456Z" fill="#263238"/>
<path d="M78.5344 147.978C78.5344 148.035 78.2912 148.138 78.0896 148.39C77.888 148.643 77.8336 148.912 77.7696 148.909C77.7056 148.906 77.6704 148.57 77.9264 148.269C78.1824 147.968 78.5344 147.92 78.5344 147.978Z" fill="#263238"/>
<path d="M79.2704 149.504C79.2192 149.504 79.1328 149.219 79.2704 148.893C79.408 148.566 79.6992 148.432 79.7248 148.483C79.7504 148.534 79.5776 148.707 79.4592 148.979C79.3408 149.251 79.3312 149.498 79.2704 149.504Z" fill="#263238"/>
<path d="M81.3472 87.4592H54.5312L51.76 100.157L57.2992 145.302H65.8752L67.8368 105.539L69.9008 145.302H79.0944L82.9568 100.656L81.3472 87.4592Z" fill="#263238"/>
<path d="M60.848 144.672C60.8 144.672 60.6848 136.714 60.5856 126.902C60.4864 117.091 60.4448 109.12 60.48 109.12C60.5152 109.12 60.6432 117.072 60.7392 126.89C60.8352 136.707 60.8928 144.669 60.848 144.672Z" fill="#455A64"/>
<path d="M74.5792 144.518C74.5763 144.485 74.5763 144.452 74.5792 144.419C74.5792 144.346 74.5952 144.25 74.608 144.128C74.6368 143.862 74.6752 143.488 74.7296 143.011C74.8384 142.051 74.9856 140.64 75.152 138.906C75.3184 137.171 75.472 135.104 75.6416 132.803C75.8112 130.502 75.9136 127.974 75.9904 125.318C76.0672 122.662 76.0768 120.125 76.0608 117.821C76.0448 115.517 75.9808 113.443 75.9104 111.702C75.84 109.962 75.7728 108.55 75.7152 107.578C75.6928 107.101 75.6736 106.726 75.6576 106.458C75.6576 106.336 75.6576 106.24 75.6576 106.166C75.6554 106.133 75.6554 106.1 75.6576 106.067C75.6679 106.099 75.6733 106.133 75.6736 106.166L75.7024 106.454C75.7216 106.723 75.7536 107.094 75.792 107.574C75.8688 108.534 75.9552 109.955 76.0384 111.696C76.1216 113.437 76.1888 115.514 76.224 117.821C76.2592 120.128 76.224 122.662 76.1664 125.322C76.1088 127.981 75.9584 130.515 75.8048 132.816C75.6512 135.117 75.4624 137.184 75.28 138.918C75.0976 140.653 74.9344 142.054 74.8032 143.021C74.736 143.494 74.688 143.866 74.6496 144.131C74.6496 144.253 74.6176 144.349 74.608 144.422C74.6018 144.455 74.5922 144.488 74.5792 144.518Z" fill="#455A64"/>
<path d="M66.8384 46.72L56.5984 47.2736L55.7632 51.1328C55.7632 51.1328 58.5888 53.4016 58.8704 53.4944C59.152 53.5872 65.5904 54.4864 65.5904 54.4864C65.5904 54.4864 72.5184 51.2576 72.4256 51.2864C72.3328 51.3152 66.8384 46.72 66.8384 46.72Z" fill="#F4C3AE"/>
<path d="M57.92 28.848C57.3376 28.2432 56.352 28.3584 55.5264 28.528C55.04 28.5977 54.5666 28.7389 54.1216 28.9472C53.8999 29.0542 53.7042 29.208 53.5478 29.3981C53.3914 29.5881 53.2782 29.8099 53.216 30.048C53.072 30.7808 53.5936 31.5072 53.5008 32.2496C53.452 32.5081 53.3478 32.7529 53.1953 32.9672C53.0429 33.1816 52.8458 33.3603 52.6176 33.4912C52.1595 33.751 51.6657 33.9418 51.152 34.0576C51.4042 34.3761 51.7199 34.6384 52.0792 34.828C52.4384 35.0175 52.8332 35.13 53.2384 35.1584C53.1904 35.424 52.8512 35.5008 52.5984 35.536C52.3456 35.5712 51.9904 35.7216 52.0288 35.9904C52.066 36.1242 52.1531 36.2387 52.272 36.3104C53.6911 37.373 55.4395 37.9011 57.2096 37.8016C58.0352 37.7536 58.9088 37.5328 59.4496 36.9152C59.9904 36.2976 60.0896 35.5168 60.0896 34.7456C60.0743 33.6855 59.8332 32.6409 59.3824 31.6813C58.9316 30.7218 58.2814 29.8693 57.4752 29.1808" fill="#E0E0E0"/>
<path d="M57.4688 29.232C57.3414 28.7044 57.3368 28.1546 57.4553 27.6248C57.5737 27.0951 57.8121 26.5996 58.1521 26.1765C58.4921 25.7534 58.9246 25.4139 59.4164 25.1841C59.9082 24.9544 60.4461 24.8405 60.9888 24.8512C61.3675 24.9045 61.753 24.8794 62.1216 24.7776C62.4274 24.6048 62.7013 24.3808 62.9312 24.1152C63.68 23.4368 64.7232 23.2096 65.7184 23.0528C67.136 22.8288 68.6208 22.7008 69.9744 23.1712C71.328 23.6416 72.5152 24.8576 72.5344 26.2912C72.5344 26.9312 72.3328 27.5328 72.2976 28.16C72.2624 28.7872 72.4704 29.5072 73.04 29.76C73.408 29.9328 73.888 29.9008 74.1504 30.2112C74.2463 30.3541 74.2954 30.5233 74.2908 30.6953C74.2862 30.8673 74.2282 31.0337 74.1248 31.1712C73.9034 31.4409 73.6261 31.6593 73.312 31.8112C73.5724 31.8815 73.8025 32.0355 73.9668 32.2494C74.131 32.4634 74.2203 32.7255 74.2208 32.9952C74.211 33.2648 74.1416 33.5288 74.0177 33.7684C73.8938 34.0079 73.7183 34.2171 73.504 34.3808C73.0726 34.7041 72.5756 34.9291 72.048 35.04C69.5744 35.6576 66.9472 35.0208 64.6208 33.9808C62.0544 32.8279 59.7297 31.1991 57.7696 29.1808L57.968 28.9536" fill="#E0E0E0"/>
<path d="M56.8352 30.4224C56.9152 30.1952 57.584 28.6624 57.824 28.6784C57.9936 28.6784 57.5968 30.112 57.6864 30.2592C58.5536 31.6512 58.8288 33.3472 58.7456 34.9856C58.6468 36.5764 58.3699 38.151 57.92 39.68" fill="#E0E0E0"/>
<path d="M57.92 39.68C57.3448 38.2015 56.8994 36.6757 56.5888 35.12L57.92 39.68Z" fill="#E0E0E0"/>
<path d="M62.5984 52.7712C61.4163 52.7801 60.2776 52.3261 59.426 51.5062C58.5744 50.6863 58.0775 49.5656 58.0416 48.384L57.6 33.6C57.3536 29.6288 59.4592 26.176 63.4336 26.0416H63.8016C65.587 26.0863 67.2901 26.8015 68.572 28.0449C69.854 29.2884 70.6208 30.9689 70.72 32.752C70.9152 36.1952 71.0848 40 71.0176 41.84C70.8768 45.6544 67.0496 46.1568 67.0496 46.1568C67.0496 46.1568 67.0496 47.04 67.0752 48.16C67.0862 48.7576 66.9788 49.3514 66.7592 49.9073C66.5396 50.4632 66.2121 50.97 65.7956 51.3987C65.3791 51.8274 64.8819 52.1694 64.3326 52.4049C63.7833 52.6405 63.1928 52.765 62.5952 52.7712H62.5984Z" fill="#F4C3AE"/>
<path d="M67.056 46.2016C65.293 46.1511 63.5816 45.5958 62.1248 44.6016C62.1248 44.6016 63.2672 47.4048 67.0816 47.1616L67.056 46.2016Z" fill="#CC937F"/>
<path d="M64.3808 40.0384C64.4645 39.9476 64.5676 39.8769 64.6824 39.8314C64.7972 39.7859 64.9208 39.7669 65.0439 39.7756C65.1671 39.7844 65.2867 39.8209 65.3939 39.8822C65.5011 39.9435 65.593 40.0282 65.663 40.13C65.733 40.2317 65.7791 40.3479 65.798 40.4699C65.817 40.592 65.8082 40.7167 65.7723 40.8348C65.7364 40.953 65.6744 41.0616 65.5909 41.1525C65.5073 41.2434 65.4043 41.3143 65.2896 41.36C65.0768 41.4382 64.8442 41.445 64.6272 41.3792C64.4601 41.3395 64.3099 41.2476 64.1984 41.1168C64.1306 41.0144 64.0895 40.8966 64.0789 40.7741C64.0682 40.6517 64.0884 40.5286 64.1376 40.416C64.2116 40.2266 64.3354 40.0607 64.496 39.936" fill="#CC937F"/>
<path d="M69.76 35.312C69.7583 35.4541 69.7012 35.5899 69.6007 35.6903C69.5002 35.7908 69.3645 35.8479 69.2224 35.8496C69.1528 35.8535 69.0832 35.8434 69.0176 35.8199C68.952 35.7964 68.8918 35.7601 68.8405 35.7129C68.7892 35.6658 68.7479 35.6089 68.7189 35.5455C68.69 35.4822 68.674 35.4136 68.672 35.344C68.6745 35.2022 68.7319 35.0669 68.8322 34.9666C68.9325 34.8663 69.0678 34.8089 69.2096 34.8064C69.2791 34.8025 69.3488 34.8126 69.4144 34.8361C69.48 34.8596 69.5402 34.8959 69.5915 34.9431C69.6428 34.9902 69.6841 35.0471 69.7131 35.1105C69.742 35.1739 69.758 35.2424 69.76 35.312Z" fill="#263238"/>
<path d="M69.8784 34.6112C69.808 34.6784 69.4016 34.3648 68.816 34.352C68.2304 34.3392 67.792 34.6208 67.7312 34.5504C67.6704 34.48 67.7728 34.3904 67.9648 34.2592C68.2226 34.0893 68.5266 34.0033 68.8352 34.0128C69.1399 34.019 69.4347 34.1221 69.6768 34.3072C69.8528 34.448 69.9104 34.5792 69.8784 34.6112Z" fill="#263238"/>
<path d="M64.272 35.312C64.2695 35.4544 64.2116 35.5901 64.1107 35.6905C64.0097 35.7909 63.8736 35.848 63.7312 35.8496C63.6619 35.853 63.5926 35.8426 63.5274 35.819C63.4622 35.7953 63.4023 35.7588 63.3514 35.7118C63.3004 35.6647 63.2594 35.6079 63.2306 35.5448C63.2019 35.4816 63.186 35.4134 63.184 35.344C63.1857 35.2019 63.2428 35.0662 63.3433 34.9657C63.4437 34.8652 63.5795 34.8081 63.7216 34.8064C63.7911 34.8025 63.8608 34.8126 63.9264 34.8361C63.9919 34.8596 64.0522 34.8959 64.1035 34.9431C64.1548 34.9902 64.1961 35.0471 64.2251 35.1105C64.254 35.1739 64.27 35.2424 64.272 35.312Z" fill="#263238"/>
<path d="M64.2336 34.6144C64.1664 34.6848 63.76 34.368 63.1744 34.3552C62.5888 34.3424 62.1504 34.6272 62.0896 34.5536C62.0288 34.48 62.128 34.3936 62.32 34.2624C62.578 34.0929 62.8819 34.0068 63.1904 34.016C63.4957 34.0243 63.7909 34.1272 64.0352 34.3104C64.2112 34.4544 64.2688 34.5824 64.2336 34.6144Z" fill="#263238"/>
<path d="M66.1184 39.0176C66.4305 38.9259 66.7532 38.8753 67.0784 38.8672C67.2288 38.8672 67.3728 38.8288 67.3984 38.7264C67.4157 38.5724 67.3844 38.4169 67.3088 38.2816L66.88 37.12C66.304 35.4848 65.8912 34.1376 65.9552 34.1152C66.0192 34.0928 66.544 35.3952 67.1168 37.04C67.2576 37.4432 67.3888 37.8304 67.5136 38.1984C67.6053 38.3805 67.628 38.5897 67.5776 38.7872C67.5549 38.8391 67.5206 38.8852 67.4773 38.9218C67.434 38.9584 67.383 38.9846 67.328 38.9984C67.2446 39.0208 67.1583 39.0306 67.072 39.0272C66.7549 39.0628 66.4347 39.0595 66.1184 39.0176Z" fill="#263238"/>
<path d="M64.384 39.3792C64.48 39.3792 64.464 40.0192 64.9984 40.4768C65.5328 40.9344 66.2112 40.8896 66.2144 40.9792C66.2144 41.0176 66.0608 41.0976 65.776 41.1008C65.4024 41.0956 65.0424 40.9597 64.7584 40.7168C64.487 40.484 64.317 40.1545 64.2848 39.7984C64.2656 39.5328 64.3392 39.376 64.384 39.3792Z" fill="#263238"/>
<path d="M64.32 32.32C64.256 32.4768 63.68 32.3872 62.9856 32.4544C62.2912 32.5216 61.7344 32.6944 61.6448 32.5504C61.6064 32.48 61.7056 32.3328 61.936 32.1856C62.2379 31.9994 62.5805 31.8896 62.9344 31.8656C63.2868 31.8309 63.6424 31.8814 63.9712 32.0128C64.2048 32.1216 64.32 32.2496 64.32 32.32Z" fill="#E0E0E0"/>
<path d="M69.6864 32.96C69.5808 33.0912 69.1808 32.96 68.6944 32.9248C68.208 32.8896 67.7952 32.992 67.7056 32.8512C67.664 32.784 67.7312 32.6528 67.9168 32.5312C68.1603 32.3845 68.4426 32.3153 68.7264 32.3328C69.0124 32.3446 69.2875 32.4453 69.5136 32.6208C69.68 32.7424 69.7344 32.88 69.6864 32.96Z" fill="#E0E0E0"/>
<path d="M57.84 36.48C57.776 36.4512 55.2384 35.6416 55.2576 38.2528C55.2768 40.864 57.8944 40.304 57.8976 40.2272C57.9008 40.1504 57.84 36.48 57.84 36.48Z" fill="#F4C3AE"/>
<path d="M57.0944 39.2384C57.0944 39.2384 57.0496 39.2704 56.9728 39.3056C56.8641 39.3501 56.7423 39.3501 56.6336 39.3056C56.3552 39.2096 56.1184 38.7712 56.1024 38.3008C56.0969 38.0809 56.1395 37.8625 56.2272 37.6608C56.2504 37.5787 56.2935 37.5037 56.3527 37.4423C56.4119 37.3809 56.4853 37.335 56.5664 37.3088C56.6184 37.2938 56.674 37.2977 56.7232 37.32C56.7725 37.3423 56.8122 37.3815 56.8352 37.4304C56.8704 37.504 56.8544 37.5552 56.8672 37.5584C56.88 37.5616 56.9248 37.5168 56.9024 37.408C56.885 37.344 56.8481 37.2869 56.7968 37.2448C56.7615 37.217 56.7208 37.1969 56.6772 37.1859C56.6337 37.1748 56.5883 37.1731 56.544 37.1808C56.4372 37.2033 56.3379 37.2527 56.2555 37.3244C56.1732 37.3961 56.1106 37.4877 56.0736 37.5904C55.9644 37.8164 55.9127 38.066 55.9232 38.3168C55.9424 38.8448 56.2144 39.3344 56.5952 39.44C56.6651 39.4598 56.7386 39.4634 56.8101 39.4507C56.8816 39.4379 56.9493 39.4091 57.008 39.3664C57.088 39.3024 57.104 39.2448 57.0944 39.2384Z" fill="#CC937F"/>
<path d="M69.0496 28.5568C69.4688 28.3168 68.0896 26.9152 67.0496 26.4608C65.4688 25.776 63.0656 25.3792 61.6256 25.8208C59.8912 26.3456 58.4608 27.2352 57.6128 28.8352C56.7961 30.4628 56.4283 32.2788 56.5472 34.096C56.5696 34.6464 55.5232 34.9632 55.8272 35.4272C56.1952 35.9904 56.1088 35.7248 56.7392 36.5056C56.9152 36.7264 57.1904 36.976 57.3792 37.1872C57.872 37.7536 59.104 37.8656 59.3696 37.3696C59.9186 36.4418 60.2195 35.3882 60.2432 34.3104C60.2656 33.5104 60.2816 32.2976 60.0704 31.5264C59.991 31.2401 59.9554 30.9434 59.9648 30.6464C59.9657 30.1588 60.108 29.682 60.3744 29.2736C60.4452 29.187 60.5234 29.1067 60.608 29.0336C60.9194 28.7675 61.2951 28.5876 61.6976 28.5118C62.1002 28.4361 62.5155 28.467 62.9024 28.6016C64.3904 29.0944 65.5904 29.9072 67.2928 29.1776C67.5848 29.0187 67.8348 28.7928 68.0224 28.5184C68.1653 28.3919 68.3505 28.3237 68.5413 28.3272C68.7322 28.3308 68.9147 28.4059 69.0528 28.5376L69.0496 28.5568Z" fill="#E0E0E0"/>
<path d="M60.3776 29.1392C60.7988 28.9045 61.263 28.7571 61.7425 28.706C62.2219 28.6548 62.7068 28.701 63.168 28.8416C63.9456 29.0816 64.6176 29.5808 65.3664 29.9008C66.2077 30.249 67.1256 30.3705 68.0285 30.2531C68.9314 30.1358 69.7877 29.7837 70.512 29.232C70.723 29.0954 70.903 28.916 71.0402 28.7054C71.1775 28.4949 71.269 28.2578 71.3088 28.0096C71.3104 27.7998 71.2649 27.5923 71.1757 27.4024C71.0866 27.2124 70.956 27.0449 70.7936 26.912C70.4671 26.6504 70.0934 26.4538 69.6928 26.3328C67.8563 25.7396 65.9053 25.5904 64 25.8976C62.4672 26.1152 60.9024 26.592 59.7984 27.6704C59.6467 27.8066 59.5256 27.9735 59.4432 28.16C59.4016 28.2563 59.3857 28.3618 59.3969 28.466C59.4081 28.5703 59.4461 28.67 59.5072 28.7552C59.5726 28.8365 59.6673 28.8888 59.7709 28.9008C59.8745 28.9127 59.9786 28.8834 60.0608 28.8192" fill="#E0E0E0"/>
<path d="M70.5728 35.1552C70.5728 35.2 70.432 35.2544 70.2528 35.312C70.0736 35.3696 69.9328 35.4176 69.904 35.3792C69.8752 35.3408 70.0032 35.2224 70.1984 35.1552C70.3936 35.088 70.5696 35.1104 70.5728 35.1552Z" fill="#CC937F"/>
<path d="M70.7968 35.568C70.7968 35.6128 70.6016 35.6224 70.3776 35.6256C70.1536 35.6288 69.9648 35.6256 69.9584 35.568C69.952 35.5104 70.1376 35.456 70.3776 35.456C70.6176 35.456 70.8032 35.52 70.7968 35.568Z" fill="#CC937F"/>
<path d="M61.7056 35.328C61.7056 35.376 61.4464 35.3856 61.1328 35.3856C60.8192 35.3856 60.5632 35.3856 60.56 35.328C60.5568 35.2704 60.8096 35.216 61.1328 35.2192C61.456 35.2224 61.712 35.2832 61.7056 35.328Z" fill="#CC937F"/>
<path d="M61.6736 35.856C61.6736 35.904 61.4432 35.8976 61.1744 35.8976C60.9056 35.8976 60.688 35.8976 60.6784 35.8592C60.6688 35.8208 60.8896 35.7312 61.1744 35.7312C61.4592 35.7312 61.6832 35.8144 61.6736 35.856Z" fill="#CC937F"/>
<path d="M64.0832 36.7104C64.0832 36.7104 64.0096 36.8288 63.8208 36.9344C63.5717 37.0673 63.2891 37.1241 63.008 37.0976C62.7254 37.0678 62.4575 36.9566 62.2368 36.7776C62.0736 36.6368 62.0096 36.5184 62.0256 36.5056C62.3224 36.7191 62.6638 36.8624 63.024 36.9248C63.3885 36.9319 63.7501 36.8587 64.0832 36.7104Z" fill="#CC937F"/>
<path d="M64.3488 36.5824C64.368 36.624 64.0896 36.768 63.7088 36.768C63.5953 36.782 63.4802 36.773 63.3703 36.7417C63.2604 36.7104 63.1578 36.6573 63.0688 36.5856C63.0688 36.5408 63.3632 36.6048 63.7088 36.5856C64.0544 36.5664 64.32 36.5376 64.3488 36.5824Z" fill="#CC937F"/>
<path d="M70.016 36.2176C69.733 36.3973 69.4114 36.5072 69.0776 36.5383C68.7438 36.5695 68.4074 36.521 68.096 36.3968C68.096 36.3488 68.5312 36.4224 69.056 36.3712C69.5808 36.32 69.9968 36.16 70.016 36.2176Z" fill="#CC937F"/>
<path d="M69.7312 36.4192C69.5157 36.6593 69.2265 36.821 68.9091 36.8789C68.5917 36.9368 68.264 36.8877 67.9776 36.7392C68.2785 36.7533 68.58 36.7469 68.88 36.72C69.17 36.6384 69.4543 36.5379 69.7312 36.4192Z" fill="#CC937F"/>
<path d="M68.5152 31.7696C68.3033 31.8546 68.0801 31.9085 67.8528 31.9296C67.3116 32.0097 66.7642 32.0386 66.2176 32.016C65.671 31.9946 65.1277 31.9207 64.5952 31.7952C64.3717 31.7604 64.1555 31.689 63.9552 31.584C63.9552 31.5328 64.9664 31.8048 66.2304 31.8496C67.4944 31.8944 68.5056 31.7184 68.5152 31.7696Z" fill="#CC937F"/>
<path d="M68.912 31.312C67.5147 31.5807 66.0789 31.5807 64.6816 31.312C64.6816 31.264 65.6416 31.3536 66.7968 31.3536C67.952 31.3536 68.9056 31.264 68.912 31.312Z" fill="#CC937F"/>
<path d="M65.936 33.2032C65.888 33.2032 65.8752 33.0816 65.8688 32.9504C65.8624 32.8192 65.8688 32.704 65.9168 32.6912C65.9648 32.6784 66.032 32.7904 66.0352 32.944C66.0384 33.0976 65.9776 33.216 65.936 33.2032Z" fill="#CC937F"/>
<path d="M66.7392 33.3088C66.7232 33.3504 66.5376 33.3088 66.4608 33.0912C66.384 32.8736 66.4768 32.72 66.5184 32.7424C66.56 32.7648 66.5568 32.8896 66.6144 33.0304C66.672 33.1712 66.7616 33.28 66.7392 33.3088Z" fill="#CC937F"/>
<path d="M64.2976 39.2128C64.2976 39.2608 64.112 39.2896 63.9488 39.4272C63.7856 39.5648 63.712 39.7472 63.6672 39.7216C63.6224 39.696 63.6224 39.4752 63.8432 39.296C64.064 39.1168 64.32 39.168 64.2976 39.2128Z" fill="#CC937F"/>
<path d="M63.6128 39.1648C63.6128 39.2096 63.504 39.2352 63.4304 39.3248C63.3568 39.4144 63.3376 39.5104 63.2928 39.5264C63.248 39.5424 63.2416 39.504 63.232 39.44C63.2269 39.3995 63.2309 39.3584 63.2436 39.3197C63.2563 39.281 63.2775 39.2455 63.3056 39.216C63.3317 39.1843 63.3644 39.1588 63.4015 39.1411C63.4385 39.1234 63.479 39.114 63.52 39.1136C63.584 39.1136 63.616 39.1424 63.6128 39.1648Z" fill="#CC937F"/>
<path d="M61.136 49.3792C61.136 49.3792 61.0592 49.3792 60.9568 49.2896C60.8208 49.1644 60.7326 48.9959 60.7072 48.8128C60.6661 48.5487 60.6769 48.2791 60.7392 48.0192C60.8191 47.728 60.8191 47.4207 60.7392 47.1296C60.6848 46.9888 60.5792 46.8576 60.5152 46.6912C60.4622 46.5301 60.4622 46.3563 60.5152 46.1952C60.5512 46.0752 60.5512 45.9472 60.5152 45.8272C60.4723 45.7211 60.4176 45.6202 60.352 45.5264C60.2949 45.4519 60.2559 45.3651 60.2381 45.2729C60.2203 45.1807 60.2243 45.0856 60.2496 44.9952C60.304 44.8608 60.3936 44.8448 60.3936 44.8544C60.3936 44.864 60.336 44.9024 60.3104 45.0112C60.3012 45.0921 60.309 45.1739 60.3333 45.2516C60.3575 45.3293 60.3977 45.4011 60.4512 45.4624C60.5291 45.5607 60.5947 45.6682 60.6464 45.7824C60.6911 45.9284 60.6911 46.0844 60.6464 46.2304C60.603 46.3613 60.603 46.5027 60.6464 46.6336C60.6976 46.768 60.8 46.896 60.8704 47.0688C60.965 47.3883 60.965 47.7284 60.8704 48.048C60.8052 48.2908 60.7824 48.543 60.8032 48.7936C60.8179 48.9582 60.8801 49.115 60.9824 49.2448C61.0816 49.3344 61.1424 49.3664 61.136 49.3792Z" fill="#CC937F"/>
<path d="M62.7936 49.696C62.7936 49.696 62.7104 49.696 62.5952 49.6288C62.444 49.5088 62.3325 49.346 62.2752 49.1616C62.0695 48.5909 61.9257 47.9998 61.8464 47.3984C61.83 47.224 61.8247 47.0487 61.8304 46.8736C61.8412 46.7191 61.8412 46.5641 61.8304 46.4096C61.8304 46.1216 61.5424 46.0224 61.36 45.856C61.2704 45.7811 61.2103 45.6767 61.1904 45.5616C61.1853 45.5164 61.1907 45.4706 61.2063 45.4279C61.2218 45.3851 61.247 45.3465 61.28 45.3152C61.3984 45.2096 61.4976 45.2736 61.4848 45.28C61.472 45.2864 61.4016 45.28 61.328 45.36C61.3071 45.3857 61.2921 45.4155 61.2838 45.4476C61.2755 45.4796 61.2742 45.513 61.28 45.5456C61.3073 45.6341 61.3622 45.7115 61.4368 45.7664C61.52 45.8368 61.632 45.8912 61.7568 45.9776C61.8221 46.0268 61.8768 46.0888 61.9175 46.1597C61.9582 46.2307 61.9841 46.3091 61.9936 46.3904C62.0064 46.5533 62.0064 46.717 61.9936 46.88C61.9906 47.0477 61.997 47.2154 62.0128 47.3824C62.0937 47.9712 62.2189 48.5531 62.3872 49.1232C62.4266 49.2928 62.5093 49.4494 62.6272 49.5776C62.72 49.664 62.7968 49.6832 62.7936 49.696Z" fill="#CC937F"/>
<path d="M63.5264 24.3648C63.572 24.3332 63.6215 24.3074 63.6736 24.288C63.7739 24.239 63.9211 24.1782 64.1152 24.1056C64.6662 23.9088 65.2388 23.7788 65.8208 23.7184C66.6867 23.6241 67.5624 23.6793 68.4096 23.8816C68.9156 23.9917 69.4029 24.175 69.856 24.4256C70.3605 24.6855 70.771 25.0968 71.0299 25.6018C71.2887 26.1069 71.3829 26.6803 71.2992 27.2416C71.237 27.7615 71.0552 28.2598 70.768 28.6976C70.5049 29.0863 70.1611 29.4137 69.76 29.6576C69.4145 29.8768 69.0365 30.0398 68.64 30.1408C68.0715 30.2908 67.48 30.3332 66.896 30.2656C66.7378 30.2477 66.5808 30.221 66.4256 30.1856C66.3703 30.1771 66.3165 30.1609 66.2656 30.1376C66.2656 30.1376 66.4928 30.1728 66.9056 30.2016C67.4809 30.2407 68.0586 30.1822 68.6144 30.0288C68.9954 29.9223 69.358 29.7583 69.6896 29.5424C70.0726 29.3003 70.3998 28.9797 70.6496 28.6016C70.9187 28.1811 71.0893 27.7053 71.1488 27.2096C71.2245 26.6803 71.1341 26.1404 70.8899 25.6647C70.6457 25.1889 70.2599 24.8007 69.7856 24.5536C69.3458 24.3098 68.874 24.1289 68.384 24.016C67.5527 23.8101 66.6928 23.7452 65.84 23.824C65.2649 23.8698 64.6963 23.9771 64.144 24.144C63.744 24.2912 63.5328 24.3808 63.5264 24.3648Z" fill="white"/>
<path d="M72.4224 26.0544C72.4874 26.2618 72.4951 26.4829 72.4448 26.6944C72.3465 27.2105 72.1123 27.691 71.7664 28.0864C71.4269 28.4762 71.0336 28.8156 70.5984 29.0944C70.4315 29.2273 70.2461 29.3352 70.048 29.4144C70.1918 29.2587 70.3541 29.1212 70.5312 29.0048C70.9334 28.7011 71.3053 28.3593 71.6416 27.984C71.9648 27.6041 72.1969 27.1553 72.32 26.672C72.4192 26.3008 72.3936 26.0576 72.4224 26.0544Z" fill="white"/>
<path d="M62.72 26.5152C61.9982 26.7466 61.3089 27.0692 60.6688 27.4752C60.1632 27.84 59.7088 28.2176 59.5648 28.5888C59.4873 28.7927 59.4653 29.0136 59.5008 29.2288C59.5008 29.2288 59.4496 29.1808 59.4208 29.0624C59.3821 28.8922 59.3932 28.7145 59.4528 28.5504C59.5968 28.1184 60.0544 27.7152 60.5728 27.3408C61.0347 27.0278 61.5435 26.7901 62.08 26.6368C62.2843 26.5583 62.5011 26.5171 62.72 26.5152Z" fill="white"/>
<path d="M60.208 25.9872C60.208 26.0064 60.0704 26.128 59.8336 26.3232C59.5192 26.565 59.2468 26.8569 59.0272 27.1872C58.8169 27.5162 58.7202 27.9052 58.752 28.2944C58.7817 28.4563 58.8202 28.6166 58.8672 28.7744C58.8672 28.7744 58.704 28.6368 58.6368 28.3136C58.5653 27.8917 58.6531 27.4583 58.8832 27.0976C59.1149 26.7546 59.4144 26.4628 59.7632 26.24C59.8939 26.128 60.0449 26.0422 60.208 25.9872Z" fill="white"/>
<path d="M55.0048 30.6944C55.0603 30.4997 55.1612 30.3209 55.2992 30.1728C55.6035 29.7878 56.0019 29.4878 56.4559 29.3017C56.9099 29.1157 57.4043 29.0497 57.8912 29.1104C58.0939 29.118 58.2917 29.1751 58.4672 29.2768C58.4672 29.3024 58.24 29.2448 57.8816 29.2288C57.4162 29.2014 56.9505 29.279 56.5191 29.4557C56.0876 29.6323 55.7014 29.9037 55.3888 30.2496C55.1456 30.512 55.04 30.72 55.0048 30.6944Z" fill="white"/>
<path d="M56.9088 32.048C56.8237 31.9099 56.7824 31.7492 56.7904 31.5872C56.7719 31.1952 56.8859 30.8085 57.1141 30.4892C57.3422 30.1699 57.6712 29.9367 58.048 29.8272C58.1984 29.7666 58.3639 29.7543 58.5216 29.792C58.3793 29.8489 58.234 29.898 58.0864 29.9392C57.7495 30.0671 57.4579 30.2919 57.2483 30.5851C57.0388 30.8783 56.9207 31.227 56.9088 31.5872C56.9167 31.7407 56.9167 31.8945 56.9088 32.048Z" fill="white"/>
<path d="M73.4528 31.8944C73.2676 31.955 73.0689 31.9617 72.88 31.9136C72.413 31.8412 71.9827 31.6176 71.655 31.2772C71.3273 30.9367 71.1202 30.4982 71.0656 30.0288C71.026 29.839 71.0393 29.642 71.104 29.4592C71.1328 29.4592 71.104 29.6768 71.1808 30.0096C71.2629 30.4428 71.4695 30.8427 71.7752 31.1604C72.081 31.4781 72.4727 31.6998 72.9024 31.7984C73.2352 31.8784 73.4496 31.8688 73.4528 31.8944Z" fill="white"/>
<path d="M73.408 33.0656C72.926 33.1874 72.419 33.1663 71.9488 33.0048C71.46 32.8975 71.0143 32.6468 70.6688 32.2848C71.0942 32.5005 71.5336 32.6876 71.984 32.8448C72.4538 32.947 72.9293 33.0207 73.408 33.0656Z" fill="white"/>
<path d="M69.216 46.688C69.6224 46.688 73.9392 46.112 76.576 47.8496C79.2128 49.5872 86.304 63.04 86.304 63.04C86.304 63.04 88.4672 70.1984 85.4272 71.616C82.3872 73.0336 74.352 77.3568 74.352 77.3568L72.3936 70.2656L77.9328 67.7056V60.8672L69.216 46.688Z" fill="#455A64"/>
<path d="M77.9328 61.456L80.912 61.6192C81.7187 61.6638 82.5058 61.8843 83.2184 62.2652C83.9309 62.646 84.5515 63.1781 85.0368 63.824L86.9568 66.4032C86.9568 66.4032 87.984 67.7376 87.6832 68.3232C87.4368 68.8032 86.9504 68.7648 86.48 68.3424C86.0096 67.92 84.5088 65.7152 84.5088 65.7152C84.5088 65.7152 87.2736 69.2544 86.6432 69.9072C86.0128 70.56 85.3056 69.7024 85.3056 69.7024C85.3056 69.7024 85.728 71.0656 84.8832 70.9248C84.0384 70.784 83.024 69.5168 83.024 69.5168C83.024 69.5168 83.1488 70.3136 82.384 70.2208C81.6192 70.128 79.4272 66.7456 79.2384 66.7456C79.0496 66.7456 78.0672 66.6528 78.0672 66.6528L77.9328 61.456Z" fill="#CE947A"/>
<path d="M83.3728 64.592C83.7907 64.9636 84.1711 65.3751 84.5088 65.8208C84.888 66.2313 85.2256 66.6783 85.5168 67.1552C85.0989 66.7837 84.7184 66.3721 84.3808 65.9264C84.0024 65.5153 83.6649 65.0684 83.3728 64.592Z" fill="#A56349"/>
<path d="M82.496 66.0448C82.6659 66.2134 82.8182 66.3989 82.9504 66.5984C83.216 66.9536 83.5904 67.44 84 67.9712C84.4096 68.5024 84.8 68.976 85.0784 69.3216C85.2431 69.4964 85.387 69.6897 85.5072 69.8976C85.3154 69.7522 85.1414 69.5846 84.9888 69.3984C84.688 69.0784 84.2848 68.608 83.8688 68.0736C83.4528 67.5392 83.0976 67.04 82.8544 66.6688C82.7085 66.4771 82.588 66.2674 82.496 66.0448Z" fill="#A56349"/>
<path d="M81.4848 67.552C81.8522 67.7964 82.1659 68.1132 82.4064 68.4832C82.6945 68.8194 82.9122 69.2101 83.0464 69.632C83.0048 69.6544 82.7104 69.152 82.2816 68.5824C81.9987 68.2526 81.7328 67.9087 81.4848 67.552Z" fill="#A56349"/>
<path d="M76.0224 53.7024C75.9936 53.7024 76.0416 53.344 76.0224 52.7712C75.9926 52.0286 75.8457 51.2953 75.5872 50.5984C75.324 49.9036 74.9512 49.2554 74.4832 48.6784C74.1216 48.2368 73.8432 48 73.872 47.9776C73.9008 47.9552 73.952 48.0192 74.0768 48.1216C74.2539 48.269 74.4197 48.4295 74.5728 48.6016C75.0781 49.1713 75.475 49.8285 75.744 50.5408C76.0141 51.2564 76.1487 52.016 76.1408 52.7808C76.1386 53.0102 76.1193 53.2391 76.0832 53.4656C76.0762 53.5474 76.0557 53.6274 76.0224 53.7024Z" fill="#263238"/>
<path d="M57.2992 51.3664C57.2992 51.3664 61.2 53.6064 64.16 52.9664C66.0472 52.4956 67.7857 51.5581 69.216 50.24L74.4512 62.224L71.3504 86.224L61.9968 87.4432L58.896 64.6752L57.2992 51.3664Z" fill="#FAFAFA"/>
<path d="M57.008 47.136L54.976 47.8496L51.2192 72.3552C51.2192 72.3552 48.32 82.56 48.5728 86.9696C48.8256 91.3792 51.2 105.037 51.2 105.037L68.3392 103.232L67.6288 76.416C67.6288 76.416 68.864 68.6976 65.2032 64.0256C61.5424 59.3536 57.008 47.136 57.008 47.136Z" fill="#455A64"/>
<path d="M66.8384 46.5952C67.0752 46.9344 70.8224 61.1744 70.4192 64.1728C70.016 67.1712 67.8336 73.4528 67.8336 73.4528V103.142L82.9568 101.76C82.9568 101.76 84.1952 90.9216 82.9568 85.7312C81.7184 80.5408 79.9136 74.3936 79.9136 74.3936L78.72 56.272L71.1104 46.5952H66.8384Z" fill="#455A64"/>
<path d="M83.6928 95.1296C83.6622 95.1184 83.6332 95.1034 83.6064 95.0848L83.3632 94.9376C83.1456 94.8064 82.832 94.6176 82.4032 94.3936C81.8945 94.122 81.344 93.937 80.7744 93.8464C80.4205 93.7986 80.0611 93.8127 79.712 93.888C79.3239 93.988 78.9528 94.1455 78.6112 94.3552C78.2496 94.5728 77.8912 94.8384 77.5168 95.1168L76.3456 95.9808C75.536 96.5728 74.6784 97.216 73.7568 97.8784C73.2903 98.2395 72.7398 98.4762 72.1568 98.5664C71.5376 98.5834 70.924 98.4459 70.3712 98.1664C69.248 97.6576 68.0864 97.152 66.8736 96.6752C66.2656 96.4384 65.6672 96.2016 65.0688 96.0064C64.4876 95.7997 63.8745 95.6969 63.2576 95.7024C62.6652 95.7362 62.0922 95.9261 61.5968 96.2528C61.1182 96.5678 60.6751 96.9337 60.2752 97.344C59.472 98.1248 58.7392 98.944 57.8304 99.4336C57.7207 99.496 57.6062 99.5495 57.488 99.5936C57.3758 99.6484 57.2577 99.6902 57.136 99.7184C56.9051 99.795 56.6652 99.8412 56.4224 99.856C55.9716 99.8826 55.5193 99.8547 55.0752 99.7728C53.7436 99.5202 52.4521 99.0896 51.2352 98.4928C50.8 98.2944 50.4672 98.128 50.2432 98.016L49.9872 97.888C49.9296 97.856 49.9008 97.84 49.904 97.8368L49.9968 97.872L50.256 97.9872L51.2608 98.4352C52.4838 99.0046 53.7741 99.4164 55.1008 99.6608C55.5368 99.738 55.9807 99.7616 56.4224 99.7312C56.6557 99.7151 56.8858 99.6688 57.1072 99.5936C57.2179 99.5645 57.3251 99.5237 57.4272 99.472C57.5371 99.4265 57.6439 99.3741 57.7472 99.3152C58.624 98.8416 59.3472 98.0352 60.1504 97.2384C60.5567 96.8177 61.0073 96.4422 61.4944 96.1184C62.0122 95.778 62.6103 95.5794 63.2288 95.5424C63.8668 95.5385 64.5004 95.6468 65.1008 95.8624C65.7088 96.064 66.3072 96.3008 66.9152 96.5344C68.128 97.0112 69.2992 97.5232 70.416 98.032C70.9432 98.3021 71.5295 98.4363 72.1216 98.4224C72.6819 98.3439 73.2128 98.1236 73.664 97.7824L76.2592 95.9008L77.4336 95.0464C77.7917 94.7749 78.1634 94.5217 78.5472 94.288C78.8988 94.0725 79.2822 93.9138 79.6832 93.8176C80.0443 93.7421 80.4159 93.7313 80.7808 93.7856C81.3597 93.8828 81.9174 94.0799 82.4288 94.368C82.7522 94.5423 83.0663 94.7335 83.3696 94.9408L83.6064 95.1008C83.6672 95.1072 83.696 95.1264 83.6928 95.1296Z" fill="#FAFAFA"/>
<path d="M63.3184 72.3488C63.4016 72.32 66.0096 70.8928 66.6688 70.8096C67.328 70.7264 72.4544 70.4896 72.4544 70.4896L73.824 75.4528C73.824 75.4528 69.552 77.5232 68.8928 77.6928C68.2336 77.8624 65.4336 78.8736 64.9664 78.8736C64.4992 78.8736 63.1808 78.432 63.1808 78.1312C63.1746 78.0517 63.1891 77.972 63.2227 77.8997C63.2563 77.8274 63.308 77.7649 63.3728 77.7184C63.9701 77.74 64.5681 77.7036 65.1584 77.6096C65.4676 77.4995 65.77 77.3713 66.064 77.2256C66.064 77.2256 61.3696 77.9392 61.04 77.8272C60.7104 77.7152 60.464 77.0304 60.464 77.0304C60.464 77.0304 59.9136 76.6464 59.8592 76.2912C59.8048 75.936 59.9968 75.7696 60.2976 75.632C60.5984 75.4944 62.6304 74.5888 63.2352 74.4224C63.84 74.256 65.4336 73.984 65.4336 73.984C65.4336 73.984 60.5984 74.5056 60.3136 74.368C60.0288 74.2304 59.6736 73.7088 60.176 73.408C60.7763 73.0227 61.4341 72.7353 62.1248 72.5568C62.6592 72.4576 63.3184 72.3488 63.3184 72.3488Z" fill="#F4C3AE"/>
<path d="M66.7552 75.3024C66.4668 75.4567 66.1633 75.5811 65.8496 75.6736C65.28 75.8752 64.4832 76.1248 63.5872 76.352C62.6912 76.5792 61.872 76.7328 61.2768 76.8256C60.9554 76.8906 60.6287 76.926 60.3008 76.9312C60.6146 76.8327 60.9355 76.7589 61.2608 76.7104C61.8496 76.5888 62.6624 76.4128 63.5552 76.1888C64.448 75.9648 65.2416 75.7344 65.8208 75.5488C66.1259 75.4441 66.4382 75.3618 66.7552 75.3024Z" fill="#CC937F"/>
<path d="M66.304 71.6064C65.8342 71.797 65.3449 71.9354 64.8448 72.0192C64.3573 72.1568 63.8562 72.2405 63.3504 72.2688C63.8202 72.0782 64.3096 71.9397 64.8096 71.856C65.2972 71.7189 65.7983 71.6352 66.304 71.6064Z" fill="#CC937F"/>
<path d="M72.5568 72.4608C72.4926 72.4749 72.4273 72.4835 72.3616 72.4864C72.1897 72.5271 72.0247 72.5928 71.872 72.6816C71.6339 72.8333 71.3604 72.9205 71.0784 72.9344C70.7584 72.9152 70.4384 72.736 70.1824 72.9536C70.0545 73.0749 69.9139 73.1821 69.7632 73.2736C69.6013 73.3408 69.4228 73.3575 69.2512 73.3216C68.9312 73.2576 68.6944 73.136 68.4736 73.1232C68.3052 73.1039 68.136 73.1523 68.0032 73.2576C67.9136 73.3376 67.8944 73.4112 67.8816 73.4048C67.8688 73.3984 67.8816 73.3216 67.9552 73.2128C68.0222 73.1419 68.1039 73.0866 68.1946 73.0507C68.2852 73.0148 68.3827 72.9991 68.48 73.0048C68.7477 73.0426 69.0127 73.0971 69.2736 73.168C69.4147 73.1952 69.5607 73.1796 69.6928 73.1232C69.8321 73.0339 69.9637 72.9333 70.0864 72.8224C70.1632 72.7612 70.2529 72.7185 70.3488 72.6976C70.4409 72.6816 70.5351 72.6816 70.6272 72.6976C70.8 72.7232 70.9472 72.7744 71.088 72.784C71.3451 72.7749 71.5963 72.7047 71.8208 72.5792C71.9872 72.4937 72.1688 72.4415 72.3552 72.4256C72.4896 72.4192 72.56 72.4512 72.5568 72.4608Z" fill="#CC937F"/>
<path d="M72.608 73.4784C72.4719 73.6581 72.2791 73.7866 72.0608 73.8432C71.83 73.9241 71.5833 73.9493 71.3408 73.9168C71.2126 73.8892 71.0814 73.8784 70.9504 73.8848C70.8882 73.8956 70.8293 73.9206 70.7783 73.9578C70.7273 73.9949 70.6854 74.0433 70.656 74.0992C70.567 74.2418 70.4295 74.3475 70.2688 74.3968C70.1222 74.4285 69.9706 74.4285 69.824 74.3968C69.6018 74.3403 69.3746 74.306 69.1456 74.2944C68.9989 74.299 68.8589 74.357 68.752 74.4576C68.6816 74.5344 68.6656 74.5952 68.6496 74.592C68.6336 74.5888 68.6336 74.5216 68.7008 74.4192C68.7525 74.3506 68.8178 74.2936 68.8928 74.2517C68.9677 74.2099 69.0506 74.1841 69.136 74.176C69.3748 74.1693 69.6135 74.193 69.8464 74.2464C69.9723 74.276 70.1042 74.2668 70.2247 74.2199C70.3452 74.1731 70.4488 74.0908 70.5216 73.984C70.5691 73.9164 70.625 73.8551 70.688 73.8016C70.7591 73.7486 70.8431 73.7154 70.9312 73.7056C71.0764 73.7001 71.2217 73.714 71.3632 73.7472C71.5848 73.7846 71.8118 73.7737 72.0288 73.7152C72.2274 73.6504 72.4209 73.5713 72.608 73.4784Z" fill="#CC937F"/>
<path d="M58.2624 75.6096C58.1462 75.6299 58.0279 75.6353 57.9104 75.6256C57.7715 75.6262 57.6327 75.6198 57.4944 75.6064C57.3344 75.5904 57.1488 75.5808 56.9472 75.5456C56.4742 75.4716 56.0069 75.3647 55.5488 75.2256C54.9884 75.0525 54.4391 74.8452 53.904 74.6048C52.9401 74.1599 52.0143 73.6365 51.136 73.04C50.7968 72.8128 50.5312 72.624 50.3488 72.4864C50.249 72.4223 50.1576 72.346 50.0768 72.2592C50.1908 72.302 50.2985 72.3602 50.3968 72.432L51.2 72.96C52.0911 73.524 53.0178 74.0296 53.9744 74.4736C54.5022 74.7159 55.0427 74.9296 55.5936 75.1136C56.0435 75.2559 56.502 75.3692 56.9664 75.4528C57.76 75.5712 58.2656 75.5776 58.2624 75.6096Z" fill="#263238"/>
<path d="M61.5648 79.8592C61.3839 79.8378 61.2052 79.8015 61.0304 79.7504C60.8212 79.7067 60.615 79.65 60.4128 79.5808C60.1728 79.5072 59.8976 79.4304 59.6064 79.3152C58.9138 79.0611 58.2374 78.7651 57.5808 78.4288C56.781 78.0097 56.0054 77.546 55.2576 77.04C53.9074 76.1068 52.6369 75.0632 51.4592 73.92C51.008 73.4848 50.6528 73.12 50.416 72.8608C50.2869 72.7327 50.1682 72.5947 50.0608 72.448C50.2047 72.5587 50.3395 72.6806 50.464 72.8128C50.7136 73.0592 51.0816 73.4112 51.5424 73.8336C52.736 74.9462 54.0086 75.9707 55.3504 76.8992C56.0931 77.4012 56.861 77.8647 57.6512 78.288C58.2989 78.6297 58.9656 78.9342 59.648 79.2C59.936 79.3216 60.2048 79.408 60.4384 79.4912C60.672 79.5744 60.8768 79.6384 61.0464 79.6864C61.2232 79.7313 61.3964 79.7891 61.5648 79.8592Z" fill="#263238"/>
<path d="M79.424 66.9632C79.1041 67.1551 78.7704 67.323 78.4256 67.4656C77.7856 67.7568 76.9248 68.1472 75.9552 68.56C74.9856 68.9728 74.1024 69.3344 73.456 69.5776C73.136 69.6992 72.8672 69.7952 72.6848 69.856C72.5924 69.8968 72.4941 69.9227 72.3936 69.9328C72.7219 69.7553 73.0619 69.6003 73.4112 69.4688L75.8912 68.4064L78.3776 67.3568C78.7159 67.1993 79.0657 67.0677 79.424 66.9632Z" fill="#263238"/>
<path d="M72.9984 53.536C72.9984 53.536 73.0432 53.5712 73.1136 53.648L73.4144 53.9904C73.6768 54.2816 74.0544 54.6976 74.5664 55.1936C75.0784 55.6896 75.6704 56.2688 76.32 56.9408C77.036 57.6636 77.6672 58.4655 78.2016 59.3312C78.7239 60.2155 79.0665 61.1942 79.2096 62.2112C79.3312 63.1424 79.3696 63.9808 79.4016 64.6848C79.4336 65.3888 79.44 65.9648 79.4432 66.3552C79.4432 66.5376 79.4432 66.6752 79.4432 66.8096C79.4469 66.8635 79.4414 66.9175 79.4272 66.9696C79.4147 66.9172 79.4083 66.8635 79.408 66.8096C79.408 66.688 79.3984 66.5376 79.3792 66.3584C79.3568 65.9392 79.3248 65.376 79.2864 64.6912C79.248 64.0064 79.1904 63.152 79.0592 62.2336C78.9111 61.2414 78.572 60.2872 78.0608 59.424C77.5341 58.5685 76.9137 57.7742 76.2112 57.056C75.5712 56.3776 74.9696 55.7952 74.4832 55.2832C73.9968 54.7712 73.616 54.3424 73.3664 54.0384L73.0912 53.6768C73.0542 53.6342 73.023 53.5868 72.9984 53.536Z" fill="#263238"/>
<path d="M85.12 71.7504C84.9675 71.8548 84.8082 71.9489 84.6432 72.032L83.312 72.7552C82.1856 73.3568 80.624 74.1792 78.896 75.0752C77.12 76 75.5136 76.8224 74.3744 77.3952L74.3104 77.4304L74.2912 77.36C74.144 76.7872 74.0224 76.3136 73.9328 75.9552C73.882 75.7867 73.8445 75.6144 73.8208 75.44C73.8926 75.6012 73.9504 75.7682 73.9936 75.9392C74.096 76.2944 74.2368 76.7616 74.4032 77.3312L74.32 77.2928C75.4464 76.6912 77.0432 75.8496 78.8192 74.928C80.5952 74.0064 82.1184 73.2256 83.2576 72.6496L84.6112 71.9744C84.774 71.8852 84.9443 71.8103 85.12 71.7504Z" fill="#263238"/>
<path d="M68.2592 77.904C68.267 77.9902 68.267 78.077 68.2592 78.1632C68.2592 78.3456 68.2272 78.592 68.2016 78.8992C68.1408 79.5392 68.096 80.464 68.0384 81.6096C67.936 83.8976 67.9072 87.0496 67.9616 90.5696C68.016 94.0896 68.1248 97.2352 68.2176 99.5296C68.2624 100.662 68.3008 101.587 68.3264 102.243C68.3264 102.563 68.3456 102.8 68.352 102.982C68.3604 103.069 68.3604 103.155 68.352 103.242C68.3341 103.157 68.3234 103.072 68.32 102.986C68.32 102.8 68.2848 102.557 68.2624 102.25C68.2176 101.61 68.16 100.682 68.0992 99.536C67.9776 97.2448 67.8464 94.0768 67.7952 90.576C67.744 87.0752 67.7952 83.904 67.92 81.616C67.9936 80.4704 68.0544 79.5424 68.1376 78.9056C68.1728 78.5856 68.2016 78.3552 68.224 78.1728C68.2276 78.0823 68.2393 77.9923 68.2592 77.904Z" fill="#263238"/>
<path d="M54.976 47.8496C54.976 47.8496 49.3216 50.2624 47.5776 54.0864C45.8336 57.9104 42.256 70.0512 42.1728 72.2944C42.0896 74.5376 46.2464 81.5232 46.2464 81.5232L52.816 77.3632L51.568 74.288L53.5616 61.0688L54.976 47.8496Z" fill="#455A64"/>
<path d="M52.2784 150.483C52.1735 150.483 52.0696 150.462 51.9727 150.422C51.8759 150.382 51.7879 150.323 51.7138 150.249C51.6398 150.174 51.5812 150.086 51.5413 149.989C51.5015 149.892 51.4812 149.788 51.4816 149.683C51.4816 149.043 51.5808 85.1424 51.552 84.1088C51.4912 81.9072 50.1504 80.9088 50.0928 80.8544C49.9275 80.7285 49.8176 80.5433 49.7865 80.3378C49.7553 80.1324 49.8053 79.9229 49.9259 79.7537C50.0465 79.5845 50.2282 79.4688 50.4325 79.4311C50.6369 79.3935 50.8478 79.4368 51.0208 79.552C51.104 79.6128 53.0688 81.0336 53.152 84.064C53.1808 85.12 53.0848 147.05 53.0816 149.683C53.0807 149.896 52.9958 150.099 52.8452 150.249C52.6947 150.399 52.4909 150.483 52.2784 150.483Z" fill="#263238"/>
<path d="M47.7376 88.8608C47.5257 88.8591 47.323 88.7738 47.1738 88.6233C47.0245 88.4729 46.9408 88.2695 46.9408 88.0576C46.9408 85.6832 46.9408 82.0768 46.9408 81.8656C46.9334 81.7615 46.9467 81.657 46.9799 81.5581C47.0132 81.4591 47.0656 81.3678 47.1344 81.2892C47.2031 81.2107 47.2867 81.1465 47.3803 81.1005C47.474 81.0544 47.5758 81.0273 47.68 81.0208C47.8934 81.0094 48.1027 81.082 48.2631 81.2233C48.4234 81.3645 48.522 81.5629 48.5376 81.776C48.5376 81.8112 48.5376 81.9232 48.5376 88.0608C48.5376 88.273 48.4533 88.4765 48.3033 88.6265C48.1533 88.7765 47.9498 88.8608 47.7376 88.8608Z" fill="#263238"/>
<path d="M48.96 77.4944L47.4112 78.8512C47.024 79.1904 46.5376 82.192 46.5376 82.192C46.5376 82.192 48.2336 84.0064 48.96 84.08C49.4309 84.1058 49.8951 83.959 50.2656 83.6672C50.2656 83.6672 50.992 84.08 51.4304 83.7184C51.8688 83.3568 50.8224 81.0048 50.8224 81.0048C50.8224 81.0048 50.432 79.8688 51.536 79.9392L52.0096 80.7904L53.1968 82.8224C53.1968 82.8224 53.9232 82.7232 54.0448 82.3616C54.1664 82 53.7248 80.7904 53.7248 80.7904C53.8609 80.5813 53.9508 80.3455 53.9883 80.0988C54.0258 79.8521 54.0102 79.6002 53.9424 79.36C53.6768 78.656 53.2416 77.3728 51.9584 77.0848C50.6752 76.7968 48.96 77.4944 48.96 77.4944Z" fill="#F4C3AE"/>
<path d="M50.208 83.376C50.1856 83.392 49.9904 83.136 49.632 82.7616C49.1633 82.2792 48.6428 81.85 48.08 81.4816C47.9113 81.3652 47.7677 81.2161 47.6576 81.0432C47.562 80.8685 47.5271 80.667 47.5584 80.4704C47.6179 80.1563 47.7617 79.8643 47.9744 79.6256C48.144 79.4208 48.2944 79.2672 48.3712 79.152C48.448 79.0368 48.5056 78.9728 48.5152 78.9792C48.4137 79.2441 48.2627 79.4874 48.0704 79.696C47.8847 79.9253 47.7612 80.1986 47.712 80.4896C47.6879 80.6516 47.7183 80.8171 47.7984 80.96C47.8981 81.1132 48.0276 81.2449 48.1792 81.3472C48.7503 81.7253 49.268 82.1784 49.7184 82.6944C49.9157 82.895 50.0809 83.1249 50.208 83.376Z" fill="#CC937F"/>
<path d="M52.3552 79.5648C52.3904 79.5968 52.1984 79.8368 52.1184 80.1856C52.0384 80.5344 52.0864 80.8256 52.0416 80.848C51.9968 80.8704 51.856 80.5472 51.9552 80.1472C52.0544 79.7472 52.3264 79.5296 52.3552 79.5648Z" fill="#CC937F"/>
<path d="M43.7024 71.136C43.8536 71.1237 44.0056 71.1237 44.1568 71.136C44.304 71.136 44.4768 71.136 44.6912 71.136L45.3952 71.2256C45.6576 71.2608 45.9328 71.344 46.2368 71.4112C46.3872 71.4496 46.5344 71.5104 46.6912 71.5648C46.854 71.6149 47.0133 71.6758 47.168 71.7472C47.8628 72.0548 48.5094 72.4611 49.088 72.9536C49.6611 73.4453 50.1881 73.9884 50.6624 74.576C51.104 75.1104 51.4752 75.6096 51.792 76.0224C52.1088 76.4352 52.368 76.7744 52.5504 76.9824C52.6525 77.0958 52.7445 77.2179 52.8256 77.3472C52.7083 77.2517 52.6011 77.1445 52.5056 77.0272C52.3072 76.8096 52.032 76.4864 51.7056 76.0672C51.3792 75.648 50.992 75.1712 50.5472 74.6464C50.0727 74.07 49.5503 73.5347 48.9856 73.0464C48.4216 72.5631 47.7925 72.1613 47.1168 71.8528C46.967 71.7819 46.8131 71.7199 46.656 71.6672C46.5024 71.6128 46.3584 71.5488 46.2112 71.5072C45.9136 71.4368 45.6448 71.3504 45.3888 71.3056L44.6944 71.1936C44.4896 71.1712 44.3136 71.1648 44.1664 71.152C44.0116 71.1634 43.856 71.1581 43.7024 71.136Z" fill="#263238"/>
<path d="M52.3552 59.8048C52.3437 59.994 52.3191 60.1822 52.2816 60.368C52.224 60.7264 52.1344 61.2448 52.0192 61.8848C51.7696 63.1904 51.4368 64.944 51.0592 66.88C50.6816 68.816 50.3968 70.6016 50.2112 71.8912C50.1216 72.512 50.048 73.0272 49.9936 73.4144C49.9763 73.6031 49.9453 73.7902 49.9008 73.9744C49.8953 73.7851 49.905 73.5957 49.9296 73.408C49.9584 73.0432 50.016 72.5216 50.0928 71.8752C50.2496 70.5952 50.528 68.8032 50.896 66.848C51.264 64.8928 51.6352 63.1392 51.8976 61.8624L52.2176 60.3552C52.2483 60.1683 52.2943 59.9842 52.3552 59.8048Z" fill="#263238"/>
<path d="M53.9136 151.066H50.912L51.4688 148.678H53.2448L53.9136 151.066Z" fill="#455A64"/>
</svg>
